<svg width="16" height="19" viewBox="0 0 16 19" fill="none" xmlns="http://www.w3.org/2000/svg">
<path fill-rule="evenodd" clip-rule="evenodd" d="M10.4691 1.02914C9.56071 0.633962 8.58293 0.425996 7.59345 0.417501C6.59732 0.401961 5.60846 0.590783 4.68707 0.972476C3.76567 1.35417 2.93101 1.92075 2.23389 2.63773C0.818463 4.08173 0.0173196 6.02453 0.000486137 8.05382C-0.0163473 10.0831 0.752454 12.0391 2.14373 13.5068L6.71188 18.2702C6.80382 18.3673 6.91409 18.4451 7.03622 18.4988C7.15835 18.5525 7.28989 18.5811 7.42315 18.583C7.55621 18.586 7.6884 18.5606 7.811 18.5084C7.93361 18.4563 8.04383 18.3785 8.13442 18.2802L12.7827 13.5875C14.1995 12.1448 15.0024 10.2027 15.0212 8.17345C15.0399 6.14416 14.2728 4.1874 12.8829 2.71846C12.1983 1.99872 11.3776 1.42432 10.4691 1.02914ZM7.43295 10.7271C8.77209 10.7271 9.85768 9.63352 9.85767 8.28448C9.85767 6.93544 8.77209 5.84183 7.43295 5.84183C6.09381 5.84183 5.00823 6.93544 5.00823 8.28448C5.00823 9.63352 6.09381 10.7271 7.43295 10.7271Z" fill="#828282"/>
</svg>
