<svg width="130" height="71" viewBox="0 0 130 71" fill="none" xmlns="http://www.w3.org/2000/svg">
<g clip-path="url(#clip0_28_416)">
<g clip-path="url(#clip1_28_416)">
<path fill-rule="evenodd" clip-rule="evenodd" d="M6 -17H110.812V70.6618H6V-17Z" fill="white"/>
<path fill-rule="evenodd" clip-rule="evenodd" d="M58.4063 -13.1345C84.0167 -13.1345 104.782 4.76076 104.782 26.8308C104.782 48.9009 84.0167 66.7916 58.4063 66.7916C32.7958 66.7916 12.0247 48.8964 12.0247 26.8308C12.0247 4.7653 32.7958 -13.1345 58.4063 -13.1345Z" fill="white"/>
<path fill-rule="evenodd" clip-rule="evenodd" d="M60.8259 -6.56763C67.588 -6.55794 74.1263 -4.54012 79.2752 -0.873881C80.3627 -0.0325537 80.167 0.604125 79.0958 0.708723C63.5607 3.42717 48.2312 6.91072 33.1873 11.1412C31.5234 11.5323 32.2901 8.75364 32.9698 7.84865C38.951 -0.792019 49.2822 -6.56763 60.8259 -6.56763ZM87.6924 36.9086C82.0429 46.7862 70.907 53.5941 58.4117 53.5941C52.5846 53.5934 46.8996 52.0894 42.1319 49.2875C40.8541 48.4279 41.2293 47.6594 42.4255 47.2864C56.3975 42.5774 70.7367 38.6695 85.3434 35.5897C87.1215 35.2077 88.4808 35.4578 87.6924 36.9086Z" fill="#FFCC00"/>
<path fill-rule="evenodd" clip-rule="evenodd" d="M70.6514 49.9105C76.5348 46.3587 79.8951 43.0889 81.0914 40.0328C81.7982 37.9682 83.8862 38.4548 83.337 40.0101C80.5748 45.9221 75.0123 48.4416 70.6514 49.9105Z" fill="white"/>
<path fill-rule="evenodd" clip-rule="evenodd" d="M45.6935 -1.91968C42.5887 -0.273403 39.3099 1.09545 36.4498 7.3804C36.0529 8.64922 37.7711 9.02214 38.13 7.91249C39.0598 4.19701 41.8492 1.0227 45.7153 -1.91968H45.6935Z" fill="white"/>
<path fill-rule="evenodd" clip-rule="evenodd" d="M60.7661 -5.1167C74.5827 -4.42545 76.8338 -0.687221 69.8575 1.03637C72.4077 -2.25164 68.7211 -4.15713 60.7661 -5.1167Z" fill="white"/>
<path d="M96.2619 39.6147V38.5869H95.6964V38.3777H97.208V38.5869H96.648V39.6147H96.2619Z" fill="#E30613"/>
<path d="M97.4472 39.6147V38.3777H98.0236L98.3661 39.219L98.7087 38.3777H99.2851V39.6147H98.9262V38.6369L98.551 39.6147H98.1813L97.8061 38.6369V39.6147H97.4472Z" fill="#E30613"/>
<path fill-rule="evenodd" clip-rule="evenodd" d="M28.1522 31.5334V49.6469L33.1275 47.9142C34.3128 47.5686 34.6989 46.7864 34.5793 45.5722L34.6826 39.6601C36.6183 41.3064 38.5522 42.9542 40.4844 44.6035C43.1107 46.8774 47.428 42.6753 45.4596 40.8744L40.903 36.5404C42.4219 34.2302 43.9408 31.9184 45.4596 29.6051C47.1181 27.2949 42.5615 24.8664 40.4844 27.2676L34.4542 35.4126V29.0867L28.1304 31.5152L28.1522 31.5334Z" fill="#E30613"/>
<path fill-rule="evenodd" clip-rule="evenodd" d="M47.0637 27.2812C47.0637 27.6177 46.9821 43.7167 46.9821 43.7167L51.2016 42.2205C52.947 41.5565 53.6049 40.5606 53.6376 39.2326L53.8007 22.9336L49.255 24.4935C47.7651 25.1847 47.08 26.0442 47.08 27.2812H47.0637Z" fill="#E30613"/>
<path fill-rule="evenodd" clip-rule="evenodd" d="M55.8289 40.7288L55.6712 22.7289L59.2436 21.642C59.7637 21.4467 60.3525 21.422 60.8934 21.5728C61.4342 21.7236 61.8876 22.0388 62.1635 22.4561L68.2535 28.0225C68.2535 25.9396 68.1991 23.8568 68.1719 21.7739C68.0958 20.5051 69.5802 19.6001 71.4344 19.0453L74.0335 18.3677L74.1151 35.076C74.1151 36.9679 70.0479 37.9774 68.8353 36.7086C67.9979 35.7536 61.9297 30.2554 61.9297 30.2554L61.6905 37.2498C61.5654 39.2372 59.7819 39.8829 55.8398 40.7152L55.8289 40.7288Z" fill="#E30613"/>
<path fill-rule="evenodd" clip-rule="evenodd" d="M84.6583 23.7476L93.5921 21.9285V29.3322C92.7003 32.1836 89.9381 33.7207 85.0661 34.3347C78.862 34.844 75.0558 31.8971 75.1591 26.3261C76.3771 18.404 81.7094 14.9174 91.1561 15.8664C95.8649 16.453 94.163 20.8916 90.1828 20.2095C84.9683 19.3727 81.4829 21.551 81.2491 25.5075C81.4666 29.5141 84.7127 31.1695 88.0676 28.8365L88.1492 27.072C86.0558 27.4767 84.5115 27.3903 84.5768 25.9168C84.5768 25.9168 84.8215 23.8112 84.6583 23.743V23.7476Z" fill="#E30613"/>
<path fill-rule="evenodd" clip-rule="evenodd" d="M64.1808 11.6733L69.9826 10.4499V15.3933C69.4008 17.3034 67.6119 18.3311 64.4473 18.7541C60.4072 19.0861 57.9495 17.1215 58.0148 13.3969C58.8086 8.10333 62.2705 5.77338 68.4003 6.40703C71.4562 6.80268 70.3524 9.76779 67.7696 9.31302C64.3875 8.75365 62.12 10.2226 61.9678 12.8557C62.1092 15.5298 64.2189 16.6349 66.3993 15.0795L66.4483 13.8971C65.0889 14.17 64.0884 14.1109 64.1319 13.124C64.2033 12.6428 64.2197 12.1571 64.1808 11.6733Z" fill="#E30613"/>
<path fill-rule="evenodd" clip-rule="evenodd" d="M28.473 23.3383L28.2773 26.8492C29.8215 26.3671 31.4473 25.6577 31.431 23.8613C31.431 22.9518 30.1314 22.6334 28.473 23.3383ZM28.473 18.3677L28.2936 21.6557C29.7236 21.2009 31.2298 20.5415 31.2135 18.8634C31.2135 18.0084 30.0118 17.7173 28.4948 18.3768L28.473 18.3677ZM24.8027 17.2944C24.8625 17.5855 24.8625 30.8011 24.8625 30.8011L32.6109 27.7269C36.2268 26.1033 36.2268 21.2282 33.1982 21.4874C36.1127 18.9543 34.2476 14.5612 31.3875 15.3434L24.8027 17.2944Z" fill="#E30613"/>
<path fill-rule="evenodd" clip-rule="evenodd" d="M35.8027 14.6613C35.8027 14.9524 35.7429 22.9973 35.7429 22.9973C35.7429 25.1302 38.5051 25.9897 40.9357 25.585C44.1982 25.0301 45.9653 23.3566 46.123 20.8553C46.123 17.8311 46.1611 15.248 46.1774 12.2147C46.123 10.5729 42.4473 11.1596 42.3331 12.7513C42.3712 15.5481 42.4092 18.0994 42.4473 20.8917C42.1972 22.9245 39.5546 23.0064 39.5926 21.2828V14.1747C39.6307 12.5239 35.7864 12.7695 35.7864 14.6613H35.8027Z" fill="#E30613"/>
<path fill-rule="evenodd" clip-rule="evenodd" d="M47.4606 23.0198L47.2866 10.6864L53.0612 9.17658C56.6554 8.26703 59.2164 12.36 55.2362 15.7071L57.9549 18.2947C59.298 19.7227 56.4977 21.6874 54.9806 20.5368L51.3103 17.6581C51.2523 18.6161 51.1944 19.5757 51.1364 20.5368C51.0167 21.9739 49.7933 22.6378 47.4606 23.0198ZM51.1907 11.8552C54.3227 10.5864 54.7686 14.0517 51.1364 15.4934C51.1364 14.3246 51.1744 13.0103 51.1907 11.8552Z" fill="#E30613"/>
<path fill-rule="evenodd" clip-rule="evenodd" d="M80.2051 15.4889L80.1017 3.56021L86.0829 2.74162C89.7913 2.24137 92.4121 6.49348 88.2579 9.28579L91.0637 12.0826C92.4393 13.6107 89.5412 15.2024 87.9861 13.9017L84.2179 10.7183L84.0221 13.4788C83.8916 14.8431 82.6247 15.3615 80.2159 15.4707L80.2051 15.4889ZM84.12 5.12462C87.3553 4.24237 87.7903 7.63497 84.0385 8.64911C84.0656 7.51672 84.0928 6.25246 84.12 5.12462Z" fill="#E30613"/>
<path fill-rule="evenodd" clip-rule="evenodd" d="M70.9341 5.18378L71.0538 17.2534C73.3103 16.876 74.8219 16.6031 77.073 16.2256C79.4057 15.7436 79.509 14.4475 79.4057 13.015L74.8002 13.9245V11.3596C78.7967 10.8048 79.1501 10.3591 78.9761 8.43086L74.6262 9.09937V7.10292C78.6608 6.45259 79.3785 6.07513 79.3568 3.76489L70.945 5.20197L70.9341 5.18378Z" fill="#E30613"/>
<path fill-rule="evenodd" clip-rule="evenodd" d="M58.7108 -10.133C62.5281 -10.1355 66.3291 -9.71657 70.0152 -8.88698L69.7597 -8.52316C61.0597 -10.0694 48.6297 -7.75914 43.1161 -5.57624C29.4355 -0.682891 19.735 11.1821 19.735 24.989C19.7144 32.1107 22.3697 39.0577 27.3257 44.8489V50.8428L31.8986 49.2829C38.6134 54.8069 47.6446 57.9161 57.0632 57.9463C72.3642 57.9463 85.5664 49.7286 91.3192 38.0364C93.6301 39.1278 96.7567 40.6195 99.2851 41.8383C92.5263 55.1267 76.8719 64.4768 58.7216 64.4768C34.4107 64.4768 14.5858 47.7185 14.5858 27.1855C14.5858 6.65258 34.4107 -10.1058 58.7216 -10.1058L58.7108 -10.133Z" fill="#203F92"/>
</g>
</g>
<defs>
<clipPath id="clip0_28_416">
<rect y="0.404541" width="130" height="70.4425" fill="white"/>
</clipPath>
<clipPath id="clip1_28_416">
<rect width="104.812" height="87.6618" fill="white" transform="translate(6 -17)"/>
</clipPath>
</defs>
</svg>
