<svg width="32" height="42" viewBox="0 0 32 42" fill="none" xmlns="http://www.w3.org/2000/svg">
<path d="M27.3543 10.4388C27.3536 10.4383 27.3531 10.4376 27.3525 10.437L17.5624 0.647278C17.1451 0.229797 16.5903 0 16.0002 0C15.41 0 14.8552 0.229797 14.4377 0.647278L4.65273 10.4321C4.64944 10.4354 4.64596 10.4388 4.64285 10.4421C3.78591 11.304 3.78738 12.7024 4.64706 13.5621C5.03982 13.955 5.55837 14.1824 6.113 14.2064C6.13571 14.2086 6.15841 14.2097 6.1813 14.2097H6.57131V21.4142C6.57131 22.84 7.73147 24 9.15731 24H12.9875C13.3759 24 13.6906 23.6851 13.6906 23.2969V17.6484C13.6906 16.9979 14.22 16.4687 14.8706 16.4687H17.1297C17.7803 16.4687 18.3095 16.9979 18.3095 17.6484V23.2969C18.3095 23.6851 18.6242 24 19.0126 24H22.8428C24.2688 24 25.4288 22.84 25.4288 21.4142V14.2097H25.7906C26.3806 14.2097 26.9354 13.9799 27.3531 13.5623C28.2137 12.7013 28.214 11.3004 27.3543 10.4388ZM26.3586 12.568C26.2068 12.7198 26.005 12.8035 25.7906 12.8035H24.7257C24.3373 12.8035 24.0226 13.1182 24.0226 13.5066V21.4142C24.0226 22.0646 23.4934 22.5938 22.8428 22.5938H19.7157V17.6484C19.7157 16.2226 18.5558 15.0624 17.1297 15.0624H14.8706C13.4445 15.0624 12.2844 16.2226 12.2844 17.6484V22.5938H9.15731C8.50692 22.5938 7.97757 22.0646 7.97757 21.4142V13.5066C7.97757 13.1182 7.66281 12.8035 7.27444 12.8035H6.22781C6.21682 12.8027 6.20602 12.8022 6.19485 12.802C5.98538 12.7983 5.7889 12.7152 5.64169 12.5678C5.32858 12.2547 5.32858 11.7451 5.64169 11.4318C5.6415 11.432 5.64187 11.4318 5.64169 11.4318L15.4323 1.64154C15.584 1.48975 15.7856 1.40625 16.0002 1.40625C16.2146 1.40625 16.4162 1.48975 16.568 1.64154L26.3555 11.4289C26.357 11.4304 26.3586 11.4318 26.3601 11.4333C26.6715 11.7469 26.671 12.2554 26.3586 12.568Z" fill="#52CC6D"/>
<path d="M3.78 39H0.456V38.256L1.476 37.956V31.488L0.456 31.176V30.432H3.78V31.176L2.772 31.488V37.956L3.78 38.256V39ZM8.51419 32.412C9.26619 32.412 9.84219 32.6 10.2422 32.976C10.6422 33.352 10.8422 33.956 10.8422 34.788V39H9.58219V34.968C9.58219 34.464 9.47419 34.088 9.25819 33.84C9.05019 33.584 8.71419 33.456 8.25019 33.456C7.59419 33.456 7.13819 33.652 6.88219 34.044C6.63419 34.436 6.51019 35 6.51019 35.736V39H5.23819V32.532H6.24619L6.42619 33.396H6.49819C6.64219 33.172 6.81819 32.988 7.02619 32.844C7.23419 32.7 7.46619 32.592 7.72219 32.52C7.97819 32.448 8.24219 32.412 8.51419 32.412ZM14.0688 32.532V39H12.7968V32.532H14.0688ZM13.4448 30.072C13.6368 30.072 13.8048 30.128 13.9488 30.24C14.0928 30.352 14.1648 30.54 14.1648 30.804C14.1648 31.06 14.0928 31.248 13.9488 31.368C13.8048 31.48 13.6368 31.536 13.4448 31.536C13.2368 31.536 13.0608 31.48 12.9168 31.368C12.7808 31.248 12.7128 31.06 12.7128 30.804C12.7128 30.54 12.7808 30.352 12.9168 30.24C13.0608 30.128 13.2368 30.072 13.4448 30.072ZM18.6703 39.12C18.0783 39.12 17.5583 39.004 17.1103 38.772C16.6623 38.54 16.3143 38.18 16.0663 37.692C15.8183 37.196 15.6943 36.568 15.6943 35.808C15.6943 35.008 15.8263 34.36 16.0903 33.864C16.3623 33.368 16.7263 33.004 17.1823 32.772C17.6463 32.532 18.1743 32.412 18.7663 32.412C19.1263 32.412 19.4623 32.452 19.7743 32.532C20.0943 32.604 20.3583 32.688 20.5663 32.784L20.1823 33.816C19.9583 33.728 19.7183 33.652 19.4623 33.588C19.2143 33.524 18.9783 33.492 18.7543 33.492C18.3543 33.492 18.0223 33.58 17.7583 33.756C17.5023 33.924 17.3103 34.18 17.1823 34.524C17.0623 34.86 17.0023 35.284 17.0023 35.796C17.0023 36.284 17.0663 36.696 17.1943 37.032C17.3223 37.368 17.5103 37.624 17.7583 37.8C18.0143 37.968 18.3303 38.052 18.7063 38.052C19.0663 38.052 19.3823 38.012 19.6543 37.932C19.9263 37.852 20.1823 37.748 20.4223 37.62V38.724C20.1903 38.86 19.9383 38.96 19.6663 39.024C19.3943 39.088 19.0623 39.12 18.6703 39.12ZM23.2211 32.532V39H21.9491V32.532H23.2211ZM22.5971 30.072C22.7891 30.072 22.9571 30.128 23.1011 30.24C23.2451 30.352 23.3171 30.54 23.3171 30.804C23.3171 31.06 23.2451 31.248 23.1011 31.368C22.9571 31.48 22.7891 31.536 22.5971 31.536C22.3891 31.536 22.2131 31.48 22.0691 31.368C21.9331 31.248 21.8651 31.06 21.8651 30.804C21.8651 30.54 21.9331 30.352 22.0691 30.24C22.2131 30.128 22.3891 30.072 22.5971 30.072ZM30.9187 35.76C30.9187 36.296 30.8467 36.772 30.7027 37.188C30.5587 37.604 30.3547 37.956 30.0907 38.244C29.8267 38.532 29.5067 38.752 29.1307 38.904C28.7547 39.048 28.3307 39.12 27.8587 39.12C27.4267 39.12 27.0267 39.048 26.6587 38.904C26.2907 38.752 25.9707 38.532 25.6987 38.244C25.4347 37.956 25.2267 37.604 25.0747 37.188C24.9227 36.772 24.8467 36.292 24.8467 35.748C24.8467 35.036 24.9667 34.432 25.2067 33.936C25.4547 33.44 25.8067 33.064 26.2627 32.808C26.7267 32.544 27.2707 32.412 27.8947 32.412C28.4867 32.412 29.0067 32.544 29.4547 32.808C29.9107 33.064 30.2667 33.44 30.5227 33.936C30.7867 34.432 30.9187 35.04 30.9187 35.76ZM26.1547 35.76C26.1547 36.24 26.2147 36.656 26.3347 37.008C26.4547 37.352 26.6427 37.616 26.8987 37.8C27.1547 37.984 27.4827 38.076 27.8827 38.076C28.2827 38.076 28.6107 37.984 28.8667 37.8C29.1227 37.616 29.3107 37.352 29.4307 37.008C29.5507 36.656 29.6107 36.24 29.6107 35.76C29.6107 35.264 29.5467 34.848 29.4187 34.512C29.2987 34.176 29.1107 33.92 28.8547 33.744C28.6067 33.56 28.2787 33.468 27.8707 33.468C27.2707 33.468 26.8347 33.668 26.5627 34.068C26.2907 34.468 26.1547 35.032 26.1547 35.76Z" fill="#52CC6D"/>
</svg>
