<svg width="50" height="79" viewBox="0 0 50 79" fill="none" xmlns="http://www.w3.org/2000/svg">
<path d="M19.1684 40.9057L19.2382 31.9669C20.6902 32.1223 21.7931 31.8398 23.4824 31.0349C25.8138 29.9194 28.9271 27.2222 31.5239 23.6071L32.4453 22.3362C31.831 26.2478 28.257 30.8514 26.5817 33.3791C26.47 33.5626 26.3583 33.7603 26.3164 33.9722C26.3025 34.071 26.2885 34.2546 26.4002 34.3111C26.484 34.3393 26.5957 34.3111 26.6655 34.2546C26.7772 34.184 26.8609 34.0851 26.9586 33.9863C27.0703 33.8592 27.182 33.7321 27.2798 33.605C27.6288 33.1814 27.9638 32.786 28.2849 32.3341C30.6723 28.8461 32.3336 26.2902 33.0177 23.1976C33.0317 23.2965 33.0596 23.4094 33.0736 23.5083C33.7018 26.9821 32.7943 28.3943 31.7333 30.4277C31.5937 30.6819 31.468 30.9926 31.5239 31.275C31.6077 31.6563 31.8171 31.5857 32.1521 31.2468C32.9758 30.1735 33.5761 28.945 33.8972 27.6317L35.9914 39.7901L19.1684 40.9057ZM30.8119 37.9967L30.77 37.3754L29.6392 37.446L29.5973 36.7117L30.7281 36.6411L30.6862 36.0197L28.9271 36.1327L29.0528 38.1097L30.8119 37.9967ZM28.4664 38.731L28.2989 36.1751L27.6846 36.2174L27.894 39.3947L30.8956 39.197L30.8538 38.5757L28.4664 38.731ZM32.18 35.9209L31.5658 35.9633L31.7752 39.1405L34.7768 38.9429L34.7349 38.3215L32.3615 38.4768L32.18 35.9209ZM32.9339 37.8555L34.693 37.7425L34.6511 37.1212L33.5203 37.1918L33.4645 36.4575L34.5953 36.3869L34.5534 35.7656L32.7943 35.8785L32.9339 37.8555ZM26.9447 38.2509L26.9028 37.6296L25.772 37.7002L25.7301 36.9659L26.8609 36.8953L26.819 36.2739L25.06 36.3869L25.1856 38.3639L26.9447 38.2509ZM20.7321 39.2394L20.5645 36.6834L19.9502 36.7258L20.1597 39.9031L23.1613 39.7054L23.1194 39.0841L20.7321 39.2394ZM23.0775 38.5051L23.0356 37.8838L21.9048 37.9544L21.8629 37.2201L22.9937 37.1494L22.9519 36.5281L21.1928 36.6411L21.3184 38.6181L23.0775 38.5051ZM24.5992 38.9852L24.4317 36.4293L23.8174 36.4716L24.0268 39.6489L27.0285 39.4512L26.9866 38.8299L24.5992 38.9852ZM37.555 17.4785C37.555 17.3373 37.4992 17.1961 37.3875 17.0831C37.22 16.9137 36.9687 16.8007 36.7592 16.7866C36.4242 16.7442 35.8937 16.9137 35.8518 17.3091C35.8378 17.3797 35.8518 17.4644 35.8657 17.535C34.1346 17.535 32.1661 17.3091 31.133 16.5465C31.8869 16.4335 32.6966 16.1935 33.4924 15.9252C33.4784 16.0664 33.5063 16.2076 33.5901 16.3206C33.7995 16.6454 34.2463 16.7583 34.6093 16.7018C34.8885 16.6454 35.2235 16.4618 35.2933 16.1511C35.3352 15.9817 35.2933 15.8122 35.1817 15.671C35.0979 15.558 34.9722 15.4733 34.8466 15.4027C36.3963 14.7672 37.7226 14.0753 38.2531 13.8776C38.5183 14.5837 38.9651 16.6595 39.0768 17.182C39.0907 17.2808 39.0209 17.3232 38.979 17.3232C38.6998 17.3797 38.1972 17.4361 37.555 17.4785ZM37.7784 14.979C37.6248 14.8943 37.4433 14.852 37.2898 14.8661C37.0524 14.8802 36.8151 14.979 36.6336 15.1485C36.3544 15.4168 36.4521 15.7981 36.7453 16.0099C36.9966 16.1935 37.3316 16.137 37.5829 16.0099C37.8342 15.8828 38.1274 15.5863 38.0297 15.2756C37.9739 15.1344 37.8901 15.0497 37.7784 14.979ZM15.4269 6.30858C14.9383 6.08264 13.9331 6.54864 14.2821 7.1841C14.3659 7.35356 14.5473 7.43828 14.7288 7.46653C15.0499 7.52301 15.4688 7.39592 15.6642 7.11349C15.8038 6.9158 15.7759 6.64749 15.6363 6.46392C15.5805 6.39331 15.5107 6.33682 15.4269 6.30858ZM11.6574 7.26883C11.4201 7.42416 11.0152 7.72071 11.2665 8.03138C11.5039 8.32792 12.1181 8.14435 12.3974 7.98901C12.6347 7.87604 13.0396 7.56538 12.9139 7.25471C12.886 7.1841 12.8301 7.12762 12.7743 7.08525C12.4672 6.9158 11.8808 7.12762 11.6574 7.26883ZM13.1652 3.3996C12.872 3.3996 12.523 3.55493 12.2857 3.85148C12.174 4.00681 12.1321 4.21863 12.2159 4.31748C12.3555 4.44457 12.509 4.54342 12.7464 4.50106C13.0535 4.44457 13.4025 4.24688 13.598 3.92209C13.8493 3.54081 13.4305 3.38548 13.1652 3.3996ZM8.36264 9.16108C8.25095 9.45763 8.22303 9.85302 8.61394 9.92363C9.15841 10.0225 9.80062 9.38702 9.94023 8.89278C9.99607 8.65271 9.89834 8.39853 9.64705 8.3138C9.13049 8.14435 8.53017 8.72332 8.36264 9.16108ZM6.88278 10.0366C6.61752 9.92363 6.21265 10.2343 6.04512 10.4038C5.79382 10.6579 5.5844 10.9968 5.59837 11.3499C5.61233 11.6041 5.73797 11.8582 6.00323 11.9006C6.61752 11.9853 7.28764 10.9827 7.2318 10.4461C7.21784 10.2767 7.12011 10.1354 6.88278 10.0366ZM5.62629 8.10198C5.57045 8.07374 5.5146 8.07374 5.44479 8.08786C4.92824 8.15847 4.25811 8.99162 4.55129 9.51411C4.60714 9.61296 4.70486 9.68357 4.81655 9.69769C4.88636 9.69769 4.97012 9.68357 5.03993 9.65532C5.33311 9.52823 5.5844 9.24581 5.72401 8.94926C5.77986 8.82217 5.84967 8.61035 5.84967 8.42677C5.82174 8.28556 5.7659 8.15847 5.62629 8.10198ZM4.07662 11.0675C3.92305 11.011 3.74156 11.0533 3.60195 11.1522C3.19708 11.4205 2.6526 12.5643 3.39253 12.7761C3.58799 12.8326 3.81136 12.762 3.97889 12.6349C4.29999 12.3666 4.53733 11.7594 4.35584 11.3499C4.35584 11.3358 4.34188 11.3358 4.34188 11.3216C4.28603 11.1945 4.18831 11.1098 4.07662 11.0675ZM8.19511 6.80283C8.11134 6.70398 7.97173 6.66161 7.84608 6.67573C7.35745 6.73222 6.67336 7.29707 6.77109 7.83368C6.78505 7.93253 6.84089 8.03138 6.92466 8.08786C7.02238 8.14435 7.14803 8.13023 7.25972 8.10198C7.58082 8.01726 8.26491 7.52301 8.27887 7.07113C8.29283 6.9864 8.26491 6.88755 8.19511 6.80283ZM4.76071 13.3975C3.99285 13.3551 3.02955 15.1767 4.06266 15.4168C4.18831 15.445 4.31396 15.4309 4.42565 15.3886C4.91428 15.2332 5.47272 14.3012 5.30518 13.7646C5.24934 13.5669 5.08181 13.4116 4.76071 13.3975ZM18.9032 5.09415C17.6048 7.63598 14.7707 8.21496 12.5788 9.14696C10.7779 9.90951 9.11653 11.0957 7.8042 12.5926C6.5896 13.9906 5.77986 16.3064 3.74156 16.6312C2.06624 16.8995 1.66137 15.1485 1.8289 13.7081C2.03832 11.9288 3.26688 9.10459 5.65421 7.00052C7.10615 5.71549 8.55809 4.75524 9.9123 4.03506C9.77269 4.91058 9.64705 5.68725 9.5912 5.99791C9.35387 6.20973 9.18634 6.42155 9.10257 6.60513C9.06069 6.70398 9.06069 6.84519 9.15841 6.94404C9.2701 7.05701 9.43763 7.07113 9.53536 7.00052C9.87042 6.74634 10.3172 6.44979 10.8896 6.30858C11.3224 6.19561 11.7691 6.18149 11.9366 6.13913C12.0902 6.09676 12.2159 5.98379 12.2298 5.82846C12.2438 5.67312 12.174 5.50367 11.9925 5.43306C11.9227 5.40482 11.8389 5.3907 11.7412 5.37658L11.462 3.27251C13.9051 2.19929 15.6503 1.95923 15.6503 1.95923C15.6503 1.95923 14.2821 3.2019 13.6818 5.20712C15.4688 5.91319 17.549 5.40482 18.9032 5.09415Z" fill="#EC6608"/>
<path d="M15.8876 50.1692C15.7899 50.1692 15.7061 50.0845 15.7899 50.028C15.9434 49.915 17.4512 49.1949 17.4652 49.2231C17.8142 49.6185 17.9119 50.1127 17.9119 50.1127C17.9119 50.1127 15.9016 50.1692 15.8876 50.1692ZM32.7664 49.209C32.7804 49.1949 34.2882 49.9009 34.4417 50.0139C34.5255 50.0704 34.4557 50.1692 34.344 50.1551C34.33 50.1551 32.3197 50.0845 32.3197 50.0845C32.3197 50.0845 32.4174 49.6044 32.7664 49.209ZM20.4389 9.06219C20.1876 9.45759 19.9502 9.89535 19.7129 10.3896C19.6989 10.1495 19.671 9.95183 19.6291 9.81062C19.8804 9.55644 20.1457 9.30226 20.4389 9.06219ZM18.8613 10.6861C18.973 10.9403 19.1545 11.1663 19.322 11.3357C19.1964 11.6605 19.0847 12.0135 18.973 12.3948C18.7217 11.6605 18.5123 11.4346 18.3587 11.3922C18.5123 11.1521 18.6798 10.9121 18.8613 10.6861ZM17.9259 12.1124C17.9399 12.649 18.3587 13.0444 18.7496 13.2703C18.6379 13.7081 18.5262 14.1035 18.4285 14.4848C18.261 13.6516 18.0655 13.4257 17.9119 13.3974C17.7723 13.3692 17.6467 13.468 17.549 13.6657C17.186 14.4 17.7025 15.0355 18.1493 15.3744C17.9957 15.798 17.8561 16.1793 17.7025 16.5041C17.5769 15.5862 17.3814 15.3179 17.2139 15.2897C17.0882 15.2614 16.9766 15.332 16.8649 15.4874C16.9766 14.4142 17.3116 13.2562 17.9259 12.1124ZM16.8649 17.7609C16.823 17.3796 16.809 16.9842 16.809 16.5888C16.9347 16.843 17.1301 17.069 17.3256 17.2384C17.172 17.5208 17.0324 17.7468 16.8928 17.9304C16.8788 17.8739 16.8649 17.8174 16.8649 17.7609ZM10.0519 20.331C9.95419 20.3169 9.60516 20.2745 9.43763 20.1474C9.36783 20.0909 9.38179 19.9356 9.43763 19.865C9.64705 19.5825 10.3311 19.4131 10.7081 19.3707C10.5405 19.5543 10.1636 20.0768 10.0519 20.331ZM9.80062 20.9241C9.70289 20.9382 9.61913 20.9664 9.5214 20.9947C9.35387 21.0512 9.21426 21.1218 9.14445 21.2065C9.11653 21.2489 9.08861 21.2771 9.08861 21.3336C9.07465 21.3759 9.07465 21.4324 9.07465 21.503C9.07465 21.5736 9.08861 21.6301 9.11653 21.6725C9.13049 21.7149 9.15842 21.7431 9.2003 21.7713C9.2701 21.8278 9.42367 21.8702 9.5912 21.8843C9.66101 21.8984 9.74478 21.8984 9.82854 21.8984C9.61913 21.6301 9.70289 21.2347 9.80062 20.9241ZM9.99607 24.5674C9.99607 24.5674 9.60516 24.6097 9.5214 24.5674C9.47952 24.5532 9.31198 24.525 9.31198 24.299C9.31198 24.0731 9.49348 24.0307 9.53536 24.0166C9.61913 23.9743 10.01 24.0025 10.01 24.0025C10.01 24.0025 10.7918 23.9743 10.7918 24.2567C10.7918 24.5391 9.99607 24.5674 9.99607 24.5674ZM11.0152 22.9999C11.0152 22.9434 11.0013 22.9152 10.9454 22.8587C10.8896 22.8022 10.7918 22.7598 10.6941 22.7175C10.5964 22.6751 10.4707 22.6469 10.3591 22.6327C10.3032 22.6186 10.2334 22.6186 10.1776 22.6045L9.98211 22.5763C9.85646 22.5621 9.73081 22.548 9.61913 22.5339C9.43763 22.5339 9.2701 22.5339 9.18634 22.7175C9.08861 22.9152 9.08861 23.2258 9.32595 23.3106C9.39575 23.3388 9.50744 23.3529 9.63308 23.3529C9.74477 23.3529 9.87042 23.3529 10.01 23.3388L10.2194 23.3247C10.2893 23.3247 10.3451 23.3247 10.4149 23.3106C10.5405 23.2964 10.6522 23.2823 10.75 23.2541C10.8477 23.2258 10.9315 23.1835 10.9873 23.1411C11.0013 23.0987 11.0152 23.0705 11.0152 22.9999ZM19.0707 50.028C19.0149 49.7315 18.8752 49.096 18.5821 48.7853C18.5821 48.7853 19.1545 48.5029 19.4197 48.4182C19.8665 48.7995 20.1597 49.6609 20.1876 49.9715L19.0707 50.028ZM21.2765 49.9009C21.2626 49.4208 20.9973 48.5735 20.4808 47.9663L21.4161 47.5992C22.2817 48.4606 22.3655 49.8727 22.3655 49.8727C22.3655 49.8727 21.5697 49.9151 21.2765 49.9009ZM24.669 49.8586C24.4038 49.8868 23.7337 49.8868 23.5382 49.8868C23.2311 48.1075 22.4772 47.232 22.4772 47.232C22.4632 47.1755 23.5382 46.9919 23.5382 46.9919C23.5382 46.9919 24.4177 47.2038 24.6551 47.2038V49.8586H24.669ZM24.669 46.2576C24.5853 46.4836 23.4963 46.1164 23.4963 45.8199C23.4963 45.6363 23.1054 41.9506 23.0775 41.7388L24.6551 41.64C24.683 42.9674 24.697 44.9302 24.669 46.2576ZM30.8119 48.4041C31.0771 48.4888 31.6495 48.7712 31.6495 48.7712C31.3563 49.0819 31.2167 49.7174 31.1609 50.0139L30.044 49.9433C30.0719 49.6467 30.3651 48.7995 30.8119 48.4041ZM28.8155 47.5992L29.7508 47.9663C29.2343 48.5735 28.969 49.4208 28.9551 49.9009C28.6619 49.9151 27.8521 49.8727 27.8521 49.8727C27.8521 49.8727 27.9359 48.4606 28.8155 47.5992ZM27.7405 47.2179C27.7405 47.2179 26.9866 48.0934 26.6794 49.8727C26.484 49.8727 25.7999 49.8727 25.5207 49.8444L25.5486 47.1896C25.7999 47.1896 26.6655 46.9778 26.6655 46.9778C26.6655 46.9778 27.7544 47.1755 27.7405 47.2179ZM25.5905 41.5835C25.9535 41.5411 26.7772 41.4988 27.1681 41.4846C27.1681 41.4846 26.7492 45.6222 26.7492 45.8199C26.7492 46.1023 25.6603 46.4836 25.5765 46.2576C25.5346 44.9161 25.5486 42.925 25.5905 41.5835ZM42.916 15.4309C42.8183 15.6003 42.7206 15.798 42.6787 15.9957C42.581 16.4335 41.1849 24.4826 41.1849 24.4826C41.1849 24.4826 39.8865 24.8639 34.6791 26.2195L34.1765 24.2849C35.9774 23.946 39.6352 23.24 39.705 23.1693C39.7748 23.0987 40.3612 20.3169 40.5985 18.9753C40.6404 18.7353 40.7521 18.241 40.5147 18.4387C40.1657 18.7353 39.4537 19.173 39.0768 18.7494C38.9232 18.5799 38.9372 18.3822 39.0209 18.1987C39.2024 18.1704 39.3699 18.1422 39.5235 18.1139C39.8865 18.0433 40.1099 17.7044 40.0401 17.3373C40.5706 16.7724 42.0225 15.0073 41.6177 13.5104C41.1988 12.0135 39.1745 12.2818 38.0297 13.1432C37.6388 13.4398 37.5829 13.3409 37.5411 13.2986C37.5131 13.2562 37.5131 13.1856 37.5131 13.1432C37.5411 12.6208 38.7696 10.8415 40.4589 11.7311C40.5706 11.7876 40.7521 11.8723 40.8777 11.8723C41.478 11.8723 40.0121 8.92098 40.4449 8.7374C40.766 8.59619 41.1709 9.3305 41.506 10.1637C41.7991 10.8838 41.9108 11.7029 42.0923 11.6888C42.3716 11.6746 42.6647 8.24316 43.2092 8.37025C43.7258 8.48322 43.1953 11.3075 43.1534 11.6181C43.1115 11.9288 43.0836 12.0418 43.1953 12.0841C43.4047 12.1548 43.6839 11.6887 44.005 11.1663C44.4657 10.4178 44.8566 9.88123 45.0241 10.0224C45.5547 10.4461 43.8793 13.7081 42.916 15.4309ZM23.608 9.74002C23.7197 10.1072 23.985 10.4461 24.334 10.672C24.5155 10.785 24.7109 10.8697 24.9343 10.9121C25.1577 10.9544 25.395 10.9403 25.6184 10.8838C25.8418 10.8132 26.0651 10.6861 26.2466 10.5167C26.4142 10.3472 26.5398 10.1354 26.6096 9.93771C26.7492 9.51407 26.7213 9.10456 26.5957 8.75153L26.5817 8.69504C26.5398 8.58207 26.4421 8.51146 26.3304 8.51146C26.1908 8.51146 26.0651 8.63856 26.0791 8.77977C26.0791 9.07631 26.0512 9.38698 25.9395 9.62704C25.8278 9.86711 25.6463 10.0507 25.409 10.1072C25.1716 10.1778 24.8924 10.1495 24.6551 10.0224C24.5294 9.96596 24.4177 9.88123 24.3061 9.78238C24.1944 9.68353 24.1106 9.58468 24.0268 9.45759C23.971 9.37286 23.8593 9.3305 23.7476 9.35874C23.622 9.40111 23.5382 9.54232 23.5801 9.66941L23.608 9.74002ZM15.4269 31.3597C14.2402 29.538 12.509 26.8691 11.5318 24.8921V24.8074V24.1014C11.5457 24.1155 11.5597 24.1155 11.5737 24.1155C11.7272 24.2002 11.9227 24.1437 12.0064 23.9884C12.1461 23.7483 11.6853 23.3953 11.8668 22.082C11.9506 21.4324 12.3694 20.7405 12.3694 20.6981C12.3834 20.6558 12.3694 20.6134 12.3555 20.571C12.3415 20.5145 12.3136 20.4581 12.2717 20.4016C12.2438 20.3733 12.2159 20.3451 12.174 20.3169C12.0483 20.218 11.8668 20.1898 11.5039 20.8958C11.2107 21.4466 11.1129 21.9408 10.6104 21.7855C9.73081 21.5172 10.9175 20.0203 11.2107 19.7238C11.5318 19.3848 12.0763 19.1448 12.5649 19.1448C13.3886 19.1448 13.2629 21.2771 13.1373 22.5056C13.1094 22.7175 12.9698 23.7907 12.9698 23.7907C12.9698 23.7907 13.6538 25.3158 14.2821 26.3608C14.4775 26.6855 14.9662 27.4199 15.3292 27.9282C15.5525 28.253 15.734 28.4789 15.7759 28.4789C15.8876 28.4507 16.3902 27.9565 16.5996 27.787C16.8509 27.5752 19.1126 25.344 19.6012 24.9063C19.6291 24.8921 19.671 24.8921 19.7129 24.878C19.7548 24.8639 19.8106 24.8639 19.8525 24.8498C19.9502 24.8357 20.0619 24.8357 20.1736 24.8357C20.397 24.8357 20.5924 24.8639 20.7879 24.878H20.8437C21.0252 24.8921 21.1928 24.7933 21.2765 24.6238C21.3882 24.3979 21.2905 24.1296 21.0811 24.0307C20.7879 23.8895 20.5226 23.833 20.2155 23.8189C20.0619 23.8189 19.9223 23.8048 19.7548 23.8189C19.671 23.833 19.5873 23.833 19.5035 23.8472C19.4058 23.8754 19.322 23.8754 19.2382 23.9178C19.1963 23.9319 19.1684 23.946 19.1405 23.9743C18.0097 22.5339 17.3675 20.4016 17.2697 20.0768C17.1999 19.7944 17.1301 19.5119 17.0743 19.2295C17.1022 19.2295 17.1301 19.2295 17.158 19.2295C17.2558 19.2295 17.3535 19.2295 17.4652 19.2154C18.0655 19.1448 18.4843 18.8765 18.6798 18.4105C18.7636 18.1987 18.7636 18.0574 18.6519 17.9727C18.5821 17.9162 18.4145 17.775 17.549 18.2834C17.7165 18.0574 17.884 17.7891 18.0515 17.4644C18.1493 17.4502 18.4704 17.3937 18.8054 17.2384C19.3499 16.9842 19.671 16.603 19.7269 16.1087C19.7548 15.8828 19.6989 15.7416 19.5593 15.6992C19.4756 15.671 19.2662 15.5862 18.5402 16.3911C18.6519 16.1228 18.7636 15.8263 18.8752 15.5156C19.0149 15.4733 19.2801 15.4026 19.5314 15.2614C20.0619 14.979 20.3551 14.5695 20.3691 14.0752C20.383 13.8493 20.3132 13.7222 20.1876 13.6799C20.1038 13.6516 19.8804 13.581 19.2103 14.4565C19.322 14.0894 19.4197 13.694 19.5175 13.2703C19.5314 13.228 19.5454 13.1715 19.5593 13.1291C19.7129 13.1009 19.9502 13.0444 20.1876 12.9455C20.746 12.7055 21.0671 12.3101 21.123 11.83C21.1509 11.604 21.095 11.4628 20.9694 11.4204C20.8856 11.3922 20.6483 11.2934 19.8246 12.2395C19.9502 11.83 20.1038 11.4487 20.2434 11.0957C20.3551 11.0957 20.6762 11.0815 21.0252 10.9686C21.5976 10.785 21.9606 10.4461 22.0723 9.96595C22.1282 9.75414 22.0863 9.5988 21.9606 9.54232C21.8769 9.49995 21.6395 9.35874 20.5924 10.3614C20.8717 9.81062 21.1648 9.35874 21.4441 8.97747C21.5139 8.97747 21.6116 8.99159 21.7372 8.99159C21.8629 8.99159 22.0304 8.97747 22.198 8.94922C22.7983 8.85037 23.2031 8.55383 23.3707 8.08783C23.4544 7.87601 23.4265 7.73479 23.3148 7.65007C23.245 7.6077 23.0775 7.48061 22.3236 7.96073C22.6028 7.69243 22.8262 7.50885 22.9798 7.39588C25.4509 6.15321 28.8155 5.33418 33.283 5.32006C36.7872 5.30593 37.8901 5.94139 37.8901 6.43564C37.8901 8.03134 33.3248 10.9544 30.3372 11.7876C29.709 11.9853 29.2064 12.0983 29.5275 12.7902L30.0999 14.1176C28.7736 14.2729 26.1629 13.8775 24.8645 13.5951C25.0739 13.3127 25.3252 13.0585 25.6044 12.8043L25.6184 12.7902C25.6882 12.7196 25.7301 12.6066 25.7022 12.4937C25.6603 12.3383 25.4927 12.2536 25.3531 12.296C25.1437 12.3666 24.9343 12.4513 24.7389 12.5784C24.6411 12.6349 24.5434 12.7055 24.4596 12.7761C24.3759 12.8467 24.2781 12.9173 24.1944 13.002C23.8593 13.3268 23.608 13.7222 23.4265 14.1317C23.245 14.5554 23.1333 14.9931 23.0915 15.4309C23.0635 15.6568 23.0635 15.8686 23.0635 16.0946C23.0775 16.3205 23.0915 16.5323 23.1473 16.7583C23.1752 16.8571 23.259 16.9419 23.3707 16.9701C23.5243 16.9984 23.6639 16.8995 23.6918 16.7442V16.7159C23.7197 16.5323 23.7616 16.3347 23.8035 16.1511C23.8453 15.9675 23.8872 15.7698 23.9431 15.5862C23.9989 15.3885 24.0548 15.1767 24.1246 14.9931C27.0983 19.8508 30.9654 19.7096 31.845 19.8226C31.8589 19.8226 31.9706 19.8367 32.0823 19.8367L32.4034 20.9805C24.1944 32.5176 19.2941 30.9784 19.2941 30.9784V29.3545C19.4895 29.1003 20.6064 27.7305 20.383 27.3492C20.3132 27.2222 19.9782 27.0245 19.7269 27.321C18.6519 28.6202 16.823 30.6536 15.4269 31.3597ZM27.182 8.70916C27.2937 9.09044 27.545 9.42935 27.894 9.66941C28.2431 9.90947 28.7038 10.0366 29.1784 9.95183C29.4158 9.90947 29.6531 9.7965 29.8486 9.64117C30.044 9.47171 30.1836 9.27401 30.2674 9.04807C30.2814 8.99159 30.3093 8.9351 30.3232 8.89274C30.3372 8.83625 30.3512 8.77977 30.3651 8.7374C30.3791 8.62443 30.3791 8.52559 30.393 8.42674C30.3791 8.21492 30.3512 8.03134 30.2814 7.84776L30.2534 7.79128C30.2116 7.69243 30.1138 7.62182 30.0161 7.62182C29.8765 7.62182 29.7508 7.73479 29.7508 7.89013C29.7508 8.2008 29.709 8.49734 29.5833 8.72328C29.5275 8.83625 29.4437 8.9351 29.3599 9.00571C29.2622 9.07632 29.1505 9.11868 29.0388 9.14692C28.8015 9.20341 28.5223 9.14692 28.271 9.01983C28.1453 8.96334 28.0336 8.87862 27.922 8.77977C27.8103 8.68092 27.7125 8.58207 27.6288 8.45498C27.5729 8.37025 27.4612 8.32789 27.3635 8.35613C27.2379 8.39849 27.1541 8.52558 27.196 8.6668L27.182 8.70916Z" fill="white"/>
<path d="M14.7288 7.46667C15.0499 7.52316 15.4687 7.39607 15.6642 7.11364C15.8038 6.91594 15.7759 6.64764 15.6363 6.46406C15.5804 6.39346 15.5246 6.33697 15.4408 6.30873C14.9522 6.08279 13.947 6.54879 14.296 7.18425C14.3658 7.33958 14.5473 7.43843 14.7288 7.46667ZM30.8118 37.9969L30.77 37.3755L29.6391 37.4461L29.5972 36.7118L30.7281 36.6412L30.6862 36.0199L28.9271 36.1329L29.0528 38.1098L30.8118 37.9969ZM4.35581 11.3359C4.35581 11.3218 4.34185 11.3218 4.34185 11.3077C4.28601 11.1947 4.18828 11.11 4.0766 11.0676C3.92302 11.0111 3.74153 11.0535 3.60192 11.1523C3.19706 11.4206 2.65258 12.5645 3.39251 12.7763C3.58796 12.8328 3.81134 12.7622 3.97887 12.6351C4.29997 12.3526 4.53731 11.7454 4.35581 11.3359ZM28.4664 38.7312L28.2989 36.1752L27.6846 36.2176L27.894 39.3949L30.8956 39.1972L30.8537 38.5758L28.4664 38.7312ZM32.18 35.921L31.5657 35.9634L31.7752 39.1407L34.7768 38.943L34.7349 38.3217L32.3615 38.477L32.18 35.921ZM45.4988 9.2742C44.9822 8.96353 44.2702 9.57074 43.9352 10.2062C44.1166 9.0765 44.2144 7.49492 43.4605 7.3537C42.6507 7.19837 42.0504 9.11886 41.9946 9.8108C41.9946 9.8108 41.1848 7.41019 40.3193 7.69261C39.4676 7.97504 39.6771 9.28832 40.2495 10.997C38.1972 9.92377 36.6894 12.4374 36.8569 13.6377C36.117 14.0896 34.2044 15.0639 29.8625 16.2784C29.8346 16.2925 29.7648 16.3066 29.7648 16.3066C29.7648 16.3066 29.7927 16.3772 29.8067 16.4054C29.9183 16.6173 30.393 17.8599 35.2235 18.2977C36.2287 18.3824 37.2618 18.3683 38.2391 18.2836C38.1972 18.4248 38.1693 18.5801 38.1972 18.7355C38.2391 19.0602 38.3787 19.3285 38.616 19.5262C38.8115 19.6816 39.1465 19.7663 39.3978 19.7381C39.4676 19.7239 39.5374 19.7098 39.6073 19.6816C39.6212 19.6816 39.6771 19.6533 39.6771 19.6392C39.6771 19.6392 39.342 21.3903 38.9511 22.4776C38.7277 22.5341 38.5602 22.647 33.8972 23.2119L33.6599 22.2658C33.3527 21.3055 32.7943 18.9049 32.7943 18.9049C27.196 19.1308 24.9482 14.5273 24.9343 14.5132C24.9901 14.5273 26.0232 14.7956 28.0895 15.0074C28.9132 15.0922 29.7787 15.1769 30.6024 15.1345C30.9375 15.1204 31.4401 15.0074 31.3842 14.5556C31.3424 14.2731 30.8118 13.0446 30.6443 12.7339C31.4959 12.4232 32.3755 12.1691 33.1852 11.7737C34.6232 11.0535 38.7556 8.6105 38.7556 6.43582C38.7556 5.46145 37.8621 5.08018 37.1641 4.88248C34.7488 4.19054 29.0528 4.11993 24.6551 5.65915C24.5713 5.68739 24.4875 5.71563 24.3898 5.758C24.4038 5.65915 24.4177 5.54618 24.4177 5.43321C24.4038 5.20727 24.334 5.08018 24.1943 5.05193C24.0966 5.03781 23.8314 4.98133 23.0775 6.29461C22.9797 6.33697 22.882 6.37933 22.7843 6.43582C22.9239 5.99806 22.882 5.80036 22.7983 5.71563C22.7005 5.61679 22.547 5.61679 22.3515 5.71563C21.8349 5.98394 21.7233 6.4923 21.7651 6.95831C21.6814 7.01479 21.5836 7.05715 21.4999 7.11364C21.458 6.91594 21.3882 6.83121 21.3184 6.78885C21.1927 6.71825 21.0531 6.77473 20.8856 6.94419C20.6622 7.18425 20.5785 7.43843 20.5785 7.69261C16.8928 10.2486 15.7619 13.68 15.7619 16.4054C15.7619 16.6737 15.7759 16.9279 15.7759 17.1821C15.6782 17.0974 15.6084 17.1115 15.5804 17.1115C15.4408 17.1256 15.3431 17.2386 15.3012 17.4504C15.1895 17.9305 15.371 18.3965 15.8178 18.8202C15.7898 18.8343 15.7759 18.8343 15.7759 18.8343C15.5804 18.8343 15.3989 18.9896 15.385 19.2015C15.371 19.4133 15.5385 19.611 15.748 19.611C15.7619 19.611 15.7619 19.611 15.7759 19.611C15.8317 19.611 15.9295 19.5968 16.0691 19.5686C16.5996 22.2093 17.6885 23.918 18.2889 24.737C18.233 24.7935 16.809 26.3609 15.8038 27.1376C15.4269 26.6151 15.1197 26.2056 14.8684 25.8243C14.4077 25.0759 14.0587 24.3416 13.7655 23.6355C13.7795 23.579 13.8353 23.0707 13.8912 22.6753C13.9749 22.0963 14.0726 21.3338 14.0587 20.7407C14.0587 20.5995 14.1425 18.3683 12.5369 18.3824C12.2019 18.3824 11.8529 18.5095 11.5178 18.7072C11.5178 18.5942 11.5178 18.4813 11.5178 18.3683C11.5457 16.942 11.5178 13.9483 11.5178 13.9483C11.9506 13.68 12.2438 13.1999 12.2438 12.6492C12.2438 12.4091 12.1879 12.1832 12.0902 11.9855C12.2298 11.9714 12.4532 11.9431 12.6207 11.9149C12.7603 11.8866 12.886 11.7878 12.9139 11.6466L13.0395 11.11C13.0675 10.9829 13.0116 10.8417 12.886 10.7711L12.2717 10.4321V10.4039C12.4253 10.3474 12.6067 10.3192 12.7603 10.2627C13.2769 10.0932 13.7934 9.89553 14.31 9.69783C14.9941 9.41541 15.6502 9.10474 16.2924 8.73759C16.9765 8.35631 17.6467 7.91855 18.233 7.39607C18.7915 6.90182 19.308 6.33697 19.657 5.67327C19.7548 5.47557 19.8385 5.27787 19.9083 5.08018C19.9781 4.85424 20.1457 4.06344 20.0898 4.00696C20.02 3.95047 17.7165 4.76951 16.1947 4.76951C15.4408 4.76951 14.8824 4.65654 14.8824 4.65654C15.4827 3.07496 17.7025 0.970885 17.6606 0.857915C17.6048 0.716702 14.9243 0.829672 11.2944 2.27004L11.071 0.603731C10.9175 -0.215303 10.6243 -0.18706 10.4568 0.603731C10.4009 0.886157 10.2473 1.78992 10.0798 2.79253C10.0379 2.80665 10.01 2.82077 9.96812 2.84901C9.71683 2.99023 6.67334 4.78363 5.20743 6.09691C3.69965 7.43843 3.08537 8.2151 2.05226 9.96614C1.17271 11.463 0.390901 13.8354 0.879535 15.5723C1.50778 17.8176 3.01556 18.4248 4.80257 17.4222C5.52854 17.0127 6.19866 16.4619 6.72918 15.8123C7.59476 14.7391 8.34865 13.68 9.20027 12.7198C9.21423 13.214 9.46553 13.6659 9.84247 13.9201C9.85643 13.9625 9.8704 14.0048 9.8704 14.0472L9.89832 18.8343V19.0038C9.8704 19.0038 9.84247 19.0179 9.80059 19.0179C9.59118 19.0461 9.3678 19.1026 9.14442 19.2297C9.03274 19.3003 8.92105 19.3709 8.82332 19.498C8.7256 19.611 8.65579 19.7804 8.64183 19.9358C8.62787 20.0205 8.62787 20.0911 8.64183 20.1758C8.65579 20.2605 8.66975 20.3453 8.71164 20.4159C8.73956 20.5006 8.7954 20.5712 8.85125 20.6418C8.7954 20.6701 8.73956 20.7124 8.68371 20.7689C8.57203 20.8678 8.48826 21.009 8.44638 21.1502C8.40449 21.2914 8.39053 21.4326 8.39053 21.5597C8.39053 21.6868 8.41846 21.828 8.48826 21.9692C8.54411 22.0963 8.62787 22.2093 8.73956 22.294C8.7256 22.3081 8.7256 22.3081 8.71164 22.3223C8.54411 22.4917 8.51618 22.7318 8.50222 22.9577C8.50222 23.2966 8.58599 23.5226 8.83729 23.7203C8.86521 23.7344 8.87917 23.7626 8.90709 23.7767C8.87917 23.8191 8.85125 23.8615 8.83729 23.9038C8.76748 24.0592 8.75352 24.2004 8.75352 24.3275C8.75352 24.4546 8.76748 24.6099 8.82332 24.7652C8.87917 24.9206 9.08858 25.09 9.25611 25.1465C9.40969 25.2171 9.56326 25.2171 9.68891 25.2171C9.75871 25.2171 9.84248 25.203 9.89832 25.203V25.3442L9.88436 50.8331H11.5457V26.7281C12.5509 28.4509 14.1425 31.1904 14.673 31.9671C14.8126 32.1648 14.9941 32.4331 15.2454 32.4755C15.4967 32.5178 15.7619 32.3484 15.9713 32.2354C16.1528 32.1365 16.3204 32.0095 16.4739 31.8824C16.8369 31.5999 17.1999 31.3034 17.5489 31.0068C17.6606 30.908 17.7863 30.8091 17.898 30.7103C17.9259 30.6962 18.1213 30.5126 18.1213 30.5126L18.0096 42.0497L22.0164 41.8237L22.7424 46.3143L22.1421 46.512C22.1421 46.512 21.7651 46.159 21.4859 46.2296H21.472C21.1927 46.3143 21.095 46.8509 21.095 46.8509L20.1038 47.2181C20.1038 47.2181 19.671 46.9215 19.3639 47.0627C19.0567 47.1898 19.0288 47.6982 19.0288 47.6982L18.1632 48.136C18.1632 48.136 17.7304 47.8394 17.4931 47.9665C17.2557 48.0936 17.2139 48.6726 17.2139 48.6726C14.7288 49.7317 13.5421 50.819 14.9661 50.819C15.8597 50.819 34.3579 50.819 35.2514 50.819C36.6754 50.819 35.4888 49.7175 33.0037 48.6726C33.0037 48.6726 32.9618 48.0936 32.7245 47.9665C32.4872 47.8394 32.0544 48.136 32.0544 48.136L31.1888 47.6982C31.1888 47.6982 31.1609 47.2039 30.8537 47.0627C30.5466 46.9356 30.1138 47.2181 30.1138 47.2181L29.1226 46.8509C29.1226 46.8509 29.0388 46.3143 28.7456 46.2296C28.4664 46.1449 28.0755 46.512 28.0755 46.512L27.4752 46.3143L28.2709 41.4001L37.2897 40.8211L34.8605 27.2082L41.6595 25.2877C41.841 25.2312 41.9806 25.09 42.0085 24.8923C42.3157 23.2684 43.3907 16.123 43.3907 16.123C46.0433 11.35 46.2248 9.71196 45.4988 9.2742ZM15.8876 50.1694C15.7898 50.1694 15.7061 50.0847 15.7898 50.0282C15.9434 49.9152 17.4512 49.195 17.4652 49.2233C17.8142 49.6187 17.9119 50.1129 17.9119 50.1129C17.9119 50.1129 15.9015 50.1694 15.8876 50.1694ZM32.7664 49.2092C32.7803 49.195 34.2881 49.9011 34.4417 50.0141C34.5255 50.0706 34.4557 50.1694 34.344 50.1553C34.33 50.1553 32.3196 50.0847 32.3196 50.0847C32.3196 50.0847 32.4174 49.6046 32.7664 49.2092ZM37.555 17.4787C37.555 17.3374 37.4991 17.1962 37.3875 17.0833C37.2199 16.9138 36.9686 16.8008 36.7592 16.7867C36.4242 16.7444 35.8936 16.9138 35.8518 17.3092C35.8378 17.3798 35.8518 17.4645 35.8657 17.5351C34.1346 17.5351 32.1661 17.3092 31.1329 16.5467C31.8868 16.4337 32.6966 16.1936 33.4924 15.9253C33.4784 16.0665 33.5063 16.2077 33.5901 16.3207C33.7995 16.6455 34.2462 16.7585 34.6092 16.702C34.8885 16.6455 35.2235 16.4619 35.2933 16.1513C35.3352 15.9818 35.2933 15.8123 35.1816 15.6711C35.0979 15.5582 34.9722 15.4734 34.8466 15.4028C36.3962 14.7674 37.7225 14.0754 38.253 13.8777C38.5183 14.5838 38.9651 16.6596 39.0767 17.1821C39.0907 17.281 39.0209 17.3233 38.979 17.3233C38.6998 17.3798 38.1972 17.4363 37.555 17.4787ZM38.993 13.2705C39.6771 13.0728 40.431 13.0305 40.7381 13.7789C41.1848 14.8662 40.2774 15.9536 39.8446 16.4619C39.5654 15.3181 39.1884 13.8919 38.993 13.2705ZM20.4389 9.06238C20.1876 9.45777 19.9502 9.89553 19.7129 10.3898C19.6989 10.1497 19.671 9.95202 19.6291 9.8108C19.8804 9.55662 20.1457 9.30244 20.4389 9.06238ZM18.8613 10.6863C18.9729 10.9405 19.1544 11.1664 19.322 11.3359C19.1963 11.6607 19.0846 12.0137 18.9729 12.395C18.7217 11.6607 18.5122 11.4348 18.3587 11.3924C18.5122 11.1523 18.6798 10.9123 18.8613 10.6863ZM17.9259 12.1126C17.9398 12.6492 18.3587 13.0446 18.7496 13.2705C18.6379 13.7083 18.5262 14.1037 18.4285 14.4849C18.2609 13.6518 18.0655 13.4259 17.9119 13.3976C17.7723 13.3694 17.6467 13.4682 17.5489 13.6659C17.1859 14.4002 17.7025 15.0357 18.1492 15.3746C17.9957 15.7982 17.8561 16.1795 17.7025 16.5043C17.5769 15.5864 17.3814 15.3181 17.2139 15.2899C17.0882 15.2616 16.9765 15.3322 16.8648 15.4876C16.9765 14.4143 17.3116 13.2564 17.9259 12.1126ZM16.8648 17.7611C16.823 17.3798 16.809 16.9844 16.809 16.589C16.9346 16.8432 17.1301 17.0691 17.3256 17.2386C17.172 17.521 17.0324 17.747 16.8928 17.9305C16.8788 17.8741 16.8648 17.8176 16.8648 17.7611ZM7.80417 12.5786C6.58957 13.9766 5.77983 16.2925 3.74153 16.6173C2.06622 16.8856 1.66135 15.1345 1.82888 13.6942C2.03829 11.9149 3.26686 9.09062 5.65418 6.98655C7.10612 5.70151 8.55806 4.74127 9.91228 4.02108C9.77267 4.8966 9.64702 5.67327 9.59118 5.98394C9.35384 6.19576 9.18631 6.40758 9.10254 6.59115C9.06066 6.69 9.06066 6.83121 9.15839 6.93006C9.27007 7.04303 9.43761 7.05716 9.53533 6.98655C9.8704 6.73237 10.3171 6.43582 10.8895 6.29461C11.3223 6.18164 11.7691 6.16751 11.9366 6.12515C12.0902 6.08279 12.2158 5.96982 12.2298 5.81448C12.2438 5.65915 12.174 5.48969 11.9925 5.41909C11.9227 5.39084 11.8389 5.37672 11.7412 5.3626L11.4619 3.25853C13.9051 2.18531 15.6502 1.94525 15.6502 1.94525C15.6502 1.94525 14.2821 3.18793 13.6817 5.19315C15.4687 5.89921 17.5489 5.39084 18.9171 5.08018C17.6187 7.62201 14.7847 8.20098 12.5928 9.13298C10.7779 9.90965 9.11651 11.0817 7.80417 12.5786ZM9.43761 19.8793C9.64702 19.5968 10.3311 19.4274 10.7081 19.385C10.5266 19.5545 10.1636 20.0911 10.0519 20.3312C9.95416 20.317 9.60514 20.2747 9.43761 20.1476C9.38176 20.0911 9.39572 19.9499 9.43761 19.8793ZM9.10254 21.3196C9.1165 21.2773 9.13046 21.2349 9.15839 21.1926C9.22819 21.1078 9.3678 21.0372 9.53533 20.9807C9.6191 20.9525 9.71683 20.9242 9.81455 20.9101C9.70287 21.2208 9.63306 21.6162 9.84247 21.8704C9.75871 21.8704 9.67494 21.8704 9.60514 21.8563C9.43761 21.8421 9.29799 21.7998 9.21423 21.7433C9.17235 21.715 9.15839 21.6868 9.13047 21.6444C9.11651 21.6021 9.08858 21.5456 9.08858 21.475C9.08858 21.4185 9.08858 21.362 9.10254 21.3196ZM9.99604 24.5675C9.99604 24.5675 9.60514 24.6099 9.52137 24.5675C9.47949 24.5534 9.31196 24.5252 9.31196 24.2992C9.31196 24.0733 9.49345 24.0309 9.53533 24.0168C9.6191 23.9744 10.01 24.0027 10.01 24.0027C10.01 24.0027 10.7918 23.9744 10.7918 24.2569C10.7918 24.5393 9.99604 24.5675 9.99604 24.5675ZM10.9593 23.1554C10.9175 23.1978 10.8337 23.2401 10.722 23.2684C10.6243 23.2966 10.4986 23.3107 10.387 23.3249C10.3311 23.3249 10.2613 23.3249 10.1915 23.339L9.98208 23.3531C9.85643 23.3672 9.73079 23.3672 9.60514 23.3672C9.49345 23.3672 9.38176 23.3531 9.298 23.3249C9.06066 23.226 9.0467 22.9153 9.15839 22.7318C9.25611 22.5623 9.40968 22.5482 9.59118 22.5482C9.70286 22.5482 9.82851 22.5623 9.95416 22.5906L10.1496 22.6188C10.2194 22.6329 10.2753 22.6329 10.3311 22.647C10.4568 22.6753 10.5684 22.7035 10.6662 22.7318C10.7639 22.7741 10.8616 22.8165 10.9175 22.873C10.9733 22.9295 10.9873 22.9577 10.9873 23.0142C11.0152 23.0707 11.0012 23.0989 10.9593 23.1554ZM15.4269 31.3599C14.2402 29.5382 12.509 26.8693 11.5318 24.8923V24.8076V24.1015C11.5457 24.1157 11.5597 24.1157 11.5736 24.1157C11.7272 24.2004 11.9227 24.1439 12.0064 23.9886C12.146 23.7485 11.6853 23.3955 11.8668 22.0822C11.9506 21.4326 12.3694 20.7407 12.3694 20.6983C12.3834 20.6559 12.3694 20.6136 12.3554 20.5712C12.3415 20.5147 12.3136 20.4582 12.2717 20.4018C12.2438 20.3735 12.2158 20.3453 12.174 20.317C12.0483 20.2182 11.8668 20.1899 11.5038 20.896C11.2107 21.4467 11.1129 21.941 10.6103 21.7856C9.73079 21.5173 10.9175 20.0205 11.2107 19.7239C11.5318 19.385 12.0762 19.145 12.5649 19.145C13.3886 19.145 13.2629 21.2773 13.1373 22.5058C13.1093 22.7177 12.9697 23.7909 12.9697 23.7909C12.9697 23.7909 13.6538 25.316 14.2821 26.3609C14.4775 26.6857 14.9662 27.42 15.3291 27.9284C15.5525 28.2532 15.734 28.4791 15.7759 28.4791C15.8876 28.4509 16.3902 27.9566 16.5996 27.7872C16.8509 27.5754 19.1126 25.3442 19.6012 24.9064C19.6291 24.8923 19.671 24.8923 19.7129 24.8782C19.7548 24.8641 19.8106 24.8641 19.8525 24.85C19.9502 24.8358 20.0619 24.8358 20.1736 24.8358C20.397 24.8358 20.5924 24.8641 20.7879 24.8782H20.8437C21.0252 24.8923 21.1927 24.7935 21.2765 24.624C21.3882 24.3981 21.2905 24.1298 21.0811 24.0309C20.7879 23.8897 20.5226 23.8332 20.2155 23.8191C20.0619 23.8191 19.9223 23.805 19.7548 23.8191C19.671 23.8332 19.5872 23.8332 19.5035 23.8474C19.4057 23.8756 19.322 23.8756 19.2382 23.918C19.1963 23.9321 19.1684 23.9462 19.1405 23.9744C18.0096 22.5341 17.3674 20.4018 17.2697 20.077C17.1999 19.7945 17.1301 19.5121 17.0743 19.2297C17.1022 19.2297 17.1301 19.2297 17.158 19.2297C17.2557 19.2297 17.3535 19.2297 17.4652 19.2156C18.0655 19.145 18.4843 18.8767 18.6798 18.4107C18.7635 18.1988 18.7635 18.0576 18.6518 17.9729C18.582 17.9164 18.4145 17.7752 17.5489 18.2836C17.7165 18.0576 17.884 17.7893 18.0515 17.4645C18.1493 17.4504 18.4704 17.3939 18.8054 17.2386C19.3499 16.9844 19.671 16.6031 19.7268 16.1089C19.7548 15.883 19.6989 15.7417 19.5593 15.6994C19.4755 15.6711 19.2661 15.5864 18.5402 16.3913C18.6518 16.123 18.7635 15.8265 18.8752 15.5158C19.0148 15.4734 19.2801 15.4028 19.5314 15.2616C20.0619 14.9792 20.3551 14.5697 20.369 14.0754C20.383 13.8495 20.3132 13.7224 20.1875 13.68C20.1038 13.6518 19.8804 13.5812 19.2103 14.4567C19.322 14.0896 19.4197 13.6942 19.5174 13.2705C19.5314 13.2282 19.5453 13.1717 19.5593 13.1293C19.7129 13.1011 19.9502 13.0446 20.1875 12.9457C20.746 12.7057 21.0671 12.3103 21.1229 11.8301C21.1509 11.6042 21.095 11.463 20.9694 11.4206C20.8856 11.3924 20.6483 11.2935 19.8246 12.2397C19.9502 11.8301 20.1038 11.4489 20.2434 11.0958C20.3551 11.0958 20.6762 11.0817 21.0252 10.9687C21.5976 10.7852 21.9606 10.4463 22.0723 9.96614C22.1281 9.75432 22.0862 9.59898 21.9606 9.5425C21.8768 9.50014 21.6395 9.35892 20.5924 10.3615C20.8716 9.8108 21.1648 9.35892 21.444 8.97765C21.5138 8.97765 21.6116 8.99177 21.7372 8.99177C21.8629 8.99177 22.0304 8.97765 22.1979 8.94941C22.7983 8.85056 23.2031 8.55401 23.3707 8.08801C23.4544 7.87619 23.4265 7.73498 23.3148 7.65025C23.245 7.60788 23.0775 7.48079 22.3236 7.96092C22.6028 7.69261 22.8262 7.50904 22.9797 7.39607C25.4508 6.15339 28.8154 5.33436 33.2829 5.32024C36.7871 5.30612 37.8901 5.94157 37.8901 6.43582C37.8901 8.03152 33.3248 10.9546 30.3372 11.7878C29.7089 11.9855 29.2063 12.0985 29.5274 12.7904L30.0998 14.1178C28.7735 14.2731 26.1628 13.8777 24.8645 13.5953C25.0739 13.3129 25.3252 13.0587 25.6044 12.8045L25.6184 12.7904C25.6882 12.7198 25.7301 12.6068 25.7021 12.4938C25.6602 12.3385 25.4927 12.2538 25.3531 12.2961C25.1437 12.3668 24.9343 12.4515 24.7388 12.5786C24.6411 12.6351 24.5434 12.7057 24.4596 12.7763C24.3758 12.8469 24.2781 12.9175 24.1943 13.0022C23.8593 13.327 23.608 13.7224 23.4265 14.1319C23.245 14.5556 23.1333 14.9933 23.0914 15.4311C23.0635 15.657 23.0635 15.8688 23.0635 16.0948C23.0775 16.3207 23.0914 16.5325 23.1473 16.7585C23.1752 16.8573 23.259 16.942 23.3707 16.9703C23.5242 16.9985 23.6638 16.8997 23.6918 16.7444V16.7161C23.7197 16.5325 23.7616 16.3348 23.8034 16.1513C23.8453 15.9677 23.8872 15.77 23.943 15.5864C23.9989 15.3887 24.0547 15.1769 24.1245 14.9933C27.0982 19.851 30.9654 19.7098 31.845 19.8228C31.8589 19.8228 31.9706 19.8369 32.0823 19.8369L32.4034 20.9807C24.1943 32.5178 19.294 30.9786 19.294 30.9786V29.3547C19.4895 29.1005 20.6064 27.7307 20.383 27.3494C20.3132 27.2223 19.9781 27.0246 19.7268 27.3212C18.6518 28.6203 16.823 30.6538 15.4269 31.3599ZM19.0707 50.0282C19.0148 49.7317 18.8752 49.0962 18.582 48.7855C18.582 48.7855 19.1544 48.5031 19.4197 48.4184C19.8664 48.7997 20.1596 49.661 20.1875 49.9717L19.0707 50.0282ZM21.2765 49.9011C21.2625 49.421 20.9973 48.5737 20.4807 47.9665L21.4161 47.5993C22.2817 48.4607 22.3655 49.8729 22.3655 49.8729C22.3655 49.8729 21.5697 49.9152 21.2765 49.9011ZM24.669 49.8587C24.4038 49.887 23.7336 49.887 23.5382 49.887C23.231 48.1077 22.4771 47.2322 22.4771 47.2322C22.4632 47.1757 23.5382 46.9921 23.5382 46.9921C23.5382 46.9921 24.4177 47.2039 24.6551 47.2039V49.8587H24.669ZM24.669 46.2578C24.5853 46.4838 23.4963 46.1166 23.4963 45.8201C23.4963 45.6365 23.1054 41.9508 23.0775 41.739L24.6551 41.6402C24.683 42.9676 24.6969 44.9304 24.669 46.2578ZM30.8118 48.4043C31.0771 48.489 31.6495 48.7714 31.6495 48.7714C31.3563 49.0821 31.2167 49.7175 31.1609 50.0141L30.044 49.9435C30.0719 49.6469 30.3651 48.7997 30.8118 48.4043ZM28.8154 47.5993L29.7508 47.9665C29.2343 48.5737 28.969 49.421 28.955 49.9011C28.6619 49.9152 27.8521 49.8729 27.8521 49.8729C27.8521 49.8729 27.9359 48.4607 28.8154 47.5993ZM27.7404 47.2181C27.7404 47.2181 26.9865 48.0936 26.6794 49.8729C26.4839 49.8729 25.7999 49.8729 25.5206 49.8446L25.5486 47.1898C25.7999 47.1898 26.6654 46.978 26.6654 46.978C26.6654 46.978 27.7544 47.1757 27.7404 47.2181ZM25.5904 41.5837C25.9534 41.5413 26.7771 41.499 27.168 41.4848C27.168 41.4848 26.7492 45.6224 26.7492 45.8201C26.7492 46.1025 25.6602 46.4838 25.5765 46.2578C25.5346 44.9163 25.5486 42.9252 25.5904 41.5837ZM36.0053 39.7762L19.1684 40.8917L19.2382 31.953C20.6901 32.1083 21.7931 31.8259 23.4823 31.021C25.8138 29.9054 28.9271 27.2082 31.5239 23.5932L32.4453 22.3223C31.831 26.2338 28.257 30.8374 26.5817 33.3651C26.47 33.5487 26.3583 33.7464 26.3164 33.9582C26.3025 34.057 26.2885 34.2406 26.4002 34.2971C26.4839 34.3253 26.5956 34.2971 26.6654 34.2406C26.7771 34.17 26.8609 34.0712 26.9586 33.9723C27.0703 33.8452 27.182 33.7181 27.2797 33.591C27.6287 33.1674 27.9638 32.772 28.2849 32.3201C30.6722 28.8322 32.3336 26.2762 33.0177 23.1837C33.0316 23.2825 33.0596 23.3955 33.0735 23.4943C33.7018 26.9682 32.7943 28.3803 31.7333 30.4137C31.5937 30.6679 31.468 30.9786 31.5239 31.261C31.6076 31.6423 31.817 31.5717 32.1521 31.2328C32.9758 30.1596 33.5761 28.931 33.8972 27.6177L36.0053 39.7762ZM42.916 15.4311C42.8183 15.6005 42.7206 15.7982 42.6787 15.9959C42.5809 16.4337 41.1848 24.4828 41.1848 24.4828C41.1848 24.4828 39.8865 24.8641 34.679 26.2197L34.1764 24.2851C35.9774 23.9462 39.6352 23.2401 39.705 23.1695C39.7748 23.0989 40.3611 20.317 40.5985 18.9755C40.6404 18.7355 40.7521 18.2412 40.5147 18.4389C40.1657 18.7355 39.4537 19.1732 39.0767 18.7496C38.9232 18.5801 38.9371 18.3824 39.0209 18.1988C39.2024 18.1706 39.3699 18.1424 39.5235 18.1141C39.8865 18.0435 40.1098 17.7046 40.04 17.3374C40.5706 16.7726 42.0225 15.0074 41.6176 13.5106C41.1988 12.0137 39.1745 12.282 38.0297 13.1434C37.6388 13.44 37.5829 13.3411 37.541 13.2988C37.5131 13.2564 37.5131 13.1858 37.5131 13.1434C37.541 12.6209 38.7696 10.8417 40.4589 11.7313C40.5706 11.7878 40.7521 11.8725 40.8777 11.8725C41.478 11.8725 40.0121 8.92116 40.4449 8.73759C40.766 8.59637 41.1709 9.33068 41.5059 10.1638C41.7991 10.884 41.9108 11.7031 42.0923 11.6889C42.3715 11.6748 42.6647 8.24334 43.2092 8.37043C43.7257 8.48341 43.1952 11.3077 43.1533 11.6183C43.1115 11.929 43.0835 12.042 43.1952 12.0843C43.4046 12.1549 43.6839 11.6889 44.005 11.1664C44.4657 10.418 44.8566 9.88141 45.0241 10.0226C45.5546 10.4463 43.8793 13.7083 42.916 15.4311ZM37.7784 14.9792C37.6248 14.8945 37.4433 14.8521 37.2897 14.8662C37.0524 14.8803 36.8151 14.9792 36.6336 15.1486C36.3544 15.417 36.4521 15.7982 36.7453 16.01C36.9966 16.1936 37.3316 16.1371 37.5829 16.01C37.8342 15.883 38.1274 15.5864 38.0297 15.2757C37.9738 15.1345 37.8901 15.0498 37.7784 14.9792ZM32.9339 37.8557L34.693 37.7427L34.6511 37.1214L33.5203 37.192L33.4644 36.4577L34.5953 36.387L34.5534 35.7657L32.7943 35.8787L32.9339 37.8557ZM4.76068 13.3976C3.99283 13.3552 3.02952 15.1769 4.06263 15.417C4.18828 15.4452 4.31393 15.4311 4.42562 15.3887C4.91425 15.2334 5.47269 14.3014 5.30516 13.7648C5.24931 13.5671 5.08178 13.4117 4.76068 13.3976ZM20.732 39.2395L20.5645 36.6836L19.9502 36.726L20.1596 39.9032L23.1612 39.7055L23.1194 39.0842L20.732 39.2395ZM26.9447 38.2511L26.9028 37.6297L25.7719 37.7003L25.7301 36.966L26.8609 36.8954L26.819 36.2741L25.0599 36.387L25.1856 38.364L26.9447 38.2511ZM23.0775 38.5052L23.0356 37.8839L21.9048 37.9545L21.8629 37.2202L22.9937 37.1496L22.9518 36.5283L21.1927 36.6412L21.3184 38.6182L23.0775 38.5052ZM23.608 9.7402C23.7197 10.1074 23.9849 10.4463 24.334 10.6722C24.5155 10.7852 24.7109 10.8699 24.9343 10.9123C25.1577 10.9546 25.395 10.9405 25.6184 10.884C25.8417 10.8134 26.0651 10.6863 26.2466 10.5169C26.4141 10.3474 26.5398 10.1356 26.6096 9.9379C26.7492 9.51426 26.7213 9.10474 26.5956 8.75171L26.5817 8.69522C26.5398 8.58225 26.4421 8.51165 26.3304 8.51165C26.1908 8.51165 26.0651 8.63874 26.0791 8.77995C26.0791 9.0765 26.0512 9.38717 25.9395 9.62723C25.8278 9.86729 25.6463 10.0509 25.409 10.1074C25.1716 10.178 24.8924 10.1497 24.6551 10.0226C24.5294 9.96614 24.4177 9.88141 24.306 9.78256C24.1943 9.68371 24.1106 9.58486 24.0268 9.45777C23.971 9.37304 23.8593 9.33068 23.7476 9.35892C23.6219 9.40129 23.5382 9.5425 23.5801 9.66959L23.608 9.7402ZM27.182 8.70934C27.2937 9.09062 27.545 9.42953 27.894 9.66959C28.243 9.90965 28.7037 10.0367 29.1784 9.95202C29.4157 9.90965 29.6531 9.79668 29.8485 9.64135C30.044 9.47189 30.1836 9.27419 30.2674 9.04825C30.2813 8.99177 30.3093 8.93529 30.3232 8.89292C30.3372 8.83644 30.3511 8.77995 30.3651 8.73759C30.3791 8.62462 30.3791 8.52577 30.393 8.42692C30.3791 8.2151 30.3511 8.03152 30.2813 7.84795L30.2534 7.79146C30.2115 7.69261 30.1138 7.62201 30.0161 7.62201C29.8765 7.62201 29.7508 7.73498 29.7508 7.89031C29.7508 8.20098 29.7089 8.49753 29.5833 8.72347C29.5274 8.83644 29.4437 8.93529 29.3599 9.00589C29.2622 9.0765 29.1505 9.11886 29.0388 9.14711C28.8015 9.20359 28.5222 9.1471 28.2709 9.02001C28.1453 8.96353 28.0336 8.8788 27.9219 8.77995C27.8102 8.6811 27.7125 8.58225 27.6287 8.45516C27.5729 8.37043 27.4612 8.32807 27.3635 8.35631C27.2378 8.39868 27.1541 8.52577 27.196 8.66698L27.182 8.70934ZM24.5992 38.9854L24.4317 36.4294L23.8174 36.4718L24.0268 39.6491L27.0284 39.4514L26.9865 38.83L24.5992 38.9854ZM12.8999 7.25485C12.872 7.18425 12.8162 7.12776 12.7603 7.0854C12.4671 6.90182 11.8808 7.12776 11.6574 7.26897C11.4201 7.42431 11.0152 7.72085 11.2665 8.03152C11.5038 8.32807 12.1181 8.14449 12.3973 7.98916C12.6347 7.89031 13.0256 7.57964 12.8999 7.25485ZM6.88275 10.0367C6.61749 9.92377 6.21262 10.2344 6.04509 10.4039C5.7938 10.6581 5.58438 10.997 5.59834 11.35C5.6123 11.6042 5.73795 11.8584 6.00321 11.9008C6.61749 11.9855 7.28762 10.9829 7.23177 10.4463C7.21781 10.2768 7.12009 10.1356 6.88275 10.0367ZM7.84606 6.67588C7.35742 6.73237 6.67333 7.29722 6.77106 7.83383C6.78502 7.93267 6.84087 8.03152 6.92463 8.08801C7.02236 8.14449 7.14801 8.13037 7.25969 8.10213C7.5808 8.0174 8.26489 7.52316 8.27885 7.07128C8.27885 6.97243 8.25092 6.87358 8.19508 6.78885C8.11131 6.69 7.9717 6.66176 7.84606 6.67588ZM9.63306 8.31395C9.1165 8.14449 8.51618 8.72347 8.34865 9.16123C8.23696 9.45777 8.20904 9.85317 8.59995 9.92378C9.14443 10.0226 9.78663 9.38717 9.92624 8.89292C9.99604 8.65286 9.89832 8.39868 9.63306 8.31395ZM12.7464 4.5012C13.0535 4.44472 13.4025 4.24702 13.598 3.92223C13.8493 3.54096 13.4304 3.3715 13.1652 3.39974C12.872 3.39974 12.523 3.55508 12.2856 3.85162C12.174 4.00696 12.1321 4.21878 12.2158 4.31763C12.3554 4.44472 12.509 4.54357 12.7464 4.5012ZM5.83568 8.42692C5.82172 8.28571 5.76587 8.15861 5.62626 8.10213C5.57042 8.07389 5.51457 8.07389 5.44477 8.08801C4.92821 8.15862 4.25809 8.99177 4.55127 9.51426C4.60711 9.61311 4.70484 9.68371 4.81652 9.69783C4.88633 9.69783 4.9701 9.68371 5.0399 9.65547C5.33308 9.52838 5.58438 9.24595 5.72399 8.94941C5.77983 8.82231 5.84964 8.6105 5.83568 8.42692Z" fill="#1C1B1A"/>
<path d="M34.8187 46.032C35.2934 46.032 35.6843 46.3991 35.6843 46.8934C35.6843 47.4017 35.2794 47.7689 34.8187 47.7689C34.344 47.7689 33.9391 47.4017 33.9391 46.8934C33.9531 46.3991 34.344 46.032 34.8187 46.032ZM34.8187 46.1732C34.4138 46.1732 34.1067 46.4839 34.1067 46.8934C34.1067 47.317 34.4138 47.6277 34.8187 47.6277C35.2096 47.6277 35.5167 47.317 35.5167 46.8934C35.5167 46.4839 35.2096 46.1732 34.8187 46.1732ZM34.6372 47.4017H34.4836V46.3991H34.8606C35.0979 46.3991 35.2096 46.4839 35.2096 46.6816C35.2096 46.8651 35.0979 46.9357 34.9443 46.964L35.2236 47.4017H35.056L34.7908 46.964H34.6232V47.4017H34.6372ZM34.6372 46.851H34.8187C35.0002 46.851 35.07 46.7945 35.07 46.6816C35.07 46.5827 35.0281 46.5262 34.8466 46.5262H34.6372V46.851Z" fill="#1C1B1A"/>
<path d="M48.277 69.0355C47.8303 69.0355 47.4394 69.3886 47.4394 69.8687C47.4394 70.3488 47.8163 70.7018 48.277 70.7018C48.7238 70.7018 49.1007 70.3488 49.1007 69.8687C49.1147 69.3886 48.7238 69.0355 48.277 69.0355ZM48.277 70.5748C47.9001 70.5748 47.6069 70.2782 47.6069 69.8828C47.6069 69.4874 47.9001 69.1909 48.277 69.1909C48.654 69.1909 48.9471 69.4874 48.9471 69.8828C48.9471 70.2782 48.654 70.5748 48.277 70.5748ZM48.6679 69.671C48.6679 69.4874 48.5562 69.4027 48.3329 69.4027H47.9699V70.3629H48.1095V69.9534H48.277L48.5283 70.3629H48.6819L48.4166 69.9393C48.5562 69.9111 48.6679 69.8405 48.6679 69.671ZM48.1095 69.8122V69.5157H48.3049C48.4725 69.5157 48.5143 69.5721 48.5143 69.6569C48.5143 69.7557 48.4585 69.8122 48.277 69.8122H48.1095ZM19.3359 56.1569C19.3359 55.5074 19.8944 54.9849 20.5645 54.9849C21.2486 54.9849 21.7931 55.5074 21.7931 56.1569C21.7931 56.8065 21.2486 57.3149 20.5645 57.3149C19.8944 57.3149 19.3359 56.7924 19.3359 56.1569ZM11.1269 64.2767V56.9195C11.1269 55.5921 9.63307 55.9169 9.63307 55.0555C9.63307 54.8719 9.77267 54.6742 9.98209 54.6742C10.2753 54.6742 11.0431 54.773 12.1181 54.773H12.3694C13.4444 54.773 14.3798 54.6742 14.5054 54.6742C14.7288 54.6742 14.8545 54.8578 14.8545 55.0555C14.8545 55.9028 13.3048 55.578 13.3048 56.8912L13.2769 64.319C13.2629 65.2087 13.7097 65.3781 14.5892 65.3781H15.2175C15.8178 65.3781 16.3483 64.9969 16.6834 64.4179L17.3535 63.2458C17.6187 62.8081 17.8281 62.7233 18.0096 62.7233C18.3447 62.7233 18.4424 62.9916 18.4424 63.2317C18.4424 63.6977 17.9817 64.5309 17.7165 65.477C17.5629 66.0277 17.6187 66.4372 17.5489 66.7338C17.521 66.9315 17.3814 67.0303 17.1301 67.0303C16.6973 67.0303 16.0132 66.6914 13.7376 66.6914H13.1652C12.1181 66.6914 11.099 66.8326 10.0798 66.8326C9.53534 66.8326 9.52138 66.522 9.52138 66.3243C9.5493 65.4911 11.1269 65.943 11.1269 64.2767ZM18.0934 59.3766C18.0934 59.1789 18.1632 58.9953 18.4704 58.9388C20.6762 58.4587 20.5226 58.0492 21.2207 58.0492C21.458 58.0492 21.6116 58.2328 21.6116 58.5575C21.6116 58.727 21.5837 59.0236 21.5837 59.8567L21.5557 64.9969C21.5557 65.477 21.8629 65.6888 22.2259 65.8159C22.547 65.9289 22.9518 66.0136 22.9518 66.4231C22.9518 66.649 22.882 66.8326 22.6447 66.8326C22.2398 66.8326 21.5697 66.7479 20.9554 66.7479H20.2853C19.685 66.7479 19.0009 66.8326 18.596 66.8326C18.3447 66.8326 18.2749 66.649 18.2749 66.4231C18.2749 66.0418 18.596 65.943 18.9171 65.8441C19.2661 65.7312 19.671 65.5052 19.671 64.9969L19.6431 60.704C19.6291 60.2803 19.3918 59.8285 18.4843 59.7296C18.2051 59.6873 18.0934 59.5602 18.0934 59.3766ZM35.8099 62.6386C35.8099 59.9132 37.4712 58.0351 39.2582 58.0351C41.1011 58.0351 41.9806 59.5037 41.9806 61.4665C41.9806 61.8619 41.9667 62.1444 41.8271 62.3421C41.6037 62.6386 41.3105 62.6386 40.5985 62.6386H38.8534C38.5462 62.6386 38.3508 62.4974 38.3508 62.215C38.3508 61.7772 38.6439 61.6501 39.2303 61.5795C39.8306 61.4948 39.9982 61.4665 40.1098 61.3536C40.1936 61.2688 40.1936 61.1135 40.1936 60.9299C40.1936 60.0826 39.7748 59.2636 39.1186 59.2636C38.4345 59.2636 37.8761 60.1391 37.8761 61.7066V61.9608C37.8761 64.7003 39.0349 65.4487 39.8306 65.4487C40.4589 65.4487 40.7521 65.2793 41.0034 65.0251C41.1988 64.8415 41.3245 64.6015 41.5897 64.6015C41.827 64.6015 41.9108 64.7709 41.9108 64.9827C41.9108 65.9147 40.7939 67.115 39.3001 67.115C37.0524 67.0868 35.8099 65.0816 35.8099 62.6386ZM31.468 55.9451C31.468 55.7474 31.5378 55.5638 31.845 55.5074C34.0648 55.0414 34.1066 54.6318 34.6092 54.6318C34.8326 54.6318 34.9583 54.8154 34.9583 55.1261C34.9583 55.2955 34.9443 55.5921 34.9443 56.4252L34.9164 64.9969C34.9164 65.4629 35.2096 65.6606 35.5865 65.7735C35.9076 65.8865 36.3125 66.0136 36.3125 66.4513C36.3125 66.6773 36.2287 66.8326 35.9774 66.8326C35.5725 66.8326 34.9164 66.7479 34.33 66.7479H33.6599C33.0875 66.7479 32.4453 66.8326 32.0544 66.8326C31.817 66.8326 31.7472 66.6773 31.7472 66.4513C31.7472 66.0418 32.0683 65.9289 32.3755 65.8018C32.6966 65.7029 33.0456 65.477 33.0456 64.9827L33.0177 57.2584C33.0037 56.8348 32.7664 56.4111 31.8729 56.284C31.5937 56.2699 31.468 56.1569 31.468 55.9451ZM2.35941 71.2667C2.35941 74.797 3.49024 76.4916 4.94218 76.4633C5.65419 76.4633 6.25452 75.729 6.6873 74.7829C7.14802 73.7944 7.31555 73.6532 7.66457 73.6391C7.97171 73.6391 8.12528 73.8368 8.12528 74.1192C8.12528 74.4722 7.98567 74.8676 7.8321 75.3336C7.52496 76.2939 7.48308 76.7881 7.2597 77.4236C7.16197 77.7201 6.9386 77.7766 6.74315 77.8049C6.56166 77.8049 6.32432 77.7201 6.1149 77.3953C5.65419 77.7343 5.27724 77.9461 4.3977 77.9602C2.19187 77.9884 0 75.729 0 71.7609C0 68.3154 2.17791 65.3781 4.99803 65.3216C5.91945 65.3075 6.56165 65.5617 7.34347 66.0418C7.67853 65.7453 7.8321 65.5758 8.15321 65.5758C8.48827 65.5758 8.58599 65.83 8.58599 65.9995C8.58599 66.4372 8.34866 66.6632 8.11132 67.2845C7.86002 67.9341 7.84606 68.386 7.77626 68.7108C7.67853 69.1203 7.52496 69.6004 7.12009 69.6004C6.78503 69.6004 6.60354 69.3603 6.60354 69.0355L6.58958 68.2024C6.57562 67.2704 6.03114 66.6208 4.98407 66.6349C3.53213 66.649 2.35941 68.5131 2.35941 71.2667ZM41.4222 69.8405C41.4222 70.5748 40.9196 71.0266 40.417 71.0266C40.0819 71.0266 39.8446 70.8431 39.5374 70.8431C38.6719 70.8431 38.3368 72.2269 38.3089 73.4696L38.2949 75.8844C38.2949 76.3221 38.5881 76.5339 38.9651 76.661C39.3001 76.774 39.7189 76.8446 39.7189 77.2682C39.7189 77.5083 39.6491 77.706 39.3839 77.706C38.979 77.706 38.3089 77.6213 37.6806 77.6213H37.0105C36.3264 77.6213 34.8047 77.6495 33.8972 77.6495C33.4365 77.6495 32.9898 77.6636 32.6547 77.706C32.1102 77.706 32.1521 77.353 32.1521 75.9973L32.1381 73.6814C31.9008 73.6814 31.7193 73.7097 31.5797 73.752C30.742 73.9215 30.0998 74.6417 30.0998 75.3901C30.0998 76.1809 30.5326 76.5622 31.3842 76.4916C31.6774 76.4633 31.7752 76.5057 31.7752 76.6469C31.7752 77.3812 30.7839 77.9037 30.044 77.9037C28.983 77.9037 28.0615 77.0564 28.0615 75.7855C28.0615 74.1474 29.3459 72.9048 31.6495 72.5941C31.7891 72.58 31.9148 72.5659 32.1521 72.5659V72.3258C32.1521 70.6877 31.845 70.1511 31.105 70.1511C30.4489 70.1511 30.1138 70.5042 29.8206 71.2243C29.6391 71.7045 29.4716 72.2269 29.0667 72.2269C28.7456 72.2269 28.5921 71.9869 28.5921 71.535C28.5921 70.9843 28.7875 70.4335 28.7875 69.8828V69.4168C28.7875 69.1203 28.983 69.0073 29.1784 69.0073C29.332 69.0073 29.5972 69.1203 29.8904 69.318C30.3511 69.0497 30.8398 68.8237 31.5239 68.8237C32.5709 68.8237 33.2969 69.2615 33.6738 70.0099C34.0089 70.6595 34.1066 71.5209 34.1066 72.5376V74.0768C34.0787 76.5198 34.4417 76.8164 35.2375 76.8164C35.8657 76.8164 36.4102 76.3504 36.4102 75.7573L36.3823 71.5632C36.3823 71.1678 36.1449 70.7725 35.2235 70.6736C34.9722 70.6454 34.8466 70.4477 34.8466 70.2358C34.8466 70.0382 34.9303 69.8404 35.1956 69.7981C37.2339 69.3744 37.0803 68.9084 37.7086 68.9084C38.0017 68.9084 38.1832 69.092 38.1832 69.4027C38.1832 69.5863 38.1553 69.8828 38.1553 70.716V71.069C38.6579 69.4027 39.4816 68.6966 40.3751 68.6966C41.0034 68.6966 41.4222 69.205 41.4222 69.8405ZM27.6986 64.7568L27.7125 59.5884H25.2275L25.1995 64.3614C25.1995 65.0533 25.4369 65.4064 25.9115 65.4064C26.1768 65.4064 26.3304 65.2934 26.4839 65.1663C26.7213 64.9827 26.7911 64.8556 27.0005 64.8556C27.1541 64.8556 27.2239 64.9969 27.2239 65.1098C27.2239 65.9853 26.2745 67.0586 25.1018 67.0586C24.1525 67.0586 23.231 66.5643 23.231 64.7568L23.245 59.5884H22.7424C22.2259 59.5884 22.0862 59.4896 22.0862 59.1648C22.0862 58.8541 22.17 58.7411 22.5051 58.5858C22.9797 58.3599 23.231 58.1763 23.4963 57.7526C24.0966 56.8348 24.0827 55.931 24.8645 55.931C25.1158 55.931 25.2135 56.0863 25.2135 56.284L25.1995 58.3316H26.6236C27.2518 58.3316 27.6148 58.3034 27.9778 57.7526C28.5781 56.8348 28.5641 55.931 29.3459 55.931C29.5693 55.931 29.695 56.0722 29.695 56.284L29.681 58.3316H31.4261C31.6914 58.3316 31.845 58.4022 31.845 58.7552C31.845 59.08 31.7752 59.5884 31.2586 59.5884H29.695L29.681 64.3614C29.681 65.0533 29.9183 65.4064 30.3651 65.4064C30.6304 65.4064 30.7839 65.2934 30.9515 65.1522C31.1888 64.9545 31.2586 64.8556 31.4541 64.8556C31.6216 64.8556 31.6914 64.9969 31.6914 65.1098C31.6914 65.9853 30.7281 67.0586 29.6391 67.0586C28.6339 67.0586 27.6986 66.5643 27.6986 64.7568ZM47.1183 75.263C47.1183 76.5904 46.127 77.9319 44.2004 77.9319C43.5582 77.9319 42.93 77.7484 42.3994 77.4518C42.0923 77.706 41.8829 77.8049 41.7712 77.8049C41.4361 77.8049 41.3524 77.4659 41.3524 77.0847C41.3524 76.5763 41.3524 76.2091 41.2826 75.9267C41.2128 75.5878 41.115 75.3477 41.115 75.023C41.115 74.6276 41.3105 74.4157 41.6176 74.4157C41.8689 74.4157 41.9946 74.5287 42.1621 74.9382C42.6787 76.2798 43.3069 76.7034 44.1725 76.7034C44.9264 76.7034 45.3173 76.2939 45.3173 75.8985C45.3173 75.3336 44.8566 74.9947 44.2842 74.6699L43.6839 74.331C41.855 73.286 41.478 72.6647 41.478 71.535C41.478 70.1511 42.5391 68.9084 44.0887 68.9084C44.6053 68.9084 45.0799 69.0214 45.5546 69.3462C45.7501 69.1485 45.8757 69.0073 46.0572 69.0073C46.2387 69.0073 46.4621 69.1203 46.4621 69.4027V69.9534C46.4621 70.5183 46.6436 71.0831 46.6436 71.5915C46.6436 71.9445 46.504 72.1846 46.2108 72.1846C45.8338 72.1846 45.6663 71.888 45.3731 71.2526C45.066 70.6736 44.7309 70.0381 44.0608 70.0381C43.5861 70.0381 43.1813 70.3488 43.1813 70.9278C43.1813 71.3373 43.3348 71.6621 43.977 72.0151L44.8147 72.4953C46.0293 73.2154 47.1183 73.7944 47.1183 75.263ZM15.734 77.2118C15.734 77.4518 15.6363 77.7201 15.385 77.7201C15.2733 77.7201 14.7428 77.6636 14.3798 77.6636C13.9051 77.6636 13.4584 77.6919 13.1373 77.7201C12.5928 77.7201 12.6347 77.3671 12.6347 76.0114L12.6207 73.6956C12.3694 73.6956 12.1879 73.7238 12.0483 73.7662C11.2107 73.9356 10.5824 74.6699 10.5824 75.4042C10.5824 76.195 11.0012 76.5904 11.8668 76.5057C12.16 76.4774 12.2577 76.5198 12.2577 76.661C12.2577 77.3953 11.2665 77.9178 10.5266 77.9178C9.45158 77.9178 8.54411 77.0705 8.54411 75.7996C8.54411 74.1757 9.8006 72.933 12.1321 72.6082C12.2717 72.5941 12.3973 72.58 12.6347 72.58V72.3258C12.6347 70.6877 12.3136 70.1511 11.5876 70.1511C10.9175 70.1511 10.5964 70.5324 10.3032 71.2243C10.1217 71.7045 9.95417 72.2269 9.5493 72.2269C9.2282 72.2269 9.07463 71.9869 9.07463 71.535C9.07463 70.9843 9.25612 70.4335 9.25612 69.8828V69.4168C9.25612 69.1203 9.4795 69.0073 9.64703 69.0073C9.81456 69.0073 10.0659 69.1203 10.359 69.318C10.8197 69.0638 11.3223 68.8237 12.0064 68.8237C13.0675 68.8237 13.7795 69.2897 14.1843 70.0381C14.5194 70.6877 14.6032 71.535 14.6032 72.5376V74.0486C14.6032 76.2939 14.8545 76.661 15.4688 76.8022C15.6921 76.8729 15.734 77.0282 15.734 77.2118ZM19.6152 72.2411C19.6989 72.1563 19.6989 72.001 19.6989 71.8174C19.6989 70.9702 19.2801 70.1511 18.6239 70.1511C17.9398 70.1511 17.3814 71.0266 17.3814 72.5941V72.8483C17.3814 75.5878 18.5402 76.3362 19.3359 76.3362C19.9642 76.3362 20.2574 76.1668 20.5087 75.9126C20.7041 75.729 20.8298 75.489 21.095 75.489C21.3324 75.489 21.4161 75.6584 21.4161 75.8702C21.4161 76.8022 20.2992 78.0026 18.8054 78.0026C16.5717 78.0026 15.3152 75.9973 15.3152 73.5543C15.3152 70.8289 16.9765 68.9508 18.7635 68.9508C20.6064 68.9508 21.4859 70.4194 21.4859 72.3823C21.4859 72.7777 21.472 73.0601 21.3324 73.2578C21.109 73.5543 20.8158 73.5543 20.1038 73.5543H18.3587C18.0515 73.5543 17.8561 73.4131 17.8561 73.1307C17.8561 72.693 18.1493 72.5659 18.7356 72.4953C19.3359 72.3823 19.5174 72.3399 19.6152 72.2411ZM27.6706 75.263C27.6706 76.5904 26.7213 77.9319 24.9203 77.9319C24.2921 77.9319 23.6918 77.7484 23.1752 77.4518C22.8681 77.706 22.6586 77.8049 22.547 77.8049C22.2119 77.8049 22.1281 77.4659 22.1281 77.0847C22.1281 76.5763 22.1281 76.2091 22.0583 75.9267C21.9885 75.5878 21.8908 75.3477 21.8908 75.023C21.8908 74.6276 22.0862 74.4157 22.3934 74.4157C22.6447 74.4157 22.7703 74.5287 22.9379 74.9382C23.4544 76.2798 24.0547 76.7034 24.8924 76.7034C25.5346 76.7034 25.8697 76.2939 25.8697 75.8985C25.8697 75.3195 25.4369 74.9382 24.8366 74.6417L24.2642 74.331C22.3375 73.3425 21.9885 72.6647 21.9885 71.535C21.9885 70.1511 23.0635 68.9084 24.6271 68.9084C25.1437 68.9084 25.6184 69.0214 26.093 69.3462C26.2885 69.1485 26.4141 69.0073 26.5956 69.0073C26.7771 69.0073 27.0005 69.1203 27.0005 69.4027V69.9534C27.0005 70.5183 27.182 71.0831 27.182 71.5915C27.182 71.9445 27.0424 72.1846 26.7492 72.1846C26.3723 72.1846 26.2047 71.888 25.9115 71.2526C25.6044 70.6736 25.2693 70.0381 24.5992 70.0381C24.1106 70.0381 23.6918 70.3488 23.6918 70.9278C23.6918 71.3373 23.8453 71.6621 24.5155 72.0151L25.3531 72.4529C26.5817 73.159 27.6706 73.7803 27.6706 75.263Z" fill="#EC6608"/>
</svg>
