<svg width="130" height="76" viewBox="0 0 130 76" fill="none" xmlns="http://www.w3.org/2000/svg">
<g clip-path="url(#clip0_28_447)">
<path d="M81.787 55.9716C81.1458 56.9242 80.3574 57.8244 79.436 58.6559C78.6804 59.3479 77.7866 59.9597 76.7821 60.4725C76.0065 60.8638 75.3521 61.1616 74.8189 61.0936C74.4735 61.034 74.522 60.6043 74.5644 60.3321C74.7045 59.5022 75.0663 58.6983 75.6308 57.9625C76.2265 57.1628 76.9591 56.417 77.8122 55.7419C78.6363 55.0996 79.5823 54.5399 80.6236 54.0785C81.338 53.7599 82.119 53.5216 82.9382 53.3723C82.73 54.2724 82.3425 55.1474 81.787 55.9716ZM91.1242 38.1638C88.8884 37.9128 87.2706 39.1082 86.5616 40.2909C86.3443 40.6706 86.1562 41.0583 85.9981 41.4522C85.7558 41.9755 85.6649 42.3711 85.477 42.9157C85.3437 43.3028 85.1438 43.9069 85.059 44.1919C84.9075 44.6811 84.8893 44.7577 84.6893 45.5022C84.4894 46.2467 84.3682 46.7274 84.2288 47.3783C84.1198 47.876 84.0168 48.2844 83.9077 48.7821C82.2007 49.0752 80.5564 49.5258 79.018 50.1222C77.209 50.8174 75.5604 51.7009 74.1282 52.7427C72.601 53.8482 71.3165 55.107 70.3169 56.4778C69.242 57.9544 68.568 59.5586 68.3295 61.2084C68.2932 61.4169 68.275 61.6338 68.2629 61.8806C68.045 61.7573 67.8514 61.6143 67.6873 61.4552C67.3555 61.1003 67.1212 60.7049 66.9965 60.2895C66.8409 59.8108 66.7616 59.3214 66.7602 58.8304C66.7577 58.4538 66.786 58.0774 66.845 57.703C66.8996 57.3329 66.9723 56.9841 67.0632 56.6693C67.1116 56.4608 67.148 56.2736 67.1843 56.0865C67.2207 55.8993 67.2328 55.844 67.2631 55.7249C67.5928 54.6607 67.6828 53.5669 67.5297 52.4832C67.4025 51.8579 66.6814 50.6624 64.8879 50.6242C64.7406 50.618 64.5929 50.618 64.4456 50.6242C63.1916 50.7551 61.9974 51.087 60.9555 51.5941C59.7585 52.1862 58.6786 52.8872 57.7441 53.6786C57.3809 53.9838 57.043 54.3034 56.7322 54.6358C56.9019 54.2657 57.1321 53.8956 57.3381 53.534C57.4775 53.3128 57.6169 53.1086 57.738 52.8703C57.7516 52.8427 57.7678 52.8157 57.7865 52.7895C58.0894 52.3113 58.3131 51.8103 58.453 51.2963C58.5277 50.9684 58.4355 50.6325 58.1925 50.3476C58.006 50.1661 57.7582 50.02 57.4714 49.9222C57.2085 49.8387 56.9239 49.7938 56.6353 49.7903C56.4353 49.7903 56.2657 49.7903 56.1445 49.7903C55.4976 49.8239 54.8729 49.9701 54.3267 50.2158C53.8854 50.4143 53.4787 50.6485 53.1149 50.9134C52.7699 51.1885 52.4635 51.4862 52.2 51.8026C51.7328 52.3688 51.3665 52.9731 51.1093 53.6021C50.7821 54.3295 50.4731 55.1378 50.1822 56.0056C49.8914 56.8735 49.6369 57.7073 49.4006 58.5836C49.1643 59.46 49.0068 60.2002 48.9098 60.8298C48.7947 61.5998 48.7038 62.3485 48.6553 63.0547C48.5984 63.7169 48.6166 64.3812 48.7099 65.0414C48.771 65.5676 48.9877 66.079 49.3461 66.5431C49.5412 66.7708 49.8292 66.9521 50.1727 67.0636C50.5162 67.1751 50.8995 67.2116 51.2729 67.1685H51.3153C51.7372 67.1285 52.1529 67.0616 52.5574 66.9685C53.3245 66.7256 53.9612 66.3173 54.3752 65.8029C54.7327 65.4158 55.0962 64.3863 55.5325 63.0802C55.6355 62.7825 55.7325 62.5059 55.8052 62.289C57.5199 57.6094 60.0102 56.6055 61.2584 56.4268L61.004 58.0136C60.9434 58.707 60.8707 59.3196 60.8464 60.0471C60.8373 61.0066 60.992 61.9635 61.3069 62.8973C61.5469 63.6954 62.0193 64.45 62.6945 65.1137C63.4155 65.6923 64.1063 66.0709 65.3605 66.0156H65.3908C65.8737 65.9833 66.3462 65.8971 66.7905 65.7603C67.3136 65.5938 67.785 65.3568 68.178 65.0627C68.4921 64.8543 68.7471 64.606 68.9294 64.331C69.1528 64.6221 69.4459 64.884 69.7959 65.1052C70.458 65.4747 71.2991 65.6487 72.1408 65.5902H72.2074C72.3165 65.5902 72.5588 65.5902 73.3405 65.4966C74.2316 65.388 75.0965 65.1918 75.9096 64.9138C77.0799 64.5182 78.1869 64.0362 79.2118 63.4759C80.1728 62.9574 81.0542 62.37 81.8415 61.7232C81.6673 62.8203 81.8263 63.931 82.3081 64.9818C82.5582 65.5151 82.9329 66.0154 83.4169 66.4623C83.7265 66.7399 84.1277 66.9605 84.5859 67.1051C85.044 67.2496 85.5453 67.3137 86.0466 67.2918H86.192C86.6797 67.2431 87.1527 67.1381 87.5917 66.9813C88.0168 66.8192 88.3949 66.6028 88.7066 66.3432C89.1381 65.9829 89.3967 65.5363 89.4458 65.0669C89.4683 64.8851 89.4561 64.702 89.4095 64.5224C89.3453 64.3302 89.2256 64.1492 89.058 63.9906C88.9858 63.9224 88.9191 63.8514 88.8581 63.7779C88.5329 63.4038 88.2822 63.0001 88.1128 62.5783C87.8081 61.591 87.704 60.5784 87.8038 59.5706C87.8038 58.8984 87.9007 58.1625 87.9795 57.4435C88.0583 56.7246 88.1673 56.0567 88.2824 55.3165C88.3552 54.8315 88.4339 54.3465 88.5066 53.8658C88.5066 53.6914 88.5551 53.5425 88.5794 53.4106H88.7248C89.2962 53.4033 89.8505 53.2726 90.3123 53.0362C90.6615 52.8311 90.944 52.5756 91.1405 52.2872C91.337 51.9988 91.4431 51.6841 91.4514 51.3644C91.5216 51.0698 91.4936 50.7678 91.3696 50.4822C91.2455 50.1965 91.0288 49.935 90.7364 49.718C90.3832 49.4748 89.9884 49.2633 89.5609 49.0884C89.6215 48.8289 89.6821 48.5864 89.7306 48.3652C89.7912 48.0759 89.8579 47.8292 89.9245 47.6207C89.973 47.4761 90.0093 47.3357 90.0517 47.1953C90.0942 47.0549 90.1184 46.9486 90.1547 46.8295C90.1547 46.7997 90.8697 44.4982 92.2755 41.0694C92.459 40.6299 92.5888 40.1801 92.6632 39.7251C92.742 39.1976 92.5602 38.3127 91.1485 38.1596L91.1242 38.1638ZM111.32 50.2455C111.435 50.6402 111.457 51.0454 111.386 51.4452C111.31 51.9552 111.187 52.4611 111.017 52.9597C111.017 52.9809 110.005 55.7419 109.605 57.0692C109.29 58.1199 109.096 58.941 108.872 59.8982V59.9577C108.653 60.8894 108.32 62.9569 108.12 64.416C107.732 67.2365 107.642 67.9044 106.539 70.0783C105.604 71.8095 103.878 73.2743 101.631 74.2431C99.4016 75.1034 96.9035 75.5623 94.3598 75.5789H94.3174C94.1902 75.5789 94.0508 75.5789 93.8993 75.5533C93.5868 75.5424 93.2753 75.5197 92.9662 75.4853C90.1669 75.1322 88.549 73.8815 88.852 72.2692C88.8717 72.0774 88.9492 71.8907 89.0794 71.7216C89.2096 71.5524 89.3896 71.4046 89.6073 71.288C89.825 71.1714 90.0755 71.0885 90.3422 71.045C90.609 71.0014 90.8859 70.9982 91.1545 71.0355C92.1892 71.161 93.2371 71.225 94.2871 71.2269C97.1955 71.2014 99.189 70.5292 100.383 69.1211C101.576 67.713 101.776 66.7005 101.982 65.369C102.013 65.1945 102.037 65.0159 102.067 64.8329C102.188 64.1438 102.273 63.5099 102.37 62.842C101.954 63.2342 101.494 63.6026 100.995 63.9438C100.25 64.4592 99.427 64.9157 98.5407 65.3052C97.7673 65.6419 96.899 65.8568 95.9958 65.9348H95.9413C95.3426 65.9469 94.7488 65.855 94.2129 65.6673C93.677 65.4795 93.2154 65.2017 92.8693 64.8585C92.2025 64.1779 91.7274 63.414 91.4696 62.608C91.1559 61.6984 90.9952 60.766 90.9909 59.8301C90.9748 58.9497 91.0233 58.0694 91.1363 57.1925C91.4757 54.6954 92.2088 52.7087 93.3116 51.2878C94.5234 49.7095 96.0867 48.9097 97.9287 48.9395C98.0949 48.9434 98.2608 48.9533 98.4256 48.9693C98.7393 48.9985 99.0396 49.077 99.3041 49.199C99.6053 49.3434 99.8458 49.5417 100.001 49.7733C100.2 50.0927 100.27 50.4447 100.201 50.7901C100.105 51.2868 99.8703 51.7654 99.5101 52.1982C99.1198 52.7298 98.7778 53.2783 98.4861 53.8403C98.2256 54.355 97.9529 54.9719 97.6863 55.6696C97.4111 56.3872 97.2246 57.1202 97.1289 57.8604C97.1289 57.9838 97.0804 58.2518 97.0441 58.6857C97.0051 59.0539 97.0051 59.4236 97.0441 59.7918C97.0721 60.0836 97.1641 60.3705 97.3167 60.6426C97.4063 60.7583 97.5561 60.8452 97.7348 60.8851C97.8578 60.9065 97.9838 60.9179 98.1105 60.9191C98.3911 60.9138 98.664 60.8534 98.8982 60.7447C99.3879 60.4849 99.8154 60.1718 100.165 59.8173C100.888 59.1171 101.498 58.3623 101.982 57.5669C102.279 57.0692 102.661 56.2566 103.067 55.393C103.521 54.4273 104.321 52.5258 104.782 51.726C105.056 51.2507 105.391 50.7936 105.781 50.3604C106.136 49.9878 106.586 49.6647 107.108 49.4075C107.746 49.1033 108.508 48.9539 109.278 48.9821C109.483 48.9975 109.686 49.026 109.883 49.0671C110.229 49.1287 110.539 49.2622 110.774 49.45C111.045 49.6739 111.232 49.9414 111.32 50.2285V50.2455ZM112.725 49.8031C112.607 49.5126 112.607 49.2045 112.725 48.914C112.792 48.7438 113.022 48.3525 113.149 47.9781C113.33 47.5116 113.349 47.0214 113.204 46.5487C113.04 46.1189 113.03 45.6674 113.174 45.2342C113.28 45.02 113.464 44.8289 113.707 44.6797C113.95 44.5305 114.245 44.4284 114.561 44.3833C115.247 44.2853 115.958 44.3404 116.597 44.5408C117.252 44.7969 117.74 45.2206 117.96 45.7234C118.179 46.4011 118.179 47.1047 117.96 47.7824C117.79 48.3855 117.465 48.9619 117.003 49.484C116.683 49.821 116.271 50.1101 115.791 50.3349C115.458 50.4808 115.081 50.5689 114.69 50.5918C114.299 50.6148 113.906 50.5719 113.543 50.4667C113.134 50.3261 112.819 50.0788 112.665 49.7776L112.725 49.8031ZM127.413 61.7147C127.247 62.7277 126.593 63.6704 125.559 64.3863C124.606 65.0326 123.493 65.5516 122.275 65.9177C120.186 66.541 117.915 66.805 115.652 66.6877H115.434C113.471 66.5091 112.137 66.0752 111.356 65.3349C110.992 65.0203 110.721 64.6574 110.561 64.2678C110.4 63.8783 110.354 63.4701 110.423 63.0675C110.456 62.7462 110.601 62.4355 110.845 62.1626C111.089 61.8897 111.425 61.6629 111.822 61.502C112.338 61.2694 112.943 61.1522 113.555 61.1659H113.616C114.277 61.2485 114.9 61.441 115.434 61.7274C116.071 61.9834 116.776 62.1449 117.505 62.202C118.235 62.259 118.973 62.2105 119.675 62.0592C120.039 61.9359 120.281 61.7997 120.281 61.6764C120.281 61.6211 120.311 61.502 120.033 61.3148C119.613 61.0491 119.142 60.827 118.633 60.6554C118.027 60.4342 117.342 60.2087 116.561 59.962C115.786 59.7198 115.048 59.4249 114.355 59.0814C113.668 58.7505 113.079 58.3285 112.622 57.8392C112.124 57.268 111.939 56.5891 112.101 55.9291C112.316 55.0041 112.844 54.1289 113.64 53.3766C114.488 52.5465 115.51 51.8108 116.67 51.1942C117.855 50.5598 119.173 50.0589 120.578 49.7095C121.953 49.3521 123.434 49.2396 124.886 49.382C125.499 49.43 126.091 49.5685 126.623 49.7884C127.154 50.0084 127.613 50.3048 127.97 50.6582C128.661 51.3686 128.891 52.3598 128.655 53.5638C128.543 54.1403 128.233 54.6892 127.752 55.1633C127.464 55.4477 127.061 55.6651 126.596 55.7879C126.131 55.9107 125.624 55.9332 125.141 55.8525C124.811 55.84 124.493 55.7617 124.225 55.6268C123.957 55.4919 123.749 55.306 123.626 55.091C123.483 54.8405 123.374 54.5813 123.299 54.3167C123.238 54.1381 123.226 53.8913 123.062 53.785C122.907 53.7047 122.714 53.6696 122.523 53.6871C122.284 53.6924 122.047 53.7225 121.82 53.7765C121.383 53.8724 120.962 54.0023 120.566 54.1636C120.145 54.3334 119.763 54.5471 119.433 54.7975C119.19 54.9673 119.024 55.1832 118.954 55.4186C118.933 55.5102 118.948 55.604 118.998 55.6901C119.047 55.7762 119.128 55.8514 119.233 55.9078C119.684 56.2004 120.18 56.4572 120.711 56.6735C121.317 56.933 122.008 57.1925 122.826 57.4691C123.646 57.7376 124.424 58.0655 125.147 58.4475C125.837 58.8122 126.431 59.2585 126.904 59.7663C127.42 60.3469 127.616 61.0397 127.455 61.7147H127.413ZM42.9779 57.2563C42.4149 57.8946 41.7276 58.4746 40.9359 58.9793C40.2851 59.3857 39.5669 59.7356 38.797 60.0215C38.536 60.1266 38.2571 60.208 37.9669 60.264C38.0967 59.7505 38.2997 59.2474 38.5728 58.7623C39.0145 58.0252 39.5606 57.3212 40.2027 56.6608C40.7659 56.0313 41.4488 55.4588 42.2326 54.9591C42.5487 54.7472 42.9334 54.5925 43.3535 54.5082C44.0019 54.4273 44.0322 55.0187 44.0322 55.1335C43.9372 55.8936 43.5727 56.6249 42.9718 57.2606L42.9779 57.2563ZM47.2678 51.3048C46.749 51.0585 46.1473 50.9118 45.5227 50.8794C44.9562 50.8552 44.3876 50.8723 43.8261 50.9305H43.7898C42.7651 51.0514 41.7736 51.2839 40.8511 51.6196C40.0109 51.9437 39.2297 52.338 38.5244 52.7938C37.8066 53.2364 37.1512 53.7264 36.5672 54.2572C35.8996 54.8793 35.3038 55.538 34.7858 56.2268C33.8637 57.5126 33.1191 58.8573 32.5621 60.2427C31.9808 60.2095 31.4037 60.147 30.8352 60.0556L30.3869 60.0003H30.2111C32.1137 54.4359 33.4468 51.2835 34.4162 49.0969C34.9434 48.0291 35.4766 46.9699 35.9977 45.8978C36.3811 45.3309 36.5877 44.713 36.6036 44.0856C36.5006 42.971 35.3918 41.8436 33.4468 42.1457C31.3806 42.4647 30.1566 44.3195 28.5146 48.3992C27.127 51.8323 26.3393 54.0189 25.2123 57.7285C24.7195 59.4302 24.2327 61.1219 23.752 62.8037L23.5339 63.5652C23.3703 64.0927 23.2855 64.2416 23.0189 64.2842C22.8856 64.3054 22.722 64.2416 22.6432 64.0247C22.4069 63.1315 22.2672 62.227 22.2251 61.319C22.0918 58.4262 21.7525 55.4313 21.8979 51.6409C21.9828 49.4755 21.9828 49.1267 21.7767 48.5737C21.389 47.5016 19.4924 46.872 17.4323 47.2294C15.3722 47.5867 14.7602 49.2246 13.5665 51.4452C12.7667 52.9469 11.5488 55.6185 10.337 58.2135C9.19786 60.8979 7.86484 64.1693 7.86484 64.1693L7.61642 64.8542C7.53159 65.0797 7.45282 65.3052 7.36799 65.5349C7.07109 66.0922 6.97414 66.2028 6.76207 66.2411C6.55 66.2794 6.44699 66.1645 6.3864 65.9943C6.27569 64.7863 6.25344 63.5751 6.31975 62.3655C6.39852 60.0513 6.71965 57.5371 7.02867 55.2867C7.20439 53.6659 7.79819 50.8241 7.97391 49.2033C8.04056 48.714 8.10115 48.1993 8.11326 47.8505C8.15568 46.8167 8.05268 46.319 7.41041 45.8042C6.40458 45.1831 5.18062 45.2299 3.77489 45.4596C1.49663 45.8212 -0.21206 46.8125 -0.0121066 47.357C0.061499 47.4573 0.150921 47.5515 0.25449 47.6378C0.557344 47.907 0.783627 48.2146 0.921005 48.5439C1.11947 49.1777 1.20092 49.8268 1.16337 50.4753C1.10884 51.3261 1.06036 52.1514 1.01189 52.9895C0.721048 55.5207 0.290846 60.0768 0.169662 63.1994C0.0797488 65.6125 0.191026 68.0273 0.502919 70.4314C0.6329 71.4507 0.890401 72.46 1.27244 73.4476C1.66023 74.5026 2.42368 75.6682 3.73853 75.9064C4.74239 76.0729 5.79291 76.036 6.76812 75.8001C7.94967 75.5831 9.74319 74.7919 10.137 73.5411C10.6379 72.1458 11.1429 70.7519 11.6518 69.3593C12.1002 67.8704 13.1182 65.2371 13.9846 62.9484C14.4875 61.5871 15.1359 60.0641 15.4873 59.2771C15.6933 58.8772 15.7963 58.7666 15.9296 58.7453C16.0629 58.724 16.1417 58.7453 16.172 58.8389C16.2019 58.9209 16.2162 59.0053 16.2144 59.0899C16.2144 59.1835 16.2144 59.2771 16.2144 59.3749C16.2144 59.6599 16.2144 59.9449 16.2447 60.2257C16.3416 63.0249 17.1051 67.8364 17.8201 69.806C18.2927 71.0823 18.426 72.6861 21.2496 72.9796C22.0607 73.0627 22.8878 73.0206 23.6733 72.8562C25.7576 72.4095 26.2969 71.58 26.7695 70.1293C27.0725 69.2189 28.0117 66.726 28.5328 65.0924C28.6842 64.599 28.8418 64.1268 28.9932 63.6673C29.9306 63.8135 30.8795 63.9201 31.835 63.9864C31.8364 64.0976 31.8506 64.2086 31.8774 64.3182C31.8774 64.4118 31.9138 64.4969 31.9259 64.5777C31.938 64.6585 31.9744 64.8117 32.0107 64.9393C32.0471 65.0669 32.1137 65.2626 32.1622 65.4243C32.4217 66.191 32.8954 66.914 33.5558 67.5513C34.1044 68.0818 34.817 68.5182 35.6402 68.8276C36.7547 69.1677 37.9795 69.2898 39.1848 69.1807C39.3678 69.1787 39.5502 69.1659 39.7301 69.1424H39.8331L40.1058 69.1041C40.2997 69.0743 40.5421 69.0318 40.7117 68.9935C42.7961 68.5681 45.4803 67.2918 46.4437 65.369C46.6006 65.1358 46.6753 64.8796 46.6616 64.622C46.6479 64.3643 46.5462 64.1128 46.365 63.8885C46.2439 63.7512 46.0755 63.6376 45.8753 63.558C45.6752 63.4785 45.4497 63.4356 45.2198 63.4333C45.0736 63.4365 44.9278 63.4465 44.7835 63.4631C43.968 63.5896 43.2114 63.8589 42.584 64.2459C42.09 64.5479 41.5063 64.7688 40.8753 64.8925C40.3297 65.0017 39.748 64.9808 39.2212 64.8329C39.0246 64.7802 38.848 64.6963 38.7051 64.5879C38.5622 64.4794 38.4568 64.3493 38.3971 64.2076C38.2761 63.9716 38.1987 63.7257 38.1669 63.4759C39.454 63.2294 40.68 62.8464 41.8024 62.34C43.0718 61.7581 44.2199 61.0551 45.2137 60.2512C46.2109 59.4472 47.0467 58.5512 47.698 57.5882C48.3759 56.5782 48.7963 55.4925 48.9401 54.3806C49.0508 53.7134 48.9281 53.0373 48.5826 52.4109C48.3131 51.9605 47.8704 51.5717 47.3041 51.2878" fill="#DD1438"/>
<path d="M34.5435 30.1319C35.0767 30.3276 35.6826 30.3872 35.519 30.4595C34.8957 30.5468 34.2484 30.4695 33.7012 30.2425C33.4831 30.149 33.4043 30.3659 33.5982 30.5403C33.6948 30.6406 33.8088 30.732 33.9375 30.8126C34.83 31.3518 35.8834 31.7437 37.0201 31.9594C38.1567 32.1751 39.3478 32.2092 40.5057 32.0591C41.6602 33.3191 43.0162 34.4824 44.5472 35.5262C49.8399 39.1275 56.953 41.1058 64.3226 41.026C71.6922 40.9462 78.715 38.8149 83.8471 35.1008C85.143 34.1623 86.3039 33.1363 87.313 32.0378C88.4849 32.1997 89.694 32.1724 90.8487 31.958C92.0034 31.7435 93.0735 31.3475 93.9781 30.7998C94.1094 30.7215 94.2255 30.6314 94.3235 30.5318C94.5173 30.3532 94.4325 30.1362 94.2205 30.2298C93.6736 30.4575 93.0268 30.5362 92.4027 30.451C92.2391 30.3787 92.839 30.3149 93.3782 30.1192C96.2685 29.0982 95.7474 25.8651 94.887 26.5457C94.5656 26.8907 94.123 27.1718 93.6019 27.3618C93.0808 27.5518 92.4988 27.6444 91.9119 27.6305C93.3176 26.4819 93.457 24.8696 92.9662 25.1546C92.316 25.7634 91.5447 26.3035 90.6758 26.7584C91.3853 24.9581 91.724 23.0958 91.6817 21.2281C91.6379 18.6645 90.8698 16.1325 89.422 13.7789C87.9742 11.4253 85.8754 9.2969 83.2472 7.51699C81.4715 6.31109 79.4794 5.27284 77.3214 4.42849C76.1519 2.93955 74.6856 1.85474 72.0499 1.4506C71.0872 1.29447 70.0781 1.36472 69.1778 1.65055C69.0973 1.42226 68.937 1.21169 68.7113 1.03795C67.6024 0.263699 65.5908 0.187125 64.6031 0.0552475C62.887 -0.0607895 61.1555 0.0211244 59.477 0.297736C55.2659 1.04646 52.3878 2.48436 50.3034 4.50082C44.8858 6.64066 40.6424 9.9906 38.2479 14.0181C35.8534 18.0456 35.4453 22.5196 37.0883 26.7286C36.2874 26.2842 35.5689 25.7711 34.9494 25.2014C34.4647 24.9164 34.604 26.5244 36.0037 27.6731C35.4174 27.6874 34.8358 27.5955 34.3147 27.4062C33.7936 27.217 33.3508 26.9368 33.0287 26.5925C32.1743 25.9161 31.6532 29.145 34.5435 30.166" fill="white"/>
<path d="M128.316 66.3899H128.473C128.655 66.3899 128.8 66.3474 128.8 66.2453C128.8 66.1432 128.703 66.0922 128.497 66.0922C128.437 66.0857 128.376 66.0857 128.316 66.0922V66.3899ZM128.316 66.9515H127.982V65.9518C128.163 65.9346 128.345 65.9247 128.528 65.922C128.698 65.9087 128.869 65.9373 129.012 66.0028C129.067 66.032 129.109 66.0717 129.133 66.1172C129.157 66.1627 129.161 66.212 129.146 66.2592C129.13 66.3065 129.096 66.3496 129.046 66.3833C128.997 66.4171 128.935 66.4401 128.867 66.4495C129.006 66.4793 129.073 66.5601 129.115 66.692C129.134 66.777 129.169 66.86 129.218 66.9387H128.873C128.819 66.8608 128.782 66.7776 128.764 66.692C128.734 66.5899 128.649 66.5388 128.467 66.5388H128.316V66.9515ZM128.528 65.637C128.227 65.637 127.939 65.7208 127.726 65.87C127.514 66.0192 127.395 66.2215 127.395 66.4325C127.395 66.6435 127.514 66.8458 127.726 66.995C127.939 67.1442 128.227 67.228 128.528 67.228C128.673 67.2269 128.816 67.2055 128.95 67.1649C129.083 67.1243 129.204 67.0655 129.304 66.9917C129.405 66.918 129.483 66.831 129.535 66.7356C129.587 66.6403 129.611 66.5387 129.606 66.4367C129.611 66.334 129.587 66.2316 129.535 66.1356C129.482 66.0395 129.404 65.9517 129.303 65.8772C129.202 65.8028 129.081 65.7432 128.946 65.7019C128.812 65.6607 128.668 65.6386 128.522 65.637H128.528ZM128.528 65.437C128.905 65.437 129.267 65.5423 129.534 65.7298C129.801 65.9173 129.952 66.1716 129.952 66.4367C129.952 66.7019 129.801 66.9562 129.534 67.1436C129.267 67.3311 128.905 67.4365 128.528 67.4365C128.15 67.4365 127.788 67.3311 127.521 67.1436C127.254 66.9562 127.104 66.7019 127.104 66.4367C127.104 66.1716 127.254 65.9173 127.521 65.7298C127.788 65.5423 128.15 65.437 128.528 65.437Z" fill="black"/>
<path d="M63.876 3.56069C57.9332 3.55852 52.1743 5.00736 47.5859 7.65896C42.9975 10.3106 39.8653 13.9999 38.7258 18.0949C37.5862 22.1899 38.5104 26.4356 41.34 30.1047C44.1695 33.7738 48.7282 36.6379 54.2352 38.2063C59.7422 39.7747 65.8546 39.9498 71.5252 38.7015C77.1958 37.4532 82.0716 34.8593 85.3174 31.3642C88.5632 27.8691 89.9768 23.6903 89.3161 19.5438C88.6555 15.3972 85.9616 11.541 81.6961 8.63586C76.9326 5.37016 70.5337 3.54775 63.876 3.56069ZM63.876 41.0438C57.467 41.0432 51.2555 39.4869 46.294 36.6386C41.3325 33.7903 37.9262 29.8253 36.6524 25.4154C35.3786 21.0054 36.3157 16.4219 39.3047 12.4416C42.2938 8.46128 47.151 5.32895 53.0533 3.57545C58.9556 1.82194 65.5399 1.55513 71.6903 2.82021C77.8407 4.08529 83.179 6.80445 86.8005 10.5169C90.422 14.2293 92.1039 18.7067 91.5612 23.1902C91.0185 27.6737 88.2847 31.8876 83.8229 35.1178C81.2362 36.9963 78.1366 38.4893 74.7093 39.5076C71.282 40.5258 67.5975 41.0483 63.876 41.0438Z" fill="#2F1E18"/>
<path d="M94.2205 30.251C93.6721 30.4757 93.0261 30.5529 92.4027 30.468C92.2391 30.3957 92.839 30.3319 93.3782 30.1362C96.2685 29.1152 95.7474 25.882 94.893 26.5627C94.5707 26.9081 94.1271 27.1893 93.6049 27.3793C93.0828 27.5693 92.4997 27.6617 91.9119 27.6475C93.3177 26.4989 93.457 24.8866 92.9662 25.1758C91.9604 25.9076 90.1972 28.4217 82.4959 27.5496C82.7116 27.3567 82.9444 27.1734 83.1927 27.0009C82.7001 26.7872 82.2852 26.4959 81.9809 26.15C80.7994 24.844 79.7996 24.6228 79.1937 24.5037C80.1089 23.8787 80.8669 23.1494 81.4356 22.3469C82.8477 20.1186 83.3813 17.665 82.9807 15.2425C82.7248 13.3871 81.981 11.5812 80.7872 9.91629C79.1088 7.71691 77.4668 3.701 71.8196 2.3567C70.8754 2.27831 69.9188 2.38584 69.0566 2.66725C68.9597 2.52687 68.0023 1.97383 67.9054 1.85046C67.2995 1.46758 65.5423 1.13151 64.7546 0.948583C63.1368 0.927312 61.725 0.646538 59.9073 0.986869C52.3333 2.42051 48.9522 5.07934 46.7164 9.96308C46.4807 10.6626 46.3207 11.3737 46.2377 12.0901C46.3104 11.954 43.7777 17.344 45.4561 20.3006C45.7651 20.5474 45.7954 21.0238 46.1105 21.2663C46.9042 22.5766 48.1827 23.3934 48.9462 24.576C46.4619 24.6483 45.5894 27.3114 45.5167 27.5539C37.7246 28.46 35.9492 25.9246 34.9373 25.1886C34.4526 24.9036 34.592 26.5116 35.9916 27.6603C35.4052 27.6754 34.823 27.5839 34.3018 27.3946C33.7805 27.2052 33.3378 26.9245 33.0166 26.5797C32.1622 25.9033 31.6411 29.1322 34.5253 30.1532C35.0646 30.3446 35.6705 30.4084 35.5069 30.4807C34.8836 30.5684 34.2361 30.4911 33.6891 30.2638C33.4589 30.1617 33.3741 30.4169 33.6285 30.5999C41.0632 34.067 44.4927 30.2553 45.6257 30.1447C49.7218 30.97 56.9928 28.9365 53.7693 27.1668C52.8907 26.2053 51.5698 24.5505 51.5153 22.6446C51.3396 21.5768 51.5153 21.245 49.8369 21.3429C50.4428 20.0411 51.0487 18.901 50.4428 16.9271C50.3253 16.9638 50.22 17.0174 50.1338 17.0845C53.4421 14.817 59.9557 14.532 63.5246 12.0731C63.9851 11.5116 65.8089 11.3202 66.2452 10.7373C65.8453 12.7708 64.5486 14.566 61.8644 16.357C63.0699 16.3345 64.2428 16.0767 65.2515 15.6126C67.8145 14.3363 69.0142 12.7708 70.7775 11.4265C70.7775 11.3584 71.2743 11.0564 71.2561 10.9713C71.6565 11.1336 72.0084 11.3489 72.2923 11.6052C74.3827 13.8726 72.6861 13.3068 74.9946 15.3743C75.1279 15.4849 75.3764 15.9529 75.5097 16.0678C75.8976 16.6625 76.3599 17.232 76.8912 17.7694C77.7213 18.1693 77.5516 18.85 78.0424 20.0028C77.897 21.4365 77.4789 22.5553 76.1156 23.1934C76.0429 24.4441 74.5402 27.3412 74.5402 27.3412C74.6735 27.6305 72.9648 29.5448 77.0063 30.1234C78.3513 30.2239 79.7106 30.1679 81.0296 29.9575C81.1452 29.343 81.4313 28.7504 81.8718 28.2133C81.8384 28.3896 81.8202 28.5672 81.8173 28.7451C81.8192 29.229 81.9444 29.7087 82.1869 30.1617L82.3081 30.1362C83.4412 30.2468 86.8646 34.0627 94.3053 30.5956C94.5537 30.4127 94.4749 30.1702 94.2447 30.2595" fill="#DD1438"/>
<path d="M73.0315 34.3605C72.7295 33.967 72.5576 33.5308 72.5286 33.0843C72.4661 32.9991 72.36 32.9338 72.2317 32.9014V33.4161L70.9289 33.0417C70.7856 33.2074 70.7319 33.4037 70.7775 33.5948C70.9851 34.6672 71.6481 35.6708 72.68 36.4748C72.7831 36.5586 72.9105 36.6258 73.0537 36.672C73.1969 36.7183 73.3525 36.7424 73.5101 36.7428C73.6558 36.755 73.8036 36.7416 73.94 36.7037C74.0765 36.6658 74.1973 36.6047 74.2918 36.5259C74.7584 36.0409 73.5889 35.2879 73.0194 34.369" fill="#24ACE9"/>
<path d="M59.6043 34.9393L58.9014 34.3862C58.4167 36.5133 57.3079 37.0536 57.6593 37.5896C57.7509 37.7086 57.8743 37.814 58.0228 37.9001C58.1705 37.9661 58.3391 38.0056 58.5136 38.015C58.6427 38.02 58.7718 38.0046 58.8913 37.97C59.0108 37.9354 59.1178 37.8825 59.2044 37.8151C60.0162 37.023 60.5573 36.1103 60.7858 35.1477C60.8188 34.9869 60.8188 34.8236 60.7858 34.6627L59.6043 34.9393Z" fill="#24ACE9"/>
<path d="M57.1927 33.9353L56.0415 33.7396L55.9021 33.2461C55.8098 33.3184 55.7304 33.3984 55.6658 33.4843C55.5156 33.943 55.292 34.3882 54.9993 34.8116C54.5024 35.5944 53.0301 36.4112 54.5267 36.7217C54.6957 36.7564 54.8749 36.7584 55.0454 36.7278C55.216 36.6971 55.3717 36.6347 55.4961 36.5473C56.3929 35.9772 57.217 34.684 57.5805 33.9012C57.6412 33.7619 57.6878 33.6197 57.7199 33.4758L57.1927 33.9353Z" fill="#24ACE9"/>
<path d="M68.9355 34.9688L67.5721 34.4626C67.8075 35.6359 68.4074 36.7586 69.3293 37.751C69.5215 37.9039 69.7823 38.0059 70.0685 38.0403C70.2405 38.0489 70.4125 38.0239 70.5654 37.968C70.5654 37.968 70.9289 37.8489 71.0138 37.6787C71.2925 37.1342 70.0019 36.2323 69.6686 34.1946L68.9355 34.9688Z" fill="#24ACE9"/>
<path d="M63.4822 38.2361C64.9122 38.4914 66.1846 37.7171 66.2149 37.4533C66.0025 37.0019 65.6625 36.5851 65.2151 36.2282C65.0078 36.0979 64.7542 36.0095 64.4812 35.972C64.2082 35.9346 63.9258 35.9496 63.664 36.0154C63.3169 36.1367 63.0187 36.3169 62.7964 36.5399C62.5742 36.7628 62.435 37.0213 62.3915 37.2917C62.3915 37.7554 63.4822 38.2361 63.4822 38.2361Z" fill="#24ACE9"/>
<path d="M53.6966 13.0772C57.7562 12.2264 59.4467 9.97172 63.2519 8.11267C62.5676 8.20544 61.9116 8.38106 61.313 8.63167C59.3358 9.41738 57.4222 10.2795 55.581 11.2139C54.0765 11.9901 52.4501 12.6425 50.7336 13.1581C50.7336 13.1581 51.7394 13.5452 53.7087 13.0772H53.6966ZM72.0438 1.44645C71.0805 1.29165 70.0714 1.36339 69.1718 1.65064C69.095 1.42011 68.9342 1.20755 68.7052 1.0338C67.5903 0.259551 65.5847 0.182978 64.5971 0.0510998C62.881 -0.0649372 61.1494 0.0169637 59.471 0.293575C52.1212 1.60385 48.8432 4.97313 46.7467 9.92919C46.2515 11.1705 45.8889 12.4361 45.6621 13.7154C44.7532 15.183 43.0263 18.982 46.5709 22.649C47.2072 23.3127 49.3097 25.1547 49.8611 26.1629C50.6185 28.592 46.2256 27.1414 43.196 29.3238C42.2804 30.0436 41.1201 30.589 39.8232 30.9088C38.5263 31.2287 37.1352 31.3127 35.7795 31.153C34.988 31.0851 34.2358 30.8724 33.5982 30.5362C33.6955 30.6374 33.8116 30.7289 33.9436 30.8084C35.374 31.6608 37.1854 32.1332 39.0614 32.1433C40.9375 32.1535 42.759 31.7006 44.2079 30.8637C44.7835 30.5192 44.8138 30.3022 46.7406 30.298C50.1338 30.298 53.1755 30.1235 54.9448 28.3113C53.5693 27.035 52.9513 26.6096 52.4181 25.8269C52.3768 25.2821 52.1702 24.7498 51.8121 24.2656C51.5274 21.811 51.1638 21.4877 51.2062 20.2582C51.0669 18.6842 51.1699 16.8549 53.4906 16.1955C55.8112 15.5361 56.4535 15.7318 60.4283 14.2812C67.7721 11.6096 67.9478 8.32538 67.1904 7.92124C66.136 9.18745 64.828 10.3408 63.3064 11.3458C60.0587 13.3282 55.9203 14.0684 51.5516 15.2298C47.1829 16.3912 46.6315 17.5739 46.6315 17.5739C45.5288 13.1496 49.2673 10.5886 49.2673 10.5886C48.8916 10.4992 47.0072 12.0818 46.171 12.9922C46.8035 10.888 47.8218 8.8503 49.2006 6.93002C49.6363 6.40281 50.1222 5.89684 50.6548 5.41555C51.6282 4.58203 52.7861 3.86383 54.0843 3.28849C55.2402 2.71434 56.527 2.28275 57.8895 2.01225C61.1615 1.40391 66.0634 1.45495 68.0084 2.60782C68.3531 2.83364 68.6168 3.11354 68.7779 3.42462C69.2892 3.21604 69.8267 3.04088 70.3836 2.90136C71.3106 2.75573 72.2797 2.82438 73.1466 3.09706C77.0063 4.29672 77.9091 7.35119 80.8236 9.90366C77.9455 5.76865 77.3517 2.26749 72.0681 1.42517L72.0438 1.44645ZM77.4183 11.0267C79.0785 12.5582 83.1443 15.2298 82.7444 19.4457C83.087 18.6491 83.2405 17.8184 83.1988 16.9868C82.9382 10.7715 77.9576 10.529 74.1766 5.40705C74.1766 5.40705 73.6071 7.51284 77.4183 11.0267ZM94.3235 30.5574C94.2255 30.657 94.1094 30.7471 93.9781 30.8255C92.5472 31.6789 90.7346 32.152 88.8572 32.1621C86.9798 32.1722 85.1571 31.7187 83.7078 30.8808C83.5328 30.7287 83.3148 30.6037 83.0677 30.5137C82.8206 30.4236 82.5496 30.3704 82.2717 30.3575C81.9567 29.8487 81.7938 29.3 81.7931 28.7452C81.7949 28.5657 81.8152 28.3866 81.8537 28.2092C81.4973 28.6405 81.2396 29.1085 81.0902 29.596C80.9872 29.596 80.8781 29.7151 80.7691 29.7407C77.0608 30.7489 74.8129 30.0682 73.3465 28.039C73.4798 27.9071 74.2554 27.1882 74.3584 27.0648C75.1399 25.903 75.6298 24.6553 75.8066 23.3765C76.2247 20.9006 76.2125 20.3305 76.3398 19.7222C76.5337 18.5438 76.5276 18.2375 76.1701 17.3952C75.868 16.7914 75.4739 16.2123 74.9946 15.668C73.9822 14.6892 73.073 13.6598 72.2741 12.588C71.9296 12.1453 71.6611 11.6755 71.4742 11.1884C70.5508 12.6489 69.1395 13.9316 67.36 14.9278C64.9909 16.1615 63.1731 16.5571 61.8341 16.3869C63.8821 15.5744 65.9907 14.6853 67.5479 12.8943C68.8691 11.3558 69.7481 9.65033 70.1352 7.87443C70.3527 7.89334 70.5606 7.94879 70.7411 8.03609C71.3752 8.36816 71.8164 8.85026 71.9832 9.39316C72.2958 10.1667 72.6783 10.9255 73.1284 11.6649C74.1403 13.2772 75.1098 14.0472 77.1638 15.3787C79.2179 16.7103 81.1265 18.5225 80.3873 21.2324C79.9571 22.8064 78.9513 23.7849 77.8425 25.1164C77.49 25.5539 77.3516 26.0605 77.4486 26.5586C77.7576 28.0092 79.8056 27.2222 82.3808 27.6646C82.202 27.8303 82.038 28.0036 81.89 28.1837C82.9646 28.3966 83.9445 28.7977 84.7378 29.3493C85.6511 30.0702 86.81 30.6166 88.1061 30.9373C89.4022 31.258 90.793 31.3425 92.1482 31.1828C92.9374 31.1081 93.6863 30.8928 94.3235 30.5574Z" fill="#9C0B2B"/>
<path d="M77.2789 17.7525C76.8245 17.6801 76.6367 17.8461 76.4306 18.1523C76.3729 17.8885 76.2858 17.6282 76.1701 17.3738C75.8639 16.7781 75.4699 16.2063 74.9946 15.6679C73.9785 14.69 73.0671 13.6605 72.268 12.588C71.9235 12.1453 71.655 11.6754 71.4682 11.1883C70.5447 12.6488 69.1335 13.9315 67.354 14.9277C64.9848 16.1614 63.1671 16.5571 61.828 16.3869C64.3728 14.6852 65.6695 12.9836 66.1421 11.0735C65.0939 12.1072 63.3125 13.2601 60.4041 14.3151C56.4293 15.7658 55.8052 15.5573 53.4724 16.2295C51.8182 16.7102 51.291 17.7695 51.1759 18.9053C51.1759 18.7267 51.1274 18.5607 51.0972 18.4289C51.0547 17.778 50.8003 17.7907 50.8003 17.7907C50.8003 17.7907 49.3339 17.7907 49.237 19.3307C49.1628 19.8579 49.3036 20.3891 49.6429 20.8622C49.8611 21.2238 50.1156 21.679 50.4428 21.7896C51.0002 21.9768 51.2486 21.8492 51.3395 21.7896C51.3429 21.8336 51.3429 21.8776 51.3395 21.9215C51.3535 21.9664 51.3636 22.0119 51.3698 22.0576C51.3698 22.1214 51.4001 22.1938 51.4183 22.2661C51.8788 24.3293 52.309 25.5716 53.0603 26.3586L53.2542 26.6734C53.4178 26.8691 53.5754 27.0477 53.7208 27.2094C53.9214 27.3011 54.0943 27.4197 54.2295 27.5584C54.3646 27.6971 54.4595 27.8532 54.5085 28.0177L54.5994 28.0985L54.8902 28.358L54.8599 28.3835L55.0902 28.5282C55.3672 28.741 55.667 28.9387 55.9869 29.1195L55.8112 33.1184L55.999 33.7735L57.1503 33.965L57.7017 33.4587L59.5618 34.9732L61.1797 34.5775C61.4415 34.656 61.6847 34.7622 61.9007 34.8923C62.6641 35.2107 63.4554 35.4949 64.2698 35.7432L65.209 35.4837L66.4209 34.8541L66.9056 34.2798L68.8809 35.0157L70.7532 33.0333L72.2195 33.4587L72.1165 28.9281C72.3043 28.7919 72.48 28.6515 72.6436 28.5027C73.255 28.0442 73.8257 27.5597 74.3523 27.052C74.3523 27.0265 74.3887 26.9924 74.4069 26.9584L74.4675 26.8648C74.4749 26.8471 74.4851 26.83 74.4978 26.8138C74.5175 26.788 74.5338 26.7609 74.5462 26.7329C74.5649 26.7068 74.5811 26.6798 74.5947 26.6521L74.6432 26.5755L74.6977 26.4777L74.7401 26.4011L74.8068 26.2862C74.8183 26.26 74.8325 26.2344 74.8492 26.2097C74.8492 26.1671 74.8916 26.1203 74.9158 26.0735C74.9314 26.0489 74.9436 26.0232 74.9522 25.997C74.9522 25.9502 75.0007 25.8991 75.031 25.8481C75.0376 25.8214 75.0498 25.7956 75.0673 25.7715C75.0673 25.7162 75.1158 25.6651 75.134 25.6098C75.1508 25.5822 75.165 25.5538 75.1764 25.5248C75.1764 25.4695 75.2249 25.4099 75.243 25.3503L75.2794 25.2653L75.3521 25.0823C75.3499 25.0511 75.3499 25.0199 75.3521 24.9887C75.3521 24.9292 75.3945 24.8654 75.4127 24.8016L75.4491 24.6995L75.5036 24.5038L75.5399 24.3974C75.5399 24.3293 75.5702 24.2613 75.5884 24.189C75.6066 24.1166 75.5884 24.1166 75.5884 24.0783C75.5884 24.0401 75.6187 23.9252 75.6308 23.8486C75.6338 23.8161 75.6338 23.7834 75.6308 23.7508C75.6308 23.6402 75.6672 23.5253 75.6854 23.4105C75.7944 22.7553 75.8793 22.2321 75.9398 21.8066C76.0974 21.8832 76.4609 21.9768 76.9457 21.6237C77.5516 21.2791 78.0606 20.2581 78.0363 19.4328C78.0363 18.7054 77.7637 17.9099 77.1577 17.8078" fill="#FCD3D7"/>
<path d="M46.6315 26.7882C46.6286 26.5003 46.5695 26.214 46.4558 25.9373C46.3043 25.4056 46.1529 25.0482 45.8499 24.1208C45.4863 23.0148 44.4745 22.9765 44.1048 22.9935C43.0854 23.1311 42.1253 23.4325 41.2995 23.8741C40.2512 24.4356 40.233 24.8483 40.3663 25.1503C40.627 25.5868 40.9649 25.9984 41.3722 26.3755C42.4871 27.3412 44.1654 27.5837 43.4686 27.924C43.2626 28.0814 43.3172 28.3494 43.5595 28.945C43.7041 29.2594 43.8929 29.563 44.123 29.8511C44.3109 30.0298 44.4745 30.3787 45.1894 30.4254C45.3652 30.4254 45.5833 30.4254 45.5348 30.5063C45.4401 30.6636 45.3946 30.8333 45.4015 31.004C45.5519 31.4048 45.7547 31.795 46.0074 32.1696C46.2135 32.5355 46.7042 34.1776 47.7949 34.1606C48.2762 34.1484 48.7522 34.0853 49.2067 33.9734C50.2186 33.7607 51.491 33.1736 51.6304 32.6972C51.8606 32.0335 51.2547 31.757 50.9396 31.4507C50.3337 31.0253 49.0249 30.1064 48.6432 29.8214C48.5523 29.7533 48.4432 29.6895 48.3099 29.6001C47.9403 29.3406 48.1281 29.2683 48.3099 29.0982C48.5099 28.8089 47.9221 27.9878 47.7707 27.8219C47.5283 27.5582 47.1163 27.2561 46.7527 27.2519C45.9893 27.1625 46.6558 27.12 46.6558 26.8009" fill="#24ACE9"/>
<path d="M46.1105 29.9661C46.6123 29.8652 47.0772 29.6897 47.4738 29.4514C47.5889 29.3876 47.8858 29.4982 47.6131 29.8215C47.498 29.9491 47.3162 29.8895 47.3526 30.1788C47.4011 30.5574 48.5341 31.1232 47.7707 31.2338C47.0072 31.3444 46.68 30.4298 46.6316 30.3022C46.5831 30.1746 46.268 30.3022 46.1105 30.3022C45.7833 30.3022 45.5045 30.1363 46.1105 29.9661Z" fill="#2F1E18"/>
<path d="M43.9231 26.2692C44.0201 26.7754 44.5896 27.354 45.0622 27.0349C45.3591 26.8307 44.7896 26.7754 44.3897 25.597C44.1291 24.8313 43.8504 25.8736 43.9231 26.2692Z" fill="#2F1E18"/>
<path d="M45.5651 27.4305C45.1046 27.4646 44.5472 27.4901 44.3048 27.707C44.0624 27.924 44.0261 27.9793 44.1957 28.192C44.3654 28.4047 44.4502 28.226 44.7168 28.0559C44.9484 27.9105 45.2306 27.8108 45.5348 27.7666C45.6646 27.7579 45.7889 27.7254 45.8952 27.6724C46.0015 27.6194 46.0862 27.5477 46.1407 27.4646C46.2074 27.3199 45.9771 27.3965 45.5348 27.4305" fill="white"/>
<path d="M82.6716 29.9745C83.0594 29.9745 83.6047 29.5703 83.8471 29.3151C83.9986 29.1534 84.6772 28.3281 84.2834 28.0644C84.0713 27.9155 84.0168 27.8729 84.344 27.639C84.4773 27.5496 84.5924 27.4858 84.6833 27.4177C85.0771 27.137 86.7677 25.848 87.1676 25.5417C87.3857 25.3375 88.0765 24.9546 87.7735 24.4101C87.5432 24.04 85.8891 23.4189 85.0105 23.1849C84.5588 23.0446 84.0817 22.9487 83.5926 22.8999C82.7322 22.8275 82.0415 24.6015 81.8415 24.9589C81.6415 25.3612 81.5054 25.7778 81.4356 26.2011C81.4436 26.3689 81.5057 26.5333 81.6173 26.6818C81.684 26.7584 81.4416 26.7541 81.2477 26.7669C80.9886 26.7854 80.7381 26.8429 80.5133 26.9354C80.2886 27.0279 80.0948 27.1532 79.945 27.3029C79.6671 27.5566 79.4614 27.8454 79.3391 28.1537C79.127 28.7408 79.1937 29.0045 79.4239 29.1322C80.2116 29.464 78.5332 29.6044 77.3456 30.7147C76.8918 31.0709 76.5123 31.4705 76.2186 31.9016C76.0913 32.1866 75.9883 32.5142 77.2668 33.1225C78.2082 33.5598 79.2723 33.85 80.3873 33.9734C80.7933 33.9734 81.6476 34.1478 81.9627 33.063C82.2293 32.1526 82.3202 31.8761 82.4414 31.4719C82.5576 31.1367 82.6005 30.791 82.5686 30.4467C82.5323 30.1829 81.8961 30.0213 82.6838 29.9872" fill="#24ACE9"/>
<path d="M81.5992 29.847C80.4479 29.7959 80.4843 29.7194 80.1025 29.5364C79.9814 29.4811 79.4966 29.6556 79.8359 29.881C79.9521 29.9484 80.0403 30.0365 80.0915 30.136C80.1426 30.2355 80.1548 30.3429 80.1268 30.4468C79.9874 30.7999 79.2543 31.4678 79.9753 31.3998C80.6963 31.3317 80.9751 30.5191 81.066 30.4C81.1061 30.3467 81.1651 30.3015 81.2372 30.2688C81.3094 30.236 81.3923 30.2167 81.478 30.2128C81.8234 30.1831 82.1869 29.8725 81.5992 29.847Z" fill="#2F1E18"/>
<path d="M83.9441 26.4648C83.7138 26.8179 83.5442 27.2901 82.8777 27.0391C82.0415 26.7286 83.0898 26.2606 83.726 25.7629C84.3622 25.2652 84.1198 26.1883 83.9441 26.4435" fill="#2F1E18"/>
<path d="M83.0292 27.5285C82.6353 27.2946 82.2354 27.0393 81.8173 27.0478C81.3992 27.0563 81.2538 27.1031 81.175 27.3371C81.0963 27.5711 81.3326 27.503 81.7082 27.537C82.0688 27.5928 82.4053 27.708 82.6898 27.8731C82.9019 27.9922 83.2958 28.0816 83.423 27.9539C83.5502 27.8263 83.3806 27.7497 83.011 27.5285" fill="white"/>
<path d="M60.4526 27.2561C60.4526 27.2561 59.8891 26.2734 59.3013 26.3032C60.3253 26.3032 61.6705 26.4436 62.6884 26.3925C62.846 26.3925 63.1732 26.2947 63.3307 26.2862C64.9121 26.1713 66.7723 26.4861 68.2265 26.1841C67.7297 26.5159 67.4267 27.3114 66.7117 27.5624C65.9967 27.8134 64.1608 27.9113 63.0762 27.8645C62.1527 27.8112 61.2611 27.6025 60.4768 27.2561" fill="white"/>
<path d="M53.8662 21.998C53.8652 21.9693 53.8728 21.9408 53.8886 21.9144C53.9043 21.8879 53.9278 21.8641 53.9575 21.8444C53.9872 21.8247 54.0225 21.8097 54.0611 21.8002C54.0996 21.7908 54.1406 21.7871 54.1813 21.7895C54.3509 21.7895 54.5751 21.8831 54.5691 22.0022C54.5667 22.0369 54.5547 22.0709 54.5336 22.1022C54.5126 22.1336 54.4829 22.1618 54.4463 22.1851C54.4097 22.2084 54.3669 22.2264 54.3204 22.2381C54.2739 22.2498 54.2246 22.2549 54.1752 22.2532C53.9692 22.2532 53.8601 22.1554 53.8662 21.998Z" fill="#DD1438"/>
<path d="M55.4355 22.7383C55.44 22.6727 55.4791 22.6107 55.5452 22.5643C55.6113 22.5179 55.6996 22.4904 55.793 22.4873C55.8924 22.4871 55.9883 22.5133 56.0613 22.5606C56.1344 22.608 56.1792 22.673 56.1869 22.7426C56.1869 22.8532 55.9809 22.9467 55.787 22.9467C55.7015 22.9504 55.6173 22.9307 55.5518 22.8919C55.4864 22.8531 55.4447 22.7981 55.4355 22.7383Z" fill="#DD1438"/>
<path d="M56.7625 21.3685C56.7625 21.2664 56.9806 21.1431 57.1806 21.1473C57.3805 21.1516 57.526 21.2664 57.5199 21.3771C57.4532 21.5557 57.3199 21.628 57.1806 21.628C56.914 21.628 56.7564 21.5515 56.7625 21.3685Z" fill="#DD1438"/>
<path d="M58.3682 22.3257C58.3682 22.1981 58.4591 22.0833 58.6833 22.0833C58.7701 22.0865 58.8518 22.1131 58.9116 22.1574C58.9713 22.2017 59.0046 22.2605 59.0044 22.3215C59.0077 22.3533 59.0018 22.3852 58.9869 22.4153C58.972 22.4454 58.9486 22.473 58.9179 22.4965C58.8873 22.52 58.8501 22.5389 58.8087 22.5519C58.7674 22.565 58.7226 22.572 58.6773 22.5725C58.6328 22.5728 58.5889 22.5664 58.5483 22.5536C58.5078 22.5409 58.4716 22.5222 58.4423 22.4988C58.4129 22.4754 58.3911 22.4478 58.3784 22.4179C58.3656 22.3881 58.3621 22.3566 58.3682 22.3257Z" fill="#DD1438"/>
<path d="M59.9315 21.1516C59.9297 21.1207 59.9372 21.0899 59.9534 21.0612C59.9696 21.0325 59.9942 21.0064 60.0256 20.9848C60.0569 20.9632 60.0944 20.9464 60.1356 20.9355C60.1768 20.9247 60.2208 20.92 60.2647 20.9218C60.3083 20.9194 60.3522 20.9235 60.3934 20.9338C60.4346 20.9442 60.4722 20.9606 60.5037 20.9819C60.5352 21.0032 60.5598 21.029 60.5761 21.0575C60.5924 21.086 60.5998 21.1166 60.598 21.1473C60.5989 21.1789 60.5905 21.2103 60.5733 21.2396C60.5561 21.2688 60.5305 21.2953 60.498 21.3172C60.4656 21.3392 60.4271 21.3562 60.3848 21.3672C60.3426 21.3783 60.2976 21.383 60.2526 21.3813C60.2097 21.3819 60.167 21.3763 60.1273 21.3649C60.0875 21.3535 60.0515 21.3366 60.0214 21.3151C59.9914 21.2935 59.9679 21.2679 59.9524 21.2398C59.9369 21.2117 59.9298 21.1817 59.9315 21.1516Z" fill="#DD1438"/>
<path d="M67.3358 21.1984C67.3721 21.0623 67.4691 20.9857 67.6811 21.0112C67.7682 21.0254 67.845 21.0612 67.8974 21.112C67.9497 21.1628 67.9741 21.2253 67.9659 21.2877C67.9296 21.4111 67.7599 21.4579 67.56 21.4281C67.5229 21.4247 67.4872 21.4158 67.4553 21.4021C67.4235 21.3883 67.3961 21.37 67.3749 21.3484C67.3538 21.3267 67.3394 21.3021 67.3326 21.2763C67.3259 21.2505 67.3269 21.2239 67.3358 21.1984Z" fill="#DD1438"/>
<path d="M69.4505 21.4919C69.4595 21.4393 69.4962 21.391 69.5534 21.3563C69.6105 21.3217 69.684 21.3033 69.7595 21.3048C69.8014 21.3099 69.8414 21.3208 69.8773 21.3369C69.9131 21.3529 69.9441 21.3739 69.9683 21.3984C69.9926 21.4229 70.0096 21.4506 70.0185 21.4798C70.0274 21.509 70.0279 21.5392 70.0201 21.5685C70.0142 21.5981 69.9999 21.6266 69.9779 21.6523C69.9559 21.6779 69.9268 21.7001 69.8923 21.7176C69.8577 21.7351 69.8185 21.7475 69.7769 21.7541C69.7353 21.7606 69.6923 21.7612 69.6504 21.7557C69.6123 21.7479 69.5768 21.7349 69.5461 21.7173C69.5153 21.6998 69.4898 21.6781 69.4711 21.6535C69.4525 21.6289 69.4411 21.6019 69.4375 21.5742C69.434 21.5464 69.4384 21.5185 69.4505 21.4919Z" fill="#DD1438"/>
<path d="M72.2619 21.309C72.3043 21.1728 72.4498 21.109 72.7043 21.143C72.7462 21.1456 72.7868 21.1547 72.8232 21.1697C72.8595 21.1846 72.8907 21.205 72.9145 21.2294C72.9382 21.2538 72.954 21.2816 72.9606 21.3109C72.9672 21.3401 72.9645 21.3699 72.9527 21.3983C72.9103 21.5429 72.783 21.6536 72.5831 21.628C72.5306 21.6242 72.48 21.6126 72.4345 21.5939C72.389 21.5752 72.3498 21.5499 72.3194 21.5197C72.2889 21.4894 72.2681 21.455 72.2582 21.4187C72.2483 21.3823 72.2495 21.3449 72.2619 21.309Z" fill="#DD1438"/>
<path d="M70.632 22.3809C70.6683 22.2277 70.8501 22.1596 71.0925 22.1852C71.1808 22.2004 71.2572 22.239 71.3058 22.2929C71.3544 22.3469 71.3713 22.4119 71.353 22.4745C71.3367 22.535 71.2882 22.589 71.2173 22.6253C71.1464 22.6617 71.0584 22.6777 70.9713 22.6701C70.9213 22.6681 70.8724 22.6589 70.8277 22.6429C70.783 22.627 70.7434 22.6048 70.7116 22.5776C70.6797 22.5504 70.6562 22.5189 70.6425 22.4851C70.6288 22.4512 70.6252 22.4157 70.632 22.3809Z" fill="#DD1438"/>
<path d="M72.8315 22.4746C72.8396 22.4417 72.8578 22.4103 72.8846 22.3826C72.9115 22.355 72.9465 22.3317 72.9873 22.3144C73.028 22.297 73.0737 22.286 73.121 22.2821C73.1683 22.2782 73.2163 22.2815 73.2617 22.2917C73.3077 22.2941 73.3524 22.3033 73.393 22.3188C73.4336 22.3342 73.469 22.3554 73.4971 22.3811C73.5251 22.4068 73.5451 22.4364 73.5557 22.4679C73.5663 22.4994 73.5673 22.5322 73.5586 22.564C73.5382 22.6275 73.4845 22.6834 73.4082 22.7204C73.3319 22.7574 73.2385 22.773 73.1466 22.7639C73.0984 22.7603 73.0517 22.7498 73.0094 22.7331C72.967 22.7164 72.93 22.6939 72.9005 22.6668C72.8711 22.6397 72.8497 22.6087 72.8379 22.5757C72.826 22.5427 72.8238 22.5083 72.8315 22.4746Z" fill="#DD1438"/>
<path d="M57.423 18.1906C56.9481 18.2862 56.5098 18.4555 56.1407 18.6859C55.7715 18.9164 55.4808 19.2022 55.2902 19.5222C55.2902 19.6838 55.8961 19.854 55.8961 19.9178C56.4205 19.9223 56.9447 19.9024 57.4654 19.8583C58.5985 19.8583 59.8891 19.5009 59.568 19.0457C59.568 19.0457 58.4712 17.9864 57.4291 18.1949" fill="white"/>
<path d="M72.1165 19.5648C72.4074 19.2415 71.1289 18.0376 70.2988 18.0929C69.8647 18.1183 69.4471 18.2211 69.0855 18.3916C68.7239 18.5621 68.4303 18.7946 68.2326 19.0671C68.1962 19.1054 68.2326 19.2883 68.2326 19.3351C68.5355 19.6967 69.4081 19.9562 70.4321 19.952C70.7447 19.9521 71.0561 19.925 71.3591 19.8711C71.3591 19.6499 71.8378 19.8711 72.1226 19.5648" fill="white"/>
<path d="M63.7669 38.0745C64.1239 38.1594 64.5139 38.1428 64.8537 38.0283C65.1934 37.9138 65.4558 37.7105 65.5847 37.4619C65.659 37.1909 65.5924 36.9101 65.3969 36.6706C65.2569 36.4911 65.0466 36.3435 64.7909 36.2452C64.5033 36.1281 64.1611 36.0959 63.8396 36.1559L63.7003 36.1984C62.8399 36.4324 62.3309 37.8278 63.7851 38.0873L63.7669 38.0745ZM56.2111 29.7619C56.1808 30.634 56.1748 31.5019 56.1505 32.6888C56.3207 32.8851 56.5047 33.0754 56.7019 33.2588C57.1139 33.663 57.7017 32.3059 58.4227 32.5909C59.1438 32.876 59.1498 33.8672 59.9678 34.2926C60.4586 34.5606 61.3614 33.0163 61.8401 33.8672C62.3552 34.769 63.2822 34.9732 64.2638 35.3348C64.7122 35.0583 65.3666 35.02 65.9179 34.5648C66.4693 34.1097 66.7359 33.714 67.1298 33.6204C67.7357 33.4928 68.0629 34.5095 68.6991 34.3479C69.7292 34.0799 69.5474 32.7441 70.5169 32.5654C71.0016 32.4718 71.0804 33.0589 71.656 33.1184C72.2316 33.178 72.777 31.7741 73.0678 31.1871C73.2193 30.8978 73.4314 30.8169 73.7525 30.8978C74.2009 31.0211 74.2312 31.4466 74.2736 32.174C74.3678 33.1728 74.9157 34.1241 75.8369 34.8882C76.6549 35.5816 74.5644 35.1987 73.7525 33.7013C73.2375 32.7696 73.3829 32.7653 73.0011 33.2418C73.0011 33.2418 72.2983 34.0926 71.8438 34.182C71.2682 34.2926 70.7108 33.6927 70.7108 33.6927C70.7108 33.6927 70.0321 35.3561 68.893 35.3604C67.7539 35.3646 67.4267 34.5436 67.1722 34.8626C67.0326 35.0656 66.8344 35.246 66.5904 35.3925C66.3463 35.5389 66.0617 35.6482 65.7544 35.7135C66.318 35.9659 66.7365 36.3502 66.9359 36.7983C67.3116 38.0107 66.027 38.7807 64.5122 38.8573C63.4216 38.9126 62.0886 38.5892 61.7492 37.8703C61.6168 37.4682 61.6618 37.0473 61.8783 36.6635C62.0948 36.2798 62.4724 35.9514 62.9611 35.722C62.2463 35.5745 61.6324 35.2494 61.2342 34.8073C61.0606 34.9725 60.8297 35.1037 60.5636 35.1886C60.2974 35.2735 60.0047 35.3092 59.7133 35.2923C59.1074 35.22 58.3561 34.4202 58.0773 33.7353C58.0773 33.7055 57.4411 34.3351 56.7019 34.25C55.7143 34.1394 55.7264 33.6289 55.2477 33.1312C55.1447 33.0206 54.7933 32.6633 54.7206 32.9695C54.6448 33.3115 54.4935 33.6431 54.2722 33.9523C53.7693 34.6584 52.3151 35.4454 51.6788 35.1477C52.5431 34.7614 53.1865 34.1741 53.4966 33.4886C53.8091 32.7424 53.906 31.9599 53.7814 31.1871C53.6844 30.5702 54.5509 30.9105 55.1265 31.336V30.9361C55.1629 30.5107 55.1689 30.0002 55.175 29.5279C55.155 29.2058 54.9871 28.8969 54.6963 28.6474C54.3388 28.3453 53.7874 27.7199 53.4845 27.4009C53.4845 27.4009 53.1149 26.9755 52.8786 26.6862C52.6007 26.3084 52.3656 25.9158 52.1757 25.5121C51.8664 24.8435 51.6632 24.153 51.5698 23.4531C51.4244 22.5469 51.4486 22.3385 51.4062 21.7514C51.5758 22.3002 51.8303 23.2106 51.9212 23.4956C52.169 24.4525 52.6551 25.3713 53.3573 26.2097C53.9861 26.9652 54.7519 27.6602 55.6355 28.2772C56.2817 28.7152 56.9592 29.1297 57.6653 29.5194C58.3272 29.9099 59.0278 30.2667 59.7618 30.5872C61.0254 31.2503 62.5478 31.6259 64.1244 31.6635C65.4134 31.6536 66.6688 31.3736 67.7297 30.8595C68.8226 30.424 69.8273 29.8875 70.7168 29.2642C71.5248 28.7648 72.2877 28.2306 73.0011 27.6646C74.1472 26.7529 74.9511 25.6548 75.34 24.4698C75.6688 23.5778 75.9337 22.6748 76.1338 21.7642C76.1884 22.2104 76.1783 22.6594 76.1035 23.1042C76.0345 23.7008 75.909 24.2934 75.7278 24.8782C75.5257 25.578 75.183 26.2541 74.7098 26.8861C74.2728 27.4194 73.7934 27.935 73.2738 28.4304C72.7043 29.0004 72.6679 29.026 72.6679 29.4556C72.6679 31.2679 72.062 33.7566 71.6318 29.8257C68.79 31.5274 66.3482 32.5824 64.0396 32.5994C61.7311 32.6164 59.3983 31.5657 56.2657 29.7534L56.2111 29.7619ZM70.014 17.6419C69.4273 17.834 68.9189 18.1266 68.5355 18.4928C68.2144 18.8331 68.0144 19.4457 67.5964 19.4584C67.4328 19.4201 67.5964 19.1649 67.3479 19.1819C67.2747 19.1906 67.2049 19.2101 67.1431 19.2391C67.0814 19.2681 67.029 19.3059 66.9896 19.3501C66.9501 19.3943 66.9244 19.4439 66.9141 19.4955C66.9038 19.5472 66.9092 19.5998 66.9298 19.6499C66.9625 19.7116 67.0199 19.7653 67.0952 19.8046C67.1705 19.8439 67.2604 19.867 67.354 19.8711C68.0932 19.9349 68.2083 19.4457 68.4871 19.1819C68.765 18.9157 69.1027 18.683 69.4868 18.4928C69.6195 18.4284 69.7769 18.3938 69.9382 18.3938C70.0995 18.3938 70.257 18.4284 70.3896 18.4928C70.5654 18.6034 70.3896 18.8373 70.2563 18.8841C69.917 18.9054 69.5959 18.8161 69.4383 18.8416C69.2808 18.8671 69.0324 19.1734 68.996 19.552C69.3535 19.6541 69.4383 19.4627 69.7898 19.4584C70.3593 19.4584 70.9168 19.7137 71.2016 19.5137C71.4219 19.3029 71.5233 19.0423 71.4863 18.782C71.965 18.782 72.1832 19.2755 71.9832 19.5222C71.8196 19.6541 71.4318 19.6286 71.4318 19.8668C73.0799 20.1008 73.2496 19.6201 73.3586 19.3606C73.4441 19.1369 73.4162 18.8993 73.2799 18.6884C73.0167 18.2612 72.5366 17.9179 71.9331 17.7253C71.3295 17.5327 70.6455 17.5045 70.014 17.6462V17.6419ZM54.7933 19.8328C55.2088 20.0187 55.7046 20.0955 56.1929 20.0497C56.2052 20.0271 56.2092 20.0027 56.2045 19.9787C56.1997 19.9547 56.1865 19.9319 56.166 19.9124C56.1455 19.8929 56.1184 19.8774 56.0871 19.8672C56.0558 19.857 56.0214 19.8525 55.9869 19.8541C55.8663 19.8519 55.75 19.822 55.6559 19.769C55.5617 19.716 55.495 19.6427 55.4658 19.5605C55.5252 19.3617 55.6432 19.1738 55.8123 19.009C55.9813 18.8441 56.1977 18.7059 56.4474 18.6033C56.914 18.3694 57.2776 18.4927 57.4109 18.6757C57.4109 18.8161 57.326 18.9224 57.1564 18.9479C56.8898 18.9905 56.6959 18.8288 56.4959 18.8926C56.3602 18.9857 56.2764 19.1098 56.2597 19.2424C56.243 19.3751 56.2946 19.5075 56.405 19.6158C56.5383 19.7264 56.6959 19.7732 56.7504 19.7349C57.0049 19.5095 57.6108 19.5137 58.2167 19.552C58.4773 19.4244 58.4894 19.1266 58.5621 18.8458C58.9984 18.5013 59.2104 19.1947 59.5013 19.4712C59.6891 19.6541 59.8951 19.8711 60.1496 19.8966C60.2737 19.9108 60.4008 19.9019 60.5185 19.871C60.6362 19.84 60.7403 19.788 60.8205 19.7201C60.9008 19.6521 60.9543 19.5707 60.9758 19.4837C60.9974 19.3968 60.9862 19.3074 60.9434 19.2244C60.8161 19.1096 60.4707 19.3436 60.3374 19.267C59.8103 18.9139 60.2829 18.1992 59.1923 17.8163C58.1016 17.4335 56.2111 17.5441 55.484 18.1865C55.1399 18.4679 54.8636 18.7869 54.666 19.1309C54.557 19.4074 54.454 19.6967 54.7993 19.8413L54.7933 19.8328ZM65.9058 22.9511C65.1909 22.7979 65.0273 23.3382 64.2941 23.3382C63.2761 23.3382 63.0823 22.8787 62.5187 22.9128C61.9552 22.9468 61.8401 23.4233 61.5372 23.4573C61.2948 23.4233 61.3433 23.7083 61.6523 23.7636C62.2582 23.8742 62.131 23.5126 62.5369 23.6105C62.7793 23.6785 62.8278 23.9635 63.5185 24.1848C64.2093 24.406 64.8818 24.1422 65.4999 23.7594C65.8877 23.4956 66.6269 23.5126 66.439 23.3339C66.2694 23.2786 66.1543 22.9894 65.9058 22.9383V22.9511ZM67.3964 16.3784C67.4449 16.5188 68.1477 16.3784 68.481 16.2891C68.7348 16.2087 68.9984 16.1446 69.2687 16.0977C69.5181 16.0624 69.7717 16.0439 70.0261 16.0424C70.4435 16.0304 70.8616 16.0475 71.2743 16.0934C71.9529 16.17 73.2314 16.6422 73.3344 16.4337C73.3552 16.2563 73.2962 16.0788 73.1658 15.9262C73.0354 15.7736 72.84 15.6535 72.6073 15.5829C72.0701 15.3811 71.478 15.2615 70.8701 15.2322C70.2622 15.2029 69.6524 15.2644 69.0808 15.4128C68.7491 15.5354 68.4328 15.6777 68.1356 15.8382C67.869 15.9658 67.3661 16.1742 67.3964 16.3444V16.3784ZM62.5127 26.4565C62.6702 26.4565 63.2943 26.4097 63.4519 26.3969C65.0333 26.2948 66.4815 26.5798 67.9357 26.2863C67.4328 26.6139 67.0207 27.1371 66.2997 27.3754C65.5786 27.6136 64.1184 27.6391 63.0095 27.5838C61.9997 27.4745 61.0372 27.2085 60.192 26.8053C59.9799 27.2307 60.3193 27.4222 60.7979 27.7242C61.5155 28.2325 62.4764 28.5357 63.4943 28.575C65.3726 28.6091 66.845 28.4814 67.7842 27.3924C68.2323 26.8348 68.8771 26.3675 69.6565 26.0353C70.1109 25.8822 71.141 25.5418 70.9713 25.3546C70.6623 25.0781 70.0564 25.1292 69.6141 25.1972C69.2808 25.244 69.1839 25.6737 68.6264 25.7077C67.3055 25.8269 66.027 25.4993 64.385 25.5376C63.2155 25.5631 62.2946 25.7503 61.0464 25.8226C59.7982 25.8949 59.4225 25.444 58.2955 25.3461C57.7805 25.2993 57.6896 25.5078 58.0713 25.8524C58.4689 26.1452 59.0058 26.3254 59.58 26.3586C60.604 26.3586 61.4645 26.5118 62.4824 26.465L62.5127 26.4565ZM59.2407 16.221C58.9815 16.1516 58.7138 16.0989 58.4409 16.0636C58.1875 16.0439 57.9323 16.0368 57.6775 16.0424C57.2588 16.0423 56.8417 16.078 56.4353 16.1487C55.7688 16.2678 54.5327 16.7826 54.4055 16.5741C54.3681 16.4481 54.3805 16.3172 54.4414 16.1958C54.5022 16.0743 54.6093 15.9668 54.7509 15.885C55.6355 15.685 56.3687 15.5659 57.4957 15.2511C57.859 15.2576 58.2187 15.3035 58.5621 15.3872C58.9075 15.4997 59.2381 15.6335 59.5497 15.7871C59.8224 15.9062 60.3617 16.0934 60.3253 16.2593C60.289 16.4252 59.58 16.2806 59.2407 16.2168" fill="#2F1E18"/>
</g>
<defs>
<clipPath id="clip0_28_447">
<rect width="130" height="76" fill="white"/>
</clipPath>
</defs>
</svg>
