<svg width="39" height="42" viewBox="0 0 39 42" fill="none" xmlns="http://www.w3.org/2000/svg">
<path d="M14.6446 16.0002H14.6458C14.6469 16.0002 14.6479 16 14.649 16H29.1533C29.5104 16 29.8244 15.7631 29.9225 15.4198L33.1225 4.21979C33.1915 3.97833 33.1431 3.71875 32.9921 3.51833C32.8408 3.31792 32.6044 3.2 32.3533 3.2H12.7996L12.2277 0.626458C12.1463 0.260417 11.8217 0 11.4467 0H6.64668C6.2048 0 5.84668 0.358125 5.84668 0.8C5.84668 1.24188 6.2048 1.6 6.64668 1.6H10.805C10.9063 2.05604 13.5417 13.9156 13.6933 14.5979C12.8431 14.9675 12.2467 15.8152 12.2467 16.8C12.2467 18.1233 13.3233 19.2 14.6467 19.2H29.1533C29.5952 19.2 29.9533 18.8419 29.9533 18.4C29.9533 17.9581 29.5952 17.6 29.1533 17.6H14.6467C14.2056 17.6 13.8467 17.241 13.8467 16.8C13.8467 16.3596 14.2044 16.0012 14.6446 16.0002ZM31.2927 4.8L28.5498 14.4H15.2883L13.155 4.8H31.2927Z" fill="#828282"/>
<path d="M13.8467 21.6C13.8467 22.9233 14.9233 24 16.2467 24C17.57 24 18.6467 22.9233 18.6467 21.6C18.6467 20.2767 17.57 19.2 16.2467 19.2C14.9233 19.2 13.8467 20.2767 13.8467 21.6ZM16.2467 20.8C16.6877 20.8 17.0467 21.159 17.0467 21.6C17.0467 22.041 16.6877 22.4 16.2467 22.4C15.8056 22.4 15.4467 22.041 15.4467 21.6C15.4467 21.159 15.8056 20.8 16.2467 20.8Z" fill="#828282"/>
<path d="M25.1533 21.6C25.1533 22.9233 26.23 24 27.5533 24C28.8767 24 29.9533 22.9233 29.9533 21.6C29.9533 20.2767 28.8767 19.2 27.5533 19.2C26.23 19.2 25.1533 20.2767 25.1533 21.6ZM27.5533 20.8C27.9944 20.8 28.3533 21.159 28.3533 21.6C28.3533 22.041 27.9944 22.4 27.5533 22.4C27.1123 22.4 26.7533 22.041 26.7533 21.6C26.7533 21.159 27.1123 20.8 27.5533 20.8Z" fill="#828282"/>
<path d="M4.836 31.26C4.38 31.26 3.968 31.34 3.6 31.5C3.232 31.652 2.92 31.88 2.664 32.184C2.408 32.48 2.212 32.844 2.076 33.276C1.94 33.7 1.872 34.18 1.872 34.716C1.872 35.42 1.98 36.032 2.196 36.552C2.42 37.072 2.748 37.472 3.18 37.752C3.62 38.032 4.168 38.172 4.824 38.172C5.2 38.172 5.556 38.14 5.892 38.076C6.228 38.012 6.556 37.932 6.876 37.836V38.772C6.556 38.892 6.224 38.98 5.88 39.036C5.544 39.092 5.14 39.12 4.668 39.12C3.796 39.12 3.068 38.94 2.484 38.58C1.9 38.22 1.46 37.708 1.164 37.044C0.876 36.38 0.732 35.6 0.732 34.704C0.732 34.056 0.82 33.464 0.996 32.928C1.18 32.392 1.444 31.928 1.788 31.536C2.14 31.144 2.572 30.844 3.084 30.636C3.596 30.42 4.184 30.312 4.848 30.312C5.288 30.312 5.712 30.356 6.12 30.444C6.528 30.532 6.892 30.656 7.212 30.816L6.78 31.728C6.516 31.608 6.22 31.5 5.892 31.404C5.572 31.308 5.22 31.26 4.836 31.26ZM11.038 32.46C11.822 32.46 12.402 32.632 12.778 32.976C13.154 33.32 13.342 33.868 13.342 34.62V39H12.574L12.37 38.088H12.322C12.138 38.32 11.946 38.516 11.746 38.676C11.554 38.828 11.33 38.94 11.074 39.012C10.826 39.084 10.522 39.12 10.162 39.12C9.77803 39.12 9.43003 39.052 9.11803 38.916C8.81403 38.78 8.57403 38.572 8.39803 38.292C8.22203 38.004 8.13403 37.644 8.13403 37.212C8.13403 36.572 8.38603 36.08 8.89003 35.736C9.39403 35.384 10.17 35.192 11.218 35.16L12.31 35.124V34.74C12.31 34.204 12.194 33.832 11.962 33.624C11.73 33.416 11.402 33.312 10.978 33.312C10.642 33.312 10.322 33.364 10.018 33.468C9.71403 33.564 9.43003 33.676 9.16603 33.804L8.84203 33.012C9.12203 32.86 9.45403 32.732 9.83803 32.628C10.222 32.516 10.622 32.46 11.038 32.46ZM11.35 35.892C10.55 35.924 9.99403 36.052 9.68203 36.276C9.37803 36.5 9.22603 36.816 9.22603 37.224C9.22603 37.584 9.33403 37.848 9.55003 38.016C9.77403 38.184 10.058 38.268 10.402 38.268C10.946 38.268 11.398 38.12 11.758 37.824C12.118 37.52 12.298 37.056 12.298 36.432V35.856L11.35 35.892ZM18.3286 32.448C18.4486 32.448 18.5766 32.456 18.7126 32.472C18.8566 32.48 18.9806 32.496 19.0846 32.52L18.9526 33.492C18.8486 33.468 18.7326 33.448 18.6046 33.432C18.4846 33.416 18.3686 33.408 18.2566 33.408C18.0086 33.408 17.7726 33.46 17.5486 33.564C17.3246 33.668 17.1246 33.816 16.9486 34.008C16.7726 34.192 16.6326 34.416 16.5286 34.68C16.4326 34.944 16.3846 35.24 16.3846 35.568V39H15.3286V32.568H16.1926L16.3126 33.744H16.3606C16.4966 33.504 16.6606 33.288 16.8526 33.096C17.0446 32.896 17.2646 32.74 17.5126 32.628C17.7606 32.508 18.0326 32.448 18.3286 32.448ZM23.2856 32.448C23.4056 32.448 23.5336 32.456 23.6696 32.472C23.8136 32.48 23.9376 32.496 24.0416 32.52L23.9096 33.492C23.8056 33.468 23.6896 33.448 23.5616 33.432C23.4416 33.416 23.3256 33.408 23.2136 33.408C22.9656 33.408 22.7296 33.46 22.5056 33.564C22.2816 33.668 22.0816 33.816 21.9056 34.008C21.7296 34.192 21.5896 34.416 21.4856 34.68C21.3896 34.944 21.3416 35.24 21.3416 35.568V39H20.2856V32.568H21.1496L21.2696 33.744H21.3176C21.4536 33.504 21.6176 33.288 21.8096 33.096C22.0016 32.896 22.2216 32.74 22.4696 32.628C22.7176 32.508 22.9896 32.448 23.2856 32.448ZM26.2987 32.568V39H25.2427V32.568H26.2987ZM25.7827 30.156C25.9427 30.156 26.0827 30.212 26.2027 30.324C26.3307 30.428 26.3947 30.596 26.3947 30.828C26.3947 31.052 26.3307 31.22 26.2027 31.332C26.0827 31.444 25.9427 31.5 25.7827 31.5C25.6067 31.5 25.4587 31.444 25.3387 31.332C25.2187 31.22 25.1587 31.052 25.1587 30.828C25.1587 30.596 25.2187 30.428 25.3387 30.324C25.4587 30.212 25.6067 30.156 25.7827 30.156ZM30.4844 38.256C30.6444 38.256 30.8084 38.244 30.9764 38.22C31.1444 38.188 31.2804 38.156 31.3844 38.124V38.928C31.2724 38.984 31.1124 39.028 30.9044 39.06C30.6964 39.1 30.4964 39.12 30.3044 39.12C29.9684 39.12 29.6564 39.064 29.3684 38.952C29.0884 38.832 28.8604 38.628 28.6844 38.34C28.5084 38.052 28.4204 37.648 28.4204 37.128V33.384H27.5084V32.88L28.4324 32.46L28.8524 31.092H29.4764V32.568H31.3364V33.384H29.4764V37.104C29.4764 37.496 29.5684 37.788 29.7524 37.98C29.9444 38.164 30.1884 38.256 30.4844 38.256ZM38.2643 35.772C38.2643 36.308 38.1923 36.784 38.0483 37.2C37.9123 37.608 37.7123 37.956 37.4483 38.244C37.1923 38.532 36.8763 38.752 36.5003 38.904C36.1323 39.048 35.7203 39.12 35.2643 39.12C34.8403 39.12 34.4483 39.048 34.0883 38.904C33.7283 38.752 33.4163 38.532 33.1523 38.244C32.8883 37.956 32.6803 37.608 32.5283 37.2C32.3843 36.784 32.3123 36.308 32.3123 35.772C32.3123 35.06 32.4323 34.46 32.6723 33.972C32.9123 33.476 33.2563 33.1 33.7043 32.844C34.1523 32.58 34.6843 32.448 35.3003 32.448C35.8843 32.448 36.3963 32.58 36.8363 32.844C37.2843 33.1 37.6323 33.476 37.8803 33.972C38.1363 34.46 38.2643 35.06 38.2643 35.772ZM33.4043 35.772C33.4043 36.276 33.4683 36.716 33.5963 37.092C33.7323 37.46 33.9403 37.744 34.2203 37.944C34.5003 38.144 34.8563 38.244 35.2883 38.244C35.7203 38.244 36.0763 38.144 36.3563 37.944C36.6363 37.744 36.8403 37.46 36.9683 37.092C37.1043 36.716 37.1723 36.276 37.1723 35.772C37.1723 35.26 37.1043 34.824 36.9683 34.464C36.8323 34.104 36.6243 33.828 36.3443 33.636C36.0723 33.436 35.7163 33.336 35.2763 33.336C34.6203 33.336 34.1443 33.552 33.8483 33.984C33.5523 34.416 33.4043 35.012 33.4043 35.772Z" fill="#828282"/>
</svg>
