<svg width="180" height="93" viewBox="0 0 180 93" fill="none" xmlns="http://www.w3.org/2000/svg">
<g clip-path="url(#clip0_28_300)">
<path d="M71.6874 39.5855V41.1227H71.739C72.3459 40.2997 73.3534 39.3304 75.5867 39.3304C77.3241 39.3304 78.6569 40.1364 79.2282 41.354H79.2797C79.7676 40.7384 80.3269 40.2725 80.9537 39.9426C81.6955 39.5515 82.5205 39.327 83.5598 39.327C85.9121 39.327 87.9946 40.7214 87.9946 44.238V50.9073H84.4087V44.7039C84.4087 42.9218 83.7026 41.8913 82.2349 41.8913C81.16 41.8913 80.3785 42.5103 80.081 43.2721C79.9779 43.534 79.9303 43.8911 79.9303 44.1904V50.9107H76.3443V44.4523C76.3443 42.9388 75.666 41.8879 74.2182 41.8879C73.0599 41.8879 72.334 42.6702 72.0365 43.3401C71.9095 43.6258 71.8699 43.9557 71.8699 44.2652V50.9073H68.28V39.5855H71.6874ZM106.503 39.5855V41.7213H106.603C107.261 40.0888 108.824 39.3304 110.196 39.3304C110.542 39.3304 110.732 39.3542 111.01 39.4018V42.3675C110.68 42.3267 110.375 42.2858 109.947 42.2858C108.392 42.2858 107.309 43.0613 107.035 44.2754C106.975 44.5271 106.956 44.7992 106.956 45.112V50.9107H103.275V39.5855H106.503ZM116.008 35.8342V39.3984H119.118V42.2824H116.008V46.537C116.008 47.9144 116.416 48.581 117.63 48.581C118.201 48.581 118.622 48.5198 118.987 48.4416L119.034 50.8325C118.546 50.9889 117.507 51.1589 116.452 51.1589C115.21 51.1589 114.175 50.7882 113.544 50.2135C112.822 49.5571 112.489 48.4824 112.489 46.952V35.8342H116.008ZM65.7809 50.9073H62.2109V35.8342H65.7809V50.9073ZM56.2608 46.8635C56.2608 47.071 56.2409 47.2887 56.1735 47.4757C55.8958 48.2613 54.9478 48.9245 53.7657 48.9245C52.778 48.9245 51.9926 48.445 51.9926 47.4281C51.9926 45.8739 53.9918 45.4419 56.2647 45.4521V46.8635H56.2608ZM59.8269 44.153C59.8269 41.5852 58.5496 39.3304 54.2298 39.3304C52.0124 39.3304 50.2512 39.8644 49.2912 40.3405L49.9933 42.4015C50.87 41.9253 52.2702 41.5342 53.5951 41.5342C55.7887 41.5308 56.1457 42.5987 56.1457 43.2823V43.4456C51.3658 43.4388 48.3471 44.857 48.3471 47.7478C48.3471 49.5129 49.8823 51.1658 52.5558 51.1658C54.202 51.1658 55.5745 50.6046 56.3996 49.7033H56.4789C56.4789 49.7033 57.0263 51.6589 60.0331 50.9107C59.8745 50.0944 59.8229 49.2272 59.8229 48.1831V44.153H59.8269ZM30.4135 35.8342C30.7824 37.4293 31.8296 42.0614 31.8296 42.0614C32.2699 43.9659 32.6746 45.9623 32.98 47.5403H33.0355C33.333 45.8637 33.8011 44.2754 34.3009 42.3097L36.0661 35.8342H39.9733L41.6235 42.4763C42.0559 44.323 42.401 45.748 42.6747 47.4655H42.7263C43.0238 45.731 43.4125 44.2482 43.8369 42.3505L45.4236 35.8342H49.1722L44.5272 50.9073C41.568 51.4616 40.4335 50.4413 40.0289 48.8225C39.6243 47.2002 38.8309 44.1156 38.8309 44.1156C38.4224 42.4253 38.105 41.235 37.8829 39.5005H37.8273C37.51 41.2179 37.1768 42.4219 36.6849 44.1122L34.7373 50.9107C31.7146 51.4276 30.6674 50.6624 30.0882 48.5844C29.5884 46.8057 26.4706 35.8376 26.4706 35.8376H30.4135V35.8342ZM97.3244 46.8635C97.3244 47.071 97.3046 47.2887 97.2371 47.4757C96.9595 48.2613 96.0114 48.9245 94.8293 48.9245C93.8416 48.9245 93.0562 48.445 93.0562 47.4281C93.0562 45.8739 95.0554 45.4419 97.3284 45.4521V46.8635H97.3244ZM100.89 44.153C100.89 41.5852 99.6132 39.3304 95.2934 39.3304C93.076 39.3304 91.3148 39.8644 90.3549 40.3405L91.057 42.4015C91.9336 41.9253 93.3339 41.5342 94.6588 41.5342C96.8484 41.5308 97.2094 42.5987 97.2094 43.2823V43.4456C92.4334 43.4388 89.4147 44.857 89.4147 47.7478C89.4147 49.5129 90.9538 51.1658 93.6234 51.1658C95.2657 51.1658 96.6421 50.6046 97.4632 49.7033H97.5465C97.5465 49.7033 98.0939 51.6589 101.101 50.9107C100.942 50.0944 100.89 49.2272 100.89 48.1831V44.153Z" fill="#041E42"/>
<path d="M133.589 45.716C133.941 46.2665 133.918 46.8809 133.542 47.1614L127.05 51.249C126.373 51.6006 125.361 51.1744 124.788 50.283C124.211 49.3881 124.313 48.3902 124.99 48.0386L132.178 45.0342C132.629 44.8779 133.238 45.1656 133.589 45.716ZM142.134 45.716C142.49 45.1656 143.095 44.8815 143.546 45.0306L150.738 48.035C151.414 48.3866 151.513 49.3845 150.94 50.2795C150.362 51.1709 149.346 51.5935 148.674 51.2454L142.181 47.1579C141.81 46.8809 141.782 46.2629 142.134 45.716ZM137.86 47.9321C138.568 47.9321 139.149 48.2588 139.228 48.6885L139.928 55.784C139.928 56.4872 139.014 57.0625 137.864 57.0625C136.717 57.0625 135.8 56.4872 135.8 55.784L136.496 48.6885C136.575 48.2588 137.156 47.9321 137.86 47.9321ZM142.181 39.8421L148.674 35.751C149.346 35.3994 150.362 35.822 150.94 36.717C151.513 37.6119 151.414 38.6098 150.738 38.9614L143.546 41.9694C143.095 42.1185 142.486 41.8344 142.134 41.284C141.782 40.7335 141.81 40.1191 142.181 39.8421ZM132.178 41.9694L124.99 38.9614C124.317 38.6098 124.215 37.6119 124.788 36.717C125.361 35.822 126.377 35.3994 127.05 35.751L133.542 39.8421C133.918 40.1156 133.941 40.7335 133.589 41.284C133.238 41.8344 132.629 42.1185 132.178 41.9694ZM136.496 38.3115L135.8 31.216C135.8 30.5128 136.713 29.9375 137.864 29.9375C139.014 29.9375 139.928 30.5128 139.928 31.216L139.228 38.3115C139.149 38.7377 138.568 39.068 137.86 39.068C137.156 39.068 136.575 38.7377 136.496 38.3115ZM152.695 51.2206V51.043H152.873C152.932 51.043 152.972 51.0785 152.972 51.1318C152.972 51.1815 152.932 51.2206 152.873 51.2206H152.695ZM152.549 51.5437C152.549 51.5615 152.565 51.5793 152.588 51.5793H152.663C152.683 51.5793 152.703 51.5615 152.703 51.5437V51.3413H152.826L152.924 51.5544C152.932 51.5686 152.944 51.5793 152.96 51.5793H153.051C153.079 51.5793 153.098 51.5544 153.087 51.5295C153.051 51.4656 153.015 51.3981 152.98 51.3307C153.039 51.3129 153.13 51.2596 153.13 51.1318C153.13 50.9968 153.007 50.9187 152.885 50.9187H152.588C152.569 50.9187 152.549 50.9365 152.549 50.9542V51.5437ZM152.229 51.249C152.229 50.9613 152.49 50.7269 152.81 50.7269C153.13 50.7269 153.391 50.9578 153.391 51.249C153.391 51.5366 153.134 51.771 152.81 51.771C152.486 51.771 152.229 51.5366 152.229 51.249ZM152.09 51.249C152.09 51.6041 152.41 51.8953 152.81 51.8953C153.205 51.8953 153.529 51.6041 153.529 51.249C153.529 50.8939 153.205 50.6026 152.81 50.6026C152.41 50.6026 152.09 50.8939 152.09 51.249Z" fill="#FFC124"/>
</g>
<defs>
<clipPath id="clip0_28_300">
<rect width="127.059" height="27.125" fill="white" transform="translate(26.4706 29.9375)"/>
</clipPath>
</defs>
</svg>
