<svg width="31" height="20" viewBox="0 0 31 20" fill="none" xmlns="http://www.w3.org/2000/svg">
<rect x="0.782715" y="1.43115" width="29.24" height="17.9163" rx="3.5" fill="white" stroke="#E0E0E0"/>
<path d="M17.88 6.4624H12.562V14.6776H17.88V6.4624Z" fill="#FF5F00"/>
<path d="M13.1097 10.5722C13.109 9.78114 13.2986 9.00032 13.6641 8.2888C14.0296 7.57729 14.5614 6.95373 15.2194 6.46533C14.4045 5.85963 13.4259 5.48299 12.3954 5.37844C11.3649 5.27389 10.3242 5.44565 9.392 5.8741C8.45985 6.30255 7.67395 6.97039 7.12412 7.80131C6.57429 8.63222 6.28271 9.59268 6.28271 10.5729C6.28271 11.5532 6.57429 12.5136 7.12412 13.3445C7.67395 14.1754 8.45985 14.8433 9.392 15.2717C10.3242 15.7002 11.3649 15.8719 12.3954 15.7674C13.4259 15.6629 14.4045 15.2862 15.2194 14.6805C14.5612 14.192 14.0293 13.5682 13.6638 12.8564C13.2983 12.1446 13.1088 11.3635 13.1097 10.5722Z" fill="#EB001B"/>
<path d="M23.6288 13.8086V13.6403H23.7055V13.6055H23.5229V13.6403H23.5951V13.8086H23.6288ZM23.9832 13.8086V13.6055H23.928L23.8636 13.7506L23.7991 13.6055H23.7439V13.8086H23.7838V13.6548L23.8436 13.7869H23.885L23.9449 13.6548V13.8086H23.9832Z" fill="#F79E1B"/>
<path d="M24.1567 10.5708C24.1567 11.5511 23.865 12.5117 23.3151 13.3426C22.7652 14.1735 21.9792 14.8414 21.0469 15.2698C20.1146 15.6982 19.0737 15.8698 18.0432 15.7651C17.0126 15.6604 16.034 15.2836 15.2192 14.6777C15.8769 14.1889 16.4086 13.5651 16.7742 12.8536C17.1398 12.142 17.3298 11.3612 17.3298 10.5701C17.3298 9.77898 17.1398 8.99819 16.7742 8.28663C16.4086 7.57508 15.8769 6.95135 15.2192 6.46251C16.034 5.85663 17.0126 5.4798 18.0432 5.3751C19.0737 5.2704 20.1146 5.44205 21.0469 5.87044C21.9792 6.29883 22.7652 6.96666 23.3151 7.79761C23.865 8.62855 24.1567 9.58907 24.1567 10.5694V10.5708Z" fill="#F79E1B"/>
</svg>
