<svg width="240" height="200" viewBox="0 0 240 200" fill="none" xmlns="http://www.w3.org/2000/svg">
<g clip-path="url(#clip0_33_727)">
<path d="M11.1324 190.579C14.4557 196.742 21.5088 199.388 21.5088 199.388C21.5088 199.388 23.1738 192.041 19.8506 185.878C16.5274 179.715 9.47426 177.069 9.47426 177.069C9.47426 177.069 7.80919 184.416 11.1324 190.579Z" fill="#2F2E41"/>
<path d="M13.4167 188.551C19.4165 192.161 21.7272 199.331 21.7272 199.331C21.7272 199.331 14.3103 200.648 8.31052 197.038C2.31072 193.429 0 186.259 0 186.259C0 186.259 7.41689 184.942 13.4167 188.551Z" fill="#52CC6D"/>
<path d="M147.933 9.60132H110.499V10.1361H147.933V9.60132Z" fill="#F2F2F2"/>
<path d="M137.772 10.0024H137.237V14.9492H137.772V10.0024Z" fill="#F2F2F2"/>
<path d="M121.462 10.0024H120.927V14.9492H121.462V10.0024Z" fill="#F2F2F2"/>
<path d="M166.917 35.2708H129.483V35.8055H166.917V35.2708Z" fill="#F2F2F2"/>
<path d="M140.179 30.4578H139.644V35.4045H140.179V30.4578Z" fill="#F2F2F2"/>
<path d="M156.489 30.4578H155.955V35.4045H156.489V30.4578Z" fill="#F2F2F2"/>
<path d="M216.652 47.3035H179.218V47.8382H216.652V47.3035Z" fill="#F2F2F2"/>
<path d="M189.913 42.4905H189.378V47.4372H189.913V42.4905Z" fill="#F2F2F2"/>
<path d="M206.224 42.4905H205.689V47.4372H206.224V42.4905Z" fill="#F2F2F2"/>
<path d="M212.909 171.372H175.474V171.907H212.909V171.372Z" fill="#F2F2F2"/>
<path d="M186.17 166.559H185.635V171.506H186.17V166.559Z" fill="#F2F2F2"/>
<path d="M202.481 166.559H201.946V171.506H202.481V166.559Z" fill="#F2F2F2"/>
<path d="M149.002 85.54H111.568V86.0748H149.002V85.54Z" fill="#F2F2F2"/>
<path d="M122.264 80.7271H121.729V85.6738H122.264V80.7271Z" fill="#F2F2F2"/>
<path d="M138.574 80.7271H138.04V85.6738H138.574V80.7271Z" fill="#F2F2F2"/>
<path d="M160.768 149.981H123.333V150.516H160.768V149.981Z" fill="#F2F2F2"/>
<path d="M134.029 145.168H133.494V150.115H134.029V145.168Z" fill="#F2F2F2"/>
<path d="M150.339 145.168H149.805V150.115H150.339V145.168Z" fill="#F2F2F2"/>
<path d="M220.663 130.462H183.229V130.996H220.663V130.462Z" fill="#F2F2F2"/>
<path d="M193.924 125.649H193.389V130.595H193.924V125.649Z" fill="#F2F2F2"/>
<path d="M210.235 125.649H209.7V130.595H210.235V125.649Z" fill="#F2F2F2"/>
<path d="M96.8112 187.757H33.4971V187.301H96.3556V165.21H38.8197L36.0247 159.387L36.4354 159.19L39.1064 164.754H96.8112V187.757Z" fill="#2F2E41"/>
<path d="M41.9238 198.917C44.5653 198.917 46.7066 196.775 46.7066 194.134C46.7066 191.492 44.5653 189.351 41.9238 189.351C39.2824 189.351 37.1411 191.492 37.1411 194.134C37.1411 196.775 39.2824 198.917 41.9238 198.917Z" fill="#3F3D56"/>
<path d="M89.0679 198.917C91.7093 198.917 93.8506 196.775 93.8506 194.134C93.8506 191.492 91.7093 189.351 89.0679 189.351C86.4265 189.351 84.2852 191.492 84.2852 194.134C84.2852 196.775 86.4265 198.917 89.0679 198.917Z" fill="#3F3D56"/>
<path d="M144.638 95.5184C146.274 95.5184 147.599 94.1928 147.599 92.5577C147.599 90.9225 146.274 89.5969 144.638 89.5969C143.003 89.5969 141.678 90.9225 141.678 92.5577C141.678 94.1928 143.003 95.5184 144.638 95.5184Z" fill="#3F3D56"/>
<path d="M103.583 157.694H32.4176L17.019 107.362H119.441L119.348 107.658L103.583 157.694ZM32.7545 157.239H103.249L118.82 107.817H17.6347L32.7545 157.239Z" fill="#2F2E41"/>
<path d="M98.0279 155.075H35.5207L21.9956 110.436H111.957L111.875 110.699L98.0279 155.075Z" fill="#F2F2F2"/>
<path d="M120.717 102.865L120.277 102.748L123.283 91.4189H140.767V91.8746H123.633L120.717 102.865Z" fill="#2F2E41"/>
<path d="M114.323 122.621H21.9951V123.076H114.323V122.621Z" fill="#2F2E41"/>
<path d="M109.035 139.402H27.1289V139.858H109.035V139.402Z" fill="#2F2E41"/>
<path d="M68.4565 107.589H68.001V157.466H68.4565V107.589Z" fill="#2F2E41"/>
<path d="M88.8498 107.575L85.5801 157.451L86.0347 157.48L89.3044 107.605L88.8498 107.575Z" fill="#2F2E41"/>
<path d="M47.6172 107.574L47.1626 107.604L50.4134 157.481L50.868 157.451L47.6172 107.574Z" fill="#2F2E41"/>
<path d="M239.581 199.206H0V199.74H239.581V199.206Z" fill="#2F2E41"/>
<path d="M53.5444 94.364H16.1099V94.8988H53.5444V94.364Z" fill="#F2F2F2"/>
<path d="M26.8053 89.551H26.2705V94.4977H26.8053V89.551Z" fill="#F2F2F2"/>
<path d="M43.1163 89.551H42.5815V94.4977H43.1163V89.551Z" fill="#F2F2F2"/>
<path d="M66.6465 15.2166H29.2119V15.7513H66.6465V15.2166Z" fill="#F2F2F2"/>
<path d="M56.4855 15.6177H55.9507V20.5644H56.4855V15.6177Z" fill="#F2F2F2"/>
<path d="M40.1749 15.6177H39.6401V20.5644H40.1749V15.6177Z" fill="#F2F2F2"/>
<path d="M104.349 67.8923H66.9141V68.4271H104.349V67.8923Z" fill="#F2F2F2"/>
<path d="M94.1876 68.2935H93.6528V73.2402H94.1876V68.2935Z" fill="#F2F2F2"/>
<path d="M77.8771 68.2935H77.3423V73.2402H77.8771V68.2935Z" fill="#F2F2F2"/>
<path d="M40.7095 67.625H3.2749V68.1598H40.7095V67.625Z" fill="#F2F2F2"/>
<path d="M30.5489 68.0261H30.0142V72.9728H30.5489V68.0261Z" fill="#F2F2F2"/>
<path d="M14.2379 68.0261H13.7031V72.9728H14.2379V68.0261Z" fill="#F2F2F2"/>
<path d="M85.6314 40.886H48.1968V41.4208H85.6314V40.886Z" fill="#F2F2F2"/>
<path d="M58.8922 36.073H58.3574V41.0197H58.8922V36.073Z" fill="#F2F2F2"/>
<path d="M75.2028 36.073H74.668V41.0197H75.2028V36.073Z" fill="#F2F2F2"/>
</g>
<defs>
<clipPath id="clip0_33_727">
<rect width="239.581" height="200" fill="white"/>
</clipPath>
</defs>
</svg>
