<svg width="195" height="68" viewBox="0 0 195 68" fill="none" xmlns="http://www.w3.org/2000/svg">
<g clip-path="url(#clip0_28_482)">
<path d="M149.007 16.7239L148.956 16.7799L149.007 16.7239ZM173.394 17.4363V17.4844V17.4363ZM189.378 47.2013C189.378 47.2013 189.378 47.2014 189.378 47.1613V47.2013ZM183.919 39.9562C185.108 38.4992 185.322 37.1383 185.322 35.1529V28.7483C186.003 29.2307 186.794 29.5595 187.633 29.709C188.659 29.9012 192.116 30.1333 194.042 25.418C194.603 24.0517 194.913 22.6062 194.957 21.143C194.957 18.0688 192.621 14.7384 188.865 14.7384C187.899 14.7622 186.955 15.0148 186.121 15.4726C185.288 15.9304 184.592 16.5785 184.099 17.3563L183.833 17.004C183.833 17.004 183.791 17.004 183.782 16.948C183.14 16.2207 182.325 15.6437 181.402 15.2629C180.48 14.8822 179.475 14.7082 178.468 14.7548C177.461 14.8015 176.479 15.0674 175.601 15.5316C174.723 15.9957 173.974 16.6452 173.411 17.4283C172.98 18.0004 172.669 18.6444 172.496 19.3257L170.57 17.1161C170.011 16.3772 169.271 15.7739 168.412 15.3562C167.554 14.9385 166.601 14.7185 165.633 14.7144C164.401 14.6744 163.182 14.9653 162.121 15.5526C161.059 16.1399 160.2 16.9991 159.643 18.0288C159.094 17.0215 158.255 16.1777 157.221 15.5921C156.187 15.0066 154.999 14.7026 153.791 14.7144C152.876 14.7095 151.97 14.8877 151.135 15.237C150.3 15.5864 149.554 16.0988 148.948 16.7399C148.616 17.0633 148.329 17.4235 148.092 17.8126C147.515 16.8802 146.688 16.1044 145.693 15.5612C144.699 15.018 143.57 14.7262 142.419 14.7144C141.337 14.7171 140.272 14.9744 139.324 15.4627C138.376 15.9509 137.575 16.6544 136.994 17.5084C136.994 17.5084 136.848 17.7005 136.617 18.0288C136.363 17.5668 136.041 17.141 135.659 16.7639C135.043 16.1191 134.289 15.6033 133.446 15.2501C132.602 14.897 131.688 14.7144 130.764 14.7144C129.551 14.6922 128.356 15.0004 127.326 15.6016C126.296 16.2028 125.475 17.0711 124.963 18.1008C124.746 17.702 124.488 17.324 124.193 16.972L124.141 16.924C123.501 16.1947 122.687 15.6158 121.764 15.2333C120.842 14.8509 119.837 14.6757 118.829 14.7216C117.821 14.7675 116.839 15.0332 115.961 15.4977C115.083 15.9621 114.333 16.6123 113.771 17.3963C113.342 17.9697 113.031 18.6133 112.855 19.2937L110.93 17.0841C110.37 16.3452 109.631 15.7419 108.772 15.3242C107.913 14.9065 106.96 14.6864 105.993 14.6824C104.804 14.6508 103.628 14.9252 102.595 15.4758C101.561 16.0264 100.709 16.8319 100.131 17.8046C99.9303 17.4807 99.7013 17.1728 99.4466 16.884C98.8187 16.2005 98.0419 15.6505 97.1682 15.2708C96.2946 14.8911 95.3443 14.6905 94.3811 14.6824C93.4052 14.6872 92.443 14.8977 91.566 15.2982C90.689 15.6988 89.9198 16.2791 89.3155 16.996C88.8796 17.4692 88.5377 18.0115 88.3058 18.5972C88.0125 17.8471 87.5549 17.1627 86.9623 16.5877C86.3158 15.9473 85.5293 15.4449 84.6563 15.1148C83.7834 14.7846 82.8446 14.6346 81.904 14.6749C80.9635 14.7151 80.0432 14.9448 79.2062 15.3481C78.3691 15.7515 77.6349 16.319 77.0536 17.012L77.0023 17.0601C76.0772 18.1858 75.6047 19.5801 75.6674 20.9989C74.9703 19.9993 74.136 19.0895 73.1859 18.293C70.3244 15.9374 66.607 14.6969 62.7981 14.8265H57.9549C54.5322 14.8265 52.085 16.3236 51.1523 18.9414C50.9266 19.595 50.8252 20.2805 50.8528 20.9668H50.733C50.3889 19.1934 49.3916 17.5889 47.9144 16.432C46.4371 15.2751 44.5733 14.6391 42.6469 14.6344H20.4934C20.3282 13.8898 20.0395 13.174 19.6378 12.5129C20.9774 12.7431 22.3609 12.5188 23.5396 11.8804C23.2724 11.9576 23.0011 12.0217 22.7268 12.0725L23.7707 11.7523H23.8135L23.8648 11.7043C24.9706 10.9325 25.8054 9.86988 26.2626 8.65212C26.7199 7.43435 26.7788 6.1167 26.4318 4.86746C26.1066 3.6327 25.3958 2.51651 24.39 1.66107C23.3843 0.805632 22.1291 0.249674 20.7844 0.0640718C18.4889 -0.132352 16.1948 0.453297 14.324 1.71326C13.4422 2.30595 12.6995 3.06135 12.1418 3.93292C11.584 4.80448 11.223 5.77371 11.081 6.78082C11.0335 7.09372 11.0106 7.40945 11.0126 7.72549C11.0127 8.43152 11.14 9.13249 11.3891 9.79895C10.2093 9.28988 8.9039 9.09026 7.6123 9.22139C6.32071 9.35252 5.09146 9.8095 4.0559 10.5435C3.11831 11.1013 2.32085 11.8423 1.71823 12.7156C1.11561 13.589 0.722112 14.574 0.564756 15.603C0.429993 16.6379 0.580208 17.6879 1.00115 18.6532C0.334142 19.7861 -0.0161164 21.0584 -0.0171102 22.3518V59.7782C-0.019387 61.8265 0.846948 63.792 2.39179 65.2433C3.93663 66.6946 6.03379 67.5133 8.22305 67.5197H42.741C44.6508 67.5109 46.4986 66.8843 47.9709 65.7461C49.4432 64.608 50.4493 63.0284 50.8186 61.2753H51.1694V61.7316C51.1818 62.1701 51.2507 62.6055 51.3748 63.0285C51.7737 64.4292 52.7325 65.6329 54.053 66.3909C55.3708 67.2315 56.6885 67.3916 58.802 67.3916H62.1477C63.6603 67.4115 65.1718 67.3097 66.6657 67.0874H66.717C69.276 66.5881 71.6419 65.4481 73.5625 63.7891L74.0588 63.3328C74.7692 62.6499 75.4002 61.8985 75.9412 61.0912C77.1589 63.0039 78.8415 64.621 80.8523 65.8115C82.8631 67.0019 85.1455 67.732 87.5144 67.9425C89.8833 68.1531 92.2719 67.8382 94.4863 67.0233C96.7008 66.2085 98.6787 64.9166 100.26 63.2527C100.362 63.1406 100.482 63.0205 100.593 62.8924C100.775 63.719 101.149 64.4979 101.689 65.174L101.748 65.2541C102.361 65.981 103.14 66.5694 104.029 66.9755C104.918 67.3816 105.893 67.595 106.882 67.5998C107.833 67.5991 108.772 67.403 109.632 67.0254C110.493 66.6477 111.254 66.0977 111.863 65.4142L111.905 65.3662C112.542 64.6435 112.98 63.7859 113.18 62.8684L115.106 65.1821C115.695 65.9358 116.469 66.5469 117.362 66.9646C118.255 67.3823 119.241 67.5946 120.24 67.5837C121.218 67.588 122.184 67.3832 123.065 66.985C123.946 66.5869 124.718 66.0058 125.322 65.2861C125.872 64.6285 126.26 63.8661 126.46 63.0525L126.529 63.1406C127.638 64.5807 129.083 65.766 130.754 66.607C132.424 67.448 134.278 67.9227 136.173 67.9952C138.069 68.0677 139.958 67.7361 141.696 67.0254C143.435 66.3148 144.978 65.2437 146.209 63.8931L146.911 63.0926C148.624 60.833 149.479 58.1022 149.341 55.3351V51.5564C150.001 51.7498 150.686 51.8575 151.378 51.8766V60.7789V61.8037C151.404 62.9441 151.775 64.0541 152.447 65.0059L152.516 65.11C153.123 65.8946 153.923 66.5321 154.847 66.9693C155.771 67.4065 156.794 67.6309 157.829 67.6238C158.912 67.6383 159.979 67.389 160.928 66.9006C161.876 66.4121 162.672 65.7012 163.237 64.8378C163.824 63.9466 164.17 62.9357 164.247 61.8917C164.247 61.8917 164.247 61.5315 164.247 61.2112H164.94C165.039 61.7146 165.206 62.2042 165.436 62.6683C166.985 65.9266 171.281 68.0321 176.346 68.0321C179.957 68.0321 182.738 67.0714 184.852 65.078C185.567 64.405 186.168 63.6327 186.631 62.7883C187.441 61.3318 187.863 59.7145 187.864 58.073C187.885 56.8091 187.631 55.5543 187.116 54.3855C186.601 53.2168 185.836 52.1588 184.869 51.2762C185.84 50.5118 186.511 49.4669 186.777 48.3061C187.481 48.8256 188.353 49.1077 189.25 49.1067C190.179 49.1064 191.077 48.7995 191.788 48.24C192.499 47.6806 192.975 46.9046 193.135 46.0485C193.139 46.0033 193.139 45.9577 193.135 45.9124L193.177 45.4001C193.175 44.5799 192.881 43.7838 192.342 43.1369C191.803 42.49 191.05 42.0291 190.201 41.8265C189.351 41.6239 188.454 41.6912 187.65 42.0179C186.846 42.3445 186.18 42.9119 185.759 43.6308C184.956 42.5489 183.88 41.6689 182.627 41.069C183.1 40.7546 183.521 40.377 183.876 39.9482L183.919 39.9562ZM135.616 16.7318C135.628 16.7543 135.643 16.7757 135.659 16.7959L135.59 16.7078L135.616 16.7318ZM53.9931 66.495H53.9418C53.9686 66.5183 53.9972 66.5397 54.0274 66.559L53.9931 66.495ZM113.762 17.4924V17.5484V17.4924Z" fill="white"/>
<path d="M153.893 17.1001C153.343 17.0943 152.797 17.1991 152.294 17.4077C151.79 17.6163 151.341 17.9236 150.975 18.309C150.12 19.1496 149.974 19.8221 149.974 21.7034V35.6012C149.974 37.1383 150.231 37.9068 150.975 38.6834C151.756 39.4234 152.816 39.8462 153.928 39.8602C154.48 39.8463 155.025 39.7295 155.529 39.5164C156.033 39.3033 156.486 38.9983 156.862 38.6193C157.235 38.2033 157.515 37.7222 157.686 37.2042C157.858 36.6861 157.919 36.1412 157.864 35.6012V21.7034C157.864 19.8861 157.624 19.1175 156.828 18.277C156.452 17.9018 155.998 17.6036 155.493 17.401C154.987 17.1985 154.443 17.096 153.893 17.1001ZM188.976 17.1001C186.888 17.1001 185.476 19.4538 185.476 21.4072C185.439 22.4333 185.51 23.4605 185.69 24.4733C185.973 25.7943 186.657 26.9711 188.257 27.2593C189.857 27.5475 191.072 26.1225 191.74 24.4733C192.188 23.3829 192.44 22.2305 192.484 21.0629C192.484 19.1096 191.072 17.1001 188.993 17.1001H188.976ZM178.913 17.1001C178.277 17.1034 177.652 17.2507 177.09 17.5295C176.528 17.8083 176.047 18.2104 175.687 18.7013C175.114 19.5018 174.969 20.1503 174.969 21.6233V25.7863L173.822 24.4653L168.688 18.5732C168.365 18.1214 167.928 17.7503 167.417 17.4921C166.905 17.234 166.334 17.0967 165.753 17.0921C165.194 17.067 164.636 17.153 164.116 17.3446C163.595 17.5362 163.124 17.8289 162.733 18.2034C162.343 18.578 162.042 19.0258 161.85 19.5174C161.658 20.0089 161.579 20.533 161.62 21.0549V35.2169C161.62 36.818 161.808 37.5306 162.476 38.3632C162.851 38.8118 163.33 39.1751 163.877 39.4261C164.424 39.677 165.024 39.809 165.633 39.8122C166.215 39.8095 166.789 39.6878 167.316 39.4554C167.842 39.2231 168.307 38.8858 168.679 38.4672C169.029 38.0554 169.288 37.5833 169.442 37.0778C169.596 36.5723 169.642 36.0433 169.578 35.5211V30.7978L175.816 38.2831C176.166 38.7536 176.633 39.1373 177.177 39.4009C177.722 39.6645 178.326 39.8002 178.939 39.7962C179.532 39.8007 180.118 39.6791 180.653 39.4406C181.188 39.202 181.658 38.8527 182.028 38.4192C182.704 37.5786 182.884 36.818 182.884 35.0648V21.3752C182.98 20.3158 182.647 19.2613 181.951 18.4211C181.584 18.0046 181.125 17.6683 180.604 17.4359C180.084 17.2035 179.516 17.0807 178.939 17.0761L178.913 17.1001ZM141.965 28.18L144.703 24.4493L145.978 22.7201C146.38 22.1411 146.591 21.4648 146.586 20.7747C146.564 19.7961 146.137 18.8637 145.395 18.1738C144.652 17.4839 143.653 17.0904 142.607 17.0761C141.952 17.0768 141.309 17.2346 140.738 17.5346C140.167 17.8346 139.688 18.2666 139.347 18.7893L135.154 24.4733L134.889 24.8576V21.2631C134.943 20.736 134.878 20.2043 134.698 19.7023C134.518 19.2002 134.227 18.7392 133.845 18.349C133.472 17.9546 133.014 17.6391 132.5 17.4237C131.987 17.2083 131.43 17.098 130.867 17.1001C128.497 17.1001 126.922 18.7733 126.922 21.231V35.6012C126.922 38.187 128.463 39.8362 130.936 39.8362C133.408 39.8362 134.889 38.155 134.889 35.5772V31.7105L140.793 38.7314C141.144 39.088 141.572 39.3708 142.048 39.5613C142.525 39.7517 143.039 39.8454 143.557 39.8362C144.611 39.8194 145.617 39.4156 146.356 38.7117C147.096 38.0079 147.51 37.0604 147.51 36.0735C147.522 35.3399 147.252 34.6268 146.748 34.0641L141.965 28.18ZM119.35 17.0761C118.713 17.0794 118.086 17.2267 117.523 17.5055C116.959 17.7842 116.477 18.1862 116.115 18.6772C115.542 19.4778 115.396 20.1263 115.396 21.5993V25.7622L114.25 24.4413L109.116 18.5492C108.793 18.0969 108.357 17.7254 107.845 17.4672C107.334 17.209 106.762 17.072 106.181 17.0681C105.623 17.0441 105.066 17.131 104.546 17.3231C104.027 17.5152 103.557 17.8081 103.167 18.1825C102.777 18.557 102.477 19.0044 102.285 19.4954C102.094 19.9863 102.016 20.5097 102.056 21.0309V35.1929C102.056 36.794 102.236 37.5066 102.912 38.3391C103.277 38.7811 103.742 39.1408 104.275 39.3915C104.809 39.6422 105.395 39.7776 105.992 39.7876C106.588 39.7976 107.179 39.682 107.722 39.4492C108.264 39.2165 108.743 38.8727 109.124 38.4432C109.824 37.6087 110.146 36.5512 110.023 35.4971V30.7978L116.252 38.2831C116.604 38.7537 117.073 39.1373 117.619 39.4009C118.164 39.6645 118.77 39.8001 119.384 39.7962C119.975 39.8001 120.56 39.6781 121.094 39.4396C121.627 39.2011 122.096 38.8521 122.464 38.4192C123.14 37.5786 123.32 36.818 123.32 35.0648V21.3752C123.421 20.3154 123.087 19.2595 122.387 18.4211C122.023 18.0048 121.564 17.6685 121.045 17.4361C120.526 17.2037 119.959 17.0808 119.384 17.0761H119.35ZM64.8688 24.4493C64.9971 24.4974 65.1255 24.5374 65.2453 24.5934C66.0152 24.9487 66.6635 25.4983 67.1171 26.1802C67.5707 26.8621 67.8115 27.649 67.8123 28.4522C67.8063 29.1443 67.6285 29.8257 67.2929 30.4426C66.9573 31.0594 66.4731 31.5949 65.8785 32.0067C64.9544 32.6071 64.3041 32.7112 61.6001 32.7432V24.1451H62.2419C63.145 24.1044 64.0487 24.2128 64.9116 24.4653L64.8688 24.4493ZM74.8716 24.4493C74.215 22.7762 73.1276 21.2803 71.7056 20.0943C69.3132 18.1296 66.2005 17.1082 63.0205 17.2442H58.186C55.8842 17.2442 54.4124 18.0448 53.8477 19.702C53.668 20.1983 53.668 20.3985 53.668 22.2798V34.5925C53.6024 35.3955 53.6513 36.2032 53.8135 36.9942C53.9271 37.4159 54.1314 37.8117 54.4138 38.1571C54.6963 38.5026 55.051 38.7906 55.4563 39.0036C56.1666 39.4759 56.9281 39.612 58.7935 39.612H62.1221C63.4799 39.6299 64.8368 39.5389 66.178 39.3398C68.8598 38.8146 71.2657 37.4399 72.9898 35.4476C74.714 33.4553 75.6506 30.9675 75.6418 28.4041C75.6513 27.0368 75.3901 25.6797 74.8716 24.4013V24.4493ZM94.6035 17.0281C94.0145 17.0343 93.4346 17.1651 92.9071 17.4104C92.3796 17.6558 91.9182 18.0095 91.5573 18.4451C90.8471 19.2457 90.7016 19.75 90.7016 21.3912V30.3095C90.7016 31.8626 89.9059 32.7992 88.5453 32.7992C87.1848 32.7992 86.3976 31.8305 86.3976 30.2214V21.4152C86.3976 19.8141 86.1067 19.0135 85.3109 18.2129C84.9207 17.8237 84.4448 17.5184 83.9161 17.3182C83.3874 17.1181 82.8185 17.0278 82.2488 17.0537C81.6791 17.0796 81.1222 17.221 80.6167 17.4682C80.1112 17.7153 79.6692 18.0623 79.3212 18.4851C78.6366 19.3257 78.4655 19.8541 78.4655 21.9676V29.8531C78.4655 32.8072 78.9276 34.3843 80.3993 36.2577C81.2821 37.4095 82.4338 38.358 83.767 39.031C85.1003 39.7041 86.5799 40.0839 88.0936 40.1418C89.6072 40.1997 91.1151 39.9341 92.5026 39.3651C93.89 38.7961 95.1207 37.9387 96.101 36.8581C97.8123 35.0488 98.6166 32.8553 98.6166 29.8451V21.9916C98.6166 19.9742 98.437 19.3097 97.684 18.4691C97.2984 18.0551 96.8242 17.7215 96.2921 17.4898C95.76 17.2581 95.1818 17.1336 94.595 17.1242" fill="#F5731B"/>
<path d="M146.748 45.8884C146.727 45.1376 146.424 44.4179 145.893 43.8549C145.512 43.4493 145.046 43.1224 144.523 42.895C144 42.6675 143.432 42.5446 142.855 42.534C142.276 42.5424 141.706 42.671 141.187 42.9105C140.668 43.15 140.211 43.4945 139.852 43.919C139.313 44.4521 139.008 45.1548 138.996 45.8884C138.996 46.1605 138.996 46.4728 138.996 46.841V55.7833C138.996 57.3844 138.183 58.3451 136.763 58.3451C135.342 58.3451 134.538 57.3204 134.538 55.6873V46.809C134.538 46.4567 134.538 46.1445 134.495 45.8563C134.459 45.0321 134.096 44.2499 133.477 43.6628C132.726 42.9368 131.698 42.5192 130.619 42.502C130.028 42.519 129.449 42.6543 128.919 42.8987C128.389 43.1432 127.921 43.4911 127.547 43.919C127.069 44.4674 126.798 45.1486 126.777 45.8563C126.777 46.2566 126.734 46.7449 126.734 47.3774V55.287C126.734 58.201 127.188 59.7701 128.617 61.6114L128.659 61.6675C129.539 62.8145 130.686 63.759 132.014 64.4292C133.342 65.0995 134.816 65.4779 136.324 65.5358C137.831 65.5937 139.333 65.3295 140.716 64.7632C142.098 64.197 143.324 63.3436 144.301 62.2679C144.498 62.0598 144.686 61.8356 144.875 61.6114C146.25 59.7621 146.927 57.5367 146.8 55.287V47.2813C146.809 46.795 146.789 46.3085 146.74 45.8243" fill="#ED1F9A"/>
<path d="M189.224 45.208H188.574V44.0551H189.566C189.994 44.0551 190.465 44.1272 190.465 44.6235C190.465 45.28 189.712 45.208 189.224 45.208ZM189.806 45.5202C190.414 45.5202 190.893 45.264 190.893 44.6315C190.899 44.493 190.867 44.3552 190.8 44.2317C190.732 44.1082 190.632 44.0032 190.508 43.927C190.244 43.8009 189.948 43.7455 189.652 43.7669H188.129V47.0172H188.557V45.5202H189.335L189.584 45.8964L190.328 47.0172H190.824L190.046 45.8964L189.806 45.5202Z" fill="#ED1F9A"/>
<path d="M192.382 45.8885C192.416 45.7196 192.433 45.5481 192.433 45.3761C192.391 44.6328 192.046 43.9328 191.469 43.4205C190.892 42.9082 190.127 42.6226 189.331 42.6226C188.536 42.6226 187.77 42.9082 187.193 43.4205C186.616 43.9328 186.271 44.6328 186.229 45.3761C186.228 45.5485 186.248 45.7205 186.289 45.8885C186.41 46.5624 186.783 47.1744 187.341 47.6157C187.898 48.057 188.605 48.2992 189.335 48.2992C190.066 48.2992 190.773 48.057 191.33 47.6157C191.888 47.1744 192.26 46.5624 192.382 45.8885H192.005C191.883 46.4671 191.55 46.9882 191.064 47.3628C190.577 47.7373 189.966 47.9421 189.335 47.9421C188.705 47.9421 188.094 47.7373 187.607 47.3628C187.12 46.9882 186.788 46.4671 186.666 45.8885C186.636 45.7191 186.618 45.5479 186.614 45.3761C186.614 44.701 186.901 44.0534 187.411 43.576C187.922 43.0986 188.614 42.8303 189.335 42.8303C190.057 42.8303 190.749 43.0986 191.259 43.576C191.77 44.0534 192.056 44.701 192.056 45.3761C192.057 45.5481 192.04 45.7196 192.005 45.8885H192.382Z" fill="#ED1F9A"/>
<path d="M61.5659 49.8351V49.4669H62.2846C63.234 49.42 64.184 49.545 65.0827 49.8351L65.3737 49.9472C66.1489 50.3132 66.7998 50.8742 67.2533 51.5671C67.7067 52.26 67.9447 53.0575 67.9407 53.87C67.9327 54.5742 67.751 55.2672 67.4096 55.8949C67.0682 56.5226 66.5764 57.068 65.9726 57.4885C65.0143 58.1049 64.3468 58.209 61.6172 58.241H61.5659V49.8351ZM72.3046 61.6434C74.4802 59.5528 75.7067 56.7557 75.7273 53.8379C75.7247 52.4709 75.4611 51.1153 74.9487 49.8351C74.3532 48.3514 73.4187 47.0071 72.2105 45.8963L71.8083 45.5441C69.426 43.5858 66.3254 42.5671 63.1574 42.7021H58.2288C55.9441 42.7021 54.5066 43.5026 53.9504 45.1038C53.8542 45.3613 53.8022 45.6315 53.7963 45.9043C53.7963 46.2486 53.7963 46.7689 53.7963 47.6896V49.8431V60.0343C53.7963 60.8349 53.7963 61.3072 53.7963 61.6354C53.8018 61.9064 53.845 62.1755 53.9247 62.436C54.0425 62.8541 54.2495 63.2456 54.5333 63.5868C54.8171 63.928 55.1719 64.2119 55.5762 64.4214C56.2692 64.8777 57.0137 65.0138 58.879 65.0138H62.2162C63.5713 65.0358 64.9258 64.9447 66.2635 64.7416C68.3494 64.3225 70.2746 63.3818 71.834 62.0197C71.9823 61.9076 72.1278 61.7822 72.2704 61.6434H72.3046Z" fill="#ED1F9A"/>
<path d="M89.0074 58.3771C87.7304 58.3665 86.51 57.8829 85.6135 57.0321C84.7169 56.1812 84.2173 55.0327 84.2242 53.8379C84.2287 52.9799 84.5039 52.1423 85.0154 51.4302C85.5269 50.718 86.2519 50.1631 87.0992 49.8351C87.7013 49.5905 88.351 49.4651 89.0074 49.4668C89.6556 49.4642 90.2971 49.5897 90.8899 49.8351C91.7378 50.1642 92.4639 50.7189 92.978 51.4304C93.4921 52.142 93.7717 52.9791 93.7821 53.8379C93.7821 55.0264 93.2805 56.1668 92.3862 57.0109C91.492 57.855 90.2777 58.3345 89.0074 58.3451V58.3771ZM100.799 49.803C100.231 48.3413 99.3583 46.9997 98.2316 45.8563C97.0425 44.6808 95.6097 43.7445 94.0208 43.1046C92.4319 42.4648 90.7202 42.1348 88.9903 42.1348C87.2604 42.1348 85.5487 42.4648 83.9598 43.1046C82.3709 43.7445 80.9381 44.6808 79.749 45.8563C78.621 46.9958 77.7482 48.335 77.182 49.7951C76.7062 51.0467 76.4631 52.3654 76.4632 53.6938C76.4482 56.6055 77.578 59.4206 79.6378 61.6034C80.8162 62.842 82.2614 63.8332 83.8785 64.5119C85.4956 65.1907 87.2479 65.5416 89.0202 65.5416C90.7926 65.5416 92.5449 65.1907 94.162 64.5119C95.779 63.8332 97.2243 62.842 98.4027 61.6034C99.9189 60.0289 100.947 58.0972 101.377 56.0165C101.807 53.9357 101.622 51.7847 100.841 49.7951" fill="#ED1F9A"/>
<path d="M124.03 45.8885C123.976 45.1414 123.674 44.4288 123.166 43.8502C122.658 43.2716 121.97 42.8559 121.197 42.661C120.424 42.4662 119.606 42.502 118.856 42.7634C118.106 43.0248 117.462 43.4988 117.014 44.1192C116.621 44.6395 116.393 45.2526 116.355 45.8885C116.355 46.2087 116.303 46.5769 116.303 47.0093V51.3643L114.969 49.8192L111.546 45.8885L109.894 43.9911C109.577 43.5454 109.147 43.1794 108.642 42.9254C108.138 42.6714 107.575 42.537 107.002 42.5341C105.993 42.4816 105.003 42.8049 104.248 43.4334C103.492 44.0619 103.034 44.9446 102.972 45.8885C102.94 46.0711 102.926 46.2559 102.929 46.4409V60.6269C102.924 60.9662 102.939 61.3056 102.972 61.6436C102.978 62.1145 103.083 62.5798 103.281 63.0126C103.48 63.4454 103.768 63.8371 104.129 64.1653C104.49 64.4934 104.917 64.7515 105.385 64.9247C105.853 65.0978 106.353 65.1826 106.857 65.1741C107.429 65.1723 107.994 65.053 108.511 64.8248C109.029 64.5966 109.486 64.2649 109.852 63.8531C110.398 63.2293 110.699 62.4498 110.707 61.6436C110.707 61.4274 110.707 61.1953 110.707 60.9311V56.0396L115.379 61.6436L117.091 63.685C117.439 64.1465 117.9 64.5228 118.436 64.782C118.972 65.0412 119.568 65.1757 120.171 65.1741C120.672 65.1804 121.169 65.0939 121.634 64.9195C122.098 64.7451 122.521 64.4864 122.879 64.1581C123.236 63.8298 123.52 63.4386 123.715 63.007C123.91 62.5754 124.011 62.112 124.013 61.6436C124.013 61.3153 124.056 60.9311 124.056 60.4908V46.8091C124.058 46.5149 124.04 46.2208 124.005 45.9285" fill="#ED1F9A"/>
<path d="M167.892 45.8884C167.853 45.0999 167.511 44.3511 166.93 43.7791C166.348 43.2072 165.566 42.8504 164.726 42.7742C164.504 42.732 164.277 42.7105 164.05 42.7102H154.064C150.924 42.7102 150.642 42.7102 149.786 43.0785C149.224 43.3494 148.745 43.7507 148.396 44.2441C148.047 44.7375 147.839 45.3064 147.792 45.8964C147.792 45.9685 147.792 46.0406 147.792 46.1126C147.81 47.0143 148.2 47.8747 148.879 48.5143C149.272 48.8557 149.737 49.1168 150.244 49.2808C150.75 49.4448 151.288 49.5082 151.823 49.467H154.013V60.7629C154.013 61.0912 154.013 61.3794 154.013 61.6436C154.02 62.3578 154.246 63.0552 154.663 63.653C155.03 64.1289 155.514 64.5155 156.074 64.7802C156.634 65.0448 157.254 65.1799 157.881 65.1741C158.524 65.1835 159.158 65.0355 159.721 64.7448C160.284 64.4541 160.755 64.0308 161.09 63.5169C161.464 62.9514 161.681 62.3075 161.723 61.6436C161.723 61.3634 161.766 61.0511 161.766 60.6989V49.491H163.597C164.672 49.5842 165.746 49.2988 166.609 48.6904C166.997 48.3589 167.31 47.9577 167.529 47.5107C167.748 47.0637 167.868 46.5801 167.884 46.0886C167.884 46.0245 167.884 45.9685 167.884 45.9045" fill="#ED1F9A"/>
<path d="M182.986 52.8054C181.469 51.7321 179.747 50.9388 177.912 50.4677C177.321 50.3022 176.748 50.0851 176.201 49.8193C175.996 49.743 175.821 49.6102 175.699 49.4386C175.576 49.2671 175.513 49.0648 175.516 48.8586C175.518 48.61 175.624 48.3722 175.811 48.1957C175.998 48.0192 176.252 47.9181 176.517 47.9139C176.979 47.9139 177.373 48.098 178.229 48.7145C178.83 49.1771 179.51 49.5424 180.24 49.7952C180.628 49.9205 181.036 49.9827 181.446 49.9794C181.82 49.9816 182.192 49.9192 182.541 49.7952C183.137 49.5747 183.643 49.1847 183.988 48.6805C184.333 48.1763 184.501 47.5833 184.467 46.9853C184.47 46.6046 184.406 46.226 184.278 45.8645C183.5 43.7109 180.539 42.1418 176.851 42.1418C173.163 42.1418 170.459 43.5588 169.073 45.8645C168.429 46.9569 168.098 48.1872 168.115 49.435C168.115 49.5631 168.115 49.6832 168.115 49.7952C168.234 52.7013 169.946 54.6787 173.249 55.7675C173.89 56.0076 174.541 56.1998 175.183 56.3999C175.745 56.5515 176.283 56.7722 176.783 57.0564C176.978 57.1499 177.141 57.2923 177.254 57.4676C177.367 57.6429 177.426 57.8442 177.424 58.0491C177.434 58.1854 177.413 58.322 177.363 58.4502C177.312 58.5785 177.234 58.6954 177.132 58.7935C177.031 58.8915 176.908 58.9686 176.773 59.0196C176.638 59.0707 176.492 59.0946 176.346 59.0898C175.739 59.0898 175.491 58.9297 173.779 57.6968C173.032 57.0317 172.046 56.6519 171.015 56.6321C170.551 56.6278 170.091 56.7102 169.661 56.8744C169.231 57.0387 168.841 57.2815 168.512 57.5886C168.184 57.8957 167.925 58.261 167.749 58.6631C167.574 59.0652 167.485 59.4961 167.49 59.9304C167.491 60.5098 167.623 61.0825 167.875 61.6116C168.979 63.9092 172.307 65.5504 176.432 65.5504C179.367 65.5504 181.497 64.8138 183.098 63.3168C183.623 62.8132 184.065 62.2383 184.407 61.6116C185.025 60.5018 185.348 59.2686 185.348 58.017C185.371 57.0357 185.17 56.061 184.758 55.1582C184.347 54.2553 183.734 53.445 182.961 52.7813" fill="#ED1F9A"/>
<path d="M6.86253 22.5839C5.24843 22.5394 3.70662 21.9477 2.52424 20.9187C2.40354 21.3662 2.34317 21.8261 2.34454 22.2877V26.6828C2.97774 25.3858 4.47519 24.0329 6.86253 22.5839Z" fill="#F5731B"/>
<path d="M11.081 43.6468C9.15573 43.4066 7.92355 42.6781 7.40159 41.4692L2.5927 29.9972C2.50711 29.8808 2.43267 29.7575 2.37023 29.6289V59.8822C2.37474 61.3226 2.98831 62.7028 4.07693 63.7213C5.16555 64.7398 6.64073 65.3139 8.18026 65.3181H23.4284C22.8907 64.8066 22.4404 64.2207 22.0935 63.5809L11.081 43.6468Z" fill="#F5731B"/>
<path d="M24.9344 17.3482C19.422 18.5034 14.1399 20.4677 9.28408 23.1683C5.47632 25.2338 3.50828 27.1711 3.86766 28.404C3.87116 28.4386 3.87116 28.4735 3.86766 28.5081C3.88155 28.6402 3.91615 28.7697 3.97034 28.8923C4.01494 28.9878 4.06939 29.079 4.13292 29.1645C4.1637 29.21 4.1895 29.2583 4.20993 29.3086L9.08728 40.8608C9.37821 41.5413 10.3023 41.9496 11.834 42.0616C11.9608 42.0719 12.0828 42.1117 12.189 42.1774C12.2951 42.2431 12.3819 42.3327 12.4415 42.4379L23.6851 62.8203C25.8414 66.8231 32.0023 66.687 36.8112 64.8697C42.2191 62.8363 44.7005 59.3058 43.4341 55.4391L43.2459 54.7986C39.6263 42.3258 37.684 36.3136 36.6914 33.4716C36.6532 33.3534 36.648 33.228 36.6765 33.1074C36.705 32.9869 36.7661 32.8752 36.854 32.7831C37.8808 31.7183 38.2658 30.8297 37.9749 30.1492L33.1061 18.5891C33.0857 18.5428 33.0714 18.4944 33.0633 18.445C33.045 18.3361 33.0164 18.2289 32.9777 18.1248C32.9241 18.0053 32.8551 17.8924 32.7724 17.7885C32.7447 17.7597 32.7217 17.7274 32.7039 17.6924C32.0451 16.5556 29.2128 16.4275 24.9344 17.3562" fill="#552C05"/>
<path d="M15.2653 3.00211C14.5786 3.47426 14.0027 4.07303 13.573 4.76148C13.1433 5.44992 12.8688 6.21344 12.7667 7.00493C12.4073 9.33458 13.8192 10.8877 15.0685 12.2486C16.4204 13.7457 17.6355 15.0346 16.8654 17.2442C16.8299 17.3467 16.817 17.4548 16.8273 17.5621C16.8376 17.6694 16.8709 17.7736 16.9253 17.8686C16.9778 17.9664 17.0512 18.0531 17.141 18.1234C17.2308 18.1936 17.335 18.2458 17.4472 18.2769C17.5573 18.3112 17.6736 18.3244 17.7892 18.3154C17.9048 18.3064 18.0172 18.2754 18.1197 18.2245C18.2221 18.1736 18.3124 18.1037 18.3851 18.0191C18.4578 17.9346 18.5113 17.837 18.5425 17.7325C19.5522 14.6503 17.8066 12.729 16.3948 11.1919C14.9829 9.65481 14.2641 8.79018 14.4952 7.24509C14.5658 6.66622 14.7634 6.10723 15.0755 5.60306C15.3877 5.0989 15.8076 4.66042 16.3092 4.31504C17.4304 3.57007 18.786 3.19802 20.1597 3.25829C20.8388 3.33676 21.4754 3.6096 21.9824 4.03951C22.4894 4.46942 22.842 5.0354 22.992 5.65999C23.1018 6.06518 23.1308 6.48582 23.0776 6.90085C22.9633 7.75513 22.4965 8.53373 21.777 9.07038H21.7342C20.8785 9.49468 20.1597 9.49468 19.6977 9.07038C19.5096 8.90177 19.3791 8.68478 19.3227 8.44682C19.2664 8.20886 19.2867 7.96062 19.3811 7.73345C19.5522 7.42123 19.9886 7.30915 20.6132 7.41323C20.7272 7.43351 20.8443 7.43188 20.9576 7.40849C21.0709 7.38509 21.1779 7.3404 21.2721 7.27712C21.3669 7.21617 21.4476 7.13796 21.5093 7.04717C21.5711 6.95639 21.6126 6.85489 21.6315 6.74874C21.6548 6.64171 21.6545 6.53135 21.6305 6.42444C21.6066 6.31753 21.5595 6.21636 21.4921 6.12711C21.4248 6.03787 21.3387 5.96245 21.239 5.90552C21.1394 5.84859 21.0283 5.81134 20.9127 5.79607C20.3293 5.648 19.7099 5.68472 19.1512 5.90049C18.5924 6.11626 18.1257 6.49898 17.8237 6.98893C17.558 7.52815 17.4779 8.13127 17.5944 8.71495C17.7109 9.29863 18.0182 9.83404 18.474 10.2472C19.5094 11.1919 21.0411 11.288 22.6497 10.4794L22.761 10.4153C23.5902 9.82763 24.2164 9.02478 24.5618 8.10669C24.9072 7.18859 24.9564 6.19576 24.7034 5.25169C24.4566 4.31999 23.9171 3.47883 23.1545 2.83671C22.3919 2.19458 21.4412 1.78095 20.425 1.64915C18.5826 1.51306 16.7484 1.99244 15.2481 3.00211" fill="#552C05"/>
<path d="M5.09128 11.8883C4.35578 12.3229 3.72745 12.8988 3.248 13.5778C2.76855 14.2569 2.44892 15.0236 2.31033 15.8271C2.17582 16.9434 2.47996 18.0673 3.166 18.9893C3.53415 19.4876 4.00589 19.9114 4.55304 20.2354C5.1002 20.5593 5.71153 20.7767 6.35052 20.8746C6.9895 20.9725 7.64302 20.9489 8.27203 20.8051C8.90103 20.6614 9.49261 20.4005 10.0114 20.038H10.0542C11.5003 19.0213 11.4489 16.9399 10.5077 15.707C10.3036 15.423 10.0382 15.1823 9.72861 15.0001C9.41899 14.818 9.07203 14.6986 8.71008 14.6495C8.34812 14.6005 7.97921 14.623 7.6271 14.7155C7.27499 14.808 6.94749 14.9685 6.66572 15.1866C6.56737 15.2442 6.48256 15.3198 6.41643 15.4089C6.35029 15.4981 6.30421 15.5989 6.281 15.7052C6.2578 15.8115 6.25793 15.9212 6.28141 16.0274C6.30489 16.1337 6.35122 16.2344 6.41758 16.3234C6.48093 16.4127 6.56281 16.4892 6.65835 16.5483C6.75389 16.6075 6.86114 16.648 6.97376 16.6677C7.08845 16.6902 7.20688 16.6905 7.32169 16.6685C7.4365 16.6464 7.54524 16.6026 7.64119 16.5396C8.49686 16.0272 8.85625 16.3554 9.08728 16.6516C9.35763 17.0399 9.47557 17.504 9.42099 17.9646C9.39136 18.2488 9.24765 18.512 9.01883 18.7011C7.10211 19.8619 5.40787 19.2215 4.57787 18.0927C3.63662 16.8038 3.7222 14.8104 6.08386 13.2893C8.44553 11.7682 10.097 12.7209 10.8928 13.4014C12.3987 14.6903 12.9892 16.9399 12.1677 18.3168C12.1091 18.4098 12.0712 18.513 12.0562 18.62C12.0413 18.7271 12.0497 18.8359 12.0809 18.9398C12.1121 19.0438 12.1654 19.1407 12.2376 19.2249C12.3099 19.3091 12.3997 19.3787 12.5014 19.4296C12.6008 19.4845 12.7111 19.5199 12.8255 19.5339C12.9399 19.5479 13.0562 19.54 13.1673 19.5109C13.2784 19.4817 13.3821 19.4318 13.472 19.3642C13.562 19.2966 13.6364 19.2126 13.6908 19.1174C14.923 17.0599 14.2128 14.0258 12.0736 12.1925C10.0884 10.4953 7.47006 10.4073 5.08272 11.9443" fill="#552C05"/>
<path d="M29.6321 20.5425C21.9336 21.6595 14.6137 24.4208 8.24015 28.6122C7.25997 28.7774 6.25122 28.7114 5.30519 28.4201C5.57045 27.4994 9.46378 24.1531 17.5157 21.1669C25.5676 18.1808 30.7616 17.9887 31.6172 18.5331C31.1381 19.3453 30.4536 20.0352 29.6235 20.5425" fill="white"/>
<path d="M41.834 55.7835C42.9036 59.0418 40.2424 61.7557 36.2037 63.2768C31.9253 64.8779 26.7912 64.942 25.2424 61.9799C24.6948 60.9631 17.6355 48.8426 14.1871 42.0218C17.9604 41.5746 21.6562 40.6732 25.1825 39.3399C28.7161 38.0424 32.0598 36.3316 35.1341 34.2483C37.6412 41.4534 41.4746 54.7027 41.834 55.7835Z" fill="white"/>
<path d="M24.575 37.7706C17.1649 40.5325 11.5345 40.7327 10.6617 40.0762L6.57159 30.5495C10.3793 30.7976 16.3349 29.1084 20.2624 27.6594C24.19 26.2104 29.7347 23.6566 32.3189 20.9907L36.4005 30.5174C36.255 31.5662 32.0108 35.0166 24.6007 37.7706" fill="white"/>
<path d="M25.7473 48.282C25.5505 48.5302 25.3708 48.6102 24.5665 48.8264L23.4541 46.4247L23.6423 46.3687C23.9184 46.2848 24.208 46.2469 24.498 46.2566H24.6349C24.9073 46.2849 25.1667 46.3807 25.3863 46.5341C25.6059 46.6875 25.7778 46.8929 25.8842 47.1292C25.9684 47.32 26.0008 47.5274 25.9784 47.7328C25.956 47.9381 25.8795 48.1351 25.7558 48.306L25.7473 48.282ZM27.4672 45.3039C27.0614 44.8924 26.557 44.5769 25.9954 44.3833C25.0246 44.0734 23.9714 44.0734 23.0006 44.3833C22.4957 44.5114 21.9994 44.6315 21.4946 44.7355C20.7673 44.8876 20.4164 45.2079 20.4592 45.7042C20.4592 45.8563 20.502 45.9044 20.7502 46.4407C21.3149 47.5935 21.8625 48.7544 22.4615 49.9152C22.5554 50.1496 22.6789 50.3727 22.8294 50.5796C23.0165 50.8155 23.286 50.9826 23.591 51.052C23.9384 51.1589 24.3132 51.1589 24.6606 51.052L25.6361 50.8198C26.0326 50.7329 26.4173 50.604 26.7827 50.4355C27.3414 50.1426 27.7897 49.6952 28.0662 49.1546C28.2856 48.7319 28.4102 48.2716 28.4323 47.8021C28.4544 47.3326 28.3734 46.8638 28.1945 46.4247C28.0362 46.035 27.8011 45.6765 27.5014 45.368" fill="#F5731B"/>
<path d="M32.4729 45.7203C32.2761 46.0245 32.1135 46.1446 31.3691 46.5208C31.0439 45.7203 30.7273 44.8637 30.4022 44.0311L30.5904 43.951C30.8342 43.822 31.1009 43.7352 31.3776 43.6948C31.4143 43.6872 31.4522 43.6872 31.4889 43.6948C31.7443 43.6924 31.9934 43.7698 32.1964 43.9148C32.3995 44.0599 32.545 44.2642 32.6098 44.4954C32.6829 44.7088 32.7084 44.9341 32.6849 45.1571C32.6613 45.3802 32.5892 45.5963 32.4729 45.7923V45.7203ZM34.1158 42.2698C33.7771 41.884 33.3202 41.6046 32.8066 41.4692C31.8699 41.2724 30.8882 41.4155 30.0599 41.8695C29.5978 42.0937 29.1272 42.2938 28.6566 42.486C28.3759 42.5662 28.1292 42.7268 27.9511 42.9451C27.7731 43.1634 27.6727 43.4284 27.664 43.7028C27.701 43.9675 27.7848 44.2245 27.9121 44.4634C28.3913 45.6402 28.8791 46.817 29.3582 48.0019C29.4339 48.2387 29.5433 48.4648 29.6834 48.6743C29.7646 48.7827 29.8688 48.8742 29.9896 48.943C30.1103 49.0119 30.2449 49.0567 30.3851 49.0746C30.7306 49.1161 31.081 49.0454 31.3776 48.8745C31.6857 48.7384 31.9937 48.6103 32.2847 48.4662C32.6626 48.3048 33.0212 48.1062 33.3542 47.8738C33.8904 47.4388 34.3071 46.8897 34.5693 46.2726C34.9791 45.3195 35.0363 44.2656 34.7319 43.2785C34.5944 42.8976 34.3858 42.5426 34.1158 42.2298" fill="#ED1F9A"/>
</g>
<defs>
<clipPath id="clip0_28_482">
<rect width="195" height="68" fill="white"/>
</clipPath>
</defs>
</svg>
