<svg width="72" height="72" viewBox="0 0 72 72" fill="none" xmlns="http://www.w3.org/2000/svg">
<rect width="72" height="72" rx="36" fill="#F4F5F7"/>
<path d="M34.55 36C40.4048 36 45.15 31.2988 45.15 25.5C45.15 19.7012 40.4048 15 34.55 15C28.6952 15 23.95 19.7012 23.95 25.5C23.95 31.2988 28.6952 36 34.55 36ZM38.7486 39.9375H30.3514C22.4271 39.9375 16 46.3031 16 54.1535C16 55.7285 17.2853 57 18.8703 57H50.2314C51.8164 57 53.1 55.7285 53.1 54.1535C53.1 46.3031 46.6738 39.9375 38.7486 39.9375ZM67.0125 31.4062H63.0375V27.4688C63.0375 26.3859 62.1514 25.5 61.05 25.5C59.9486 25.5 59.0625 26.3818 59.0625 27.4688V31.4062H55.0875C53.9944 31.4062 53.1 32.2922 53.1 33.375C53.1 34.4578 53.9902 35.3438 55.0875 35.3438H59.0625V39.2812C59.0625 40.3723 59.9569 41.25 61.05 41.25C62.1431 41.25 63.0375 40.3682 63.0375 39.2812V35.3438H67.0125C68.1139 35.3438 69 34.466 69 33.375C69 32.284 68.1139 31.4062 67.0125 31.4062Z" fill="#52CC6D"/>
</svg>
