<svg width="72" height="72" viewBox="0 0 72 72" fill="none" xmlns="http://www.w3.org/2000/svg">
<rect width="72" height="72" rx="36" fill="#F4F5F7"/>
<path d="M20.6667 18C21.5851 18 22.3757 18.5759 22.5514 19.3718L22.6712 20.25H56.2687C57.8899 20.25 59.1837 21.6738 58.7285 23.1089L54.416 36.6117C54.1045 37.582 53.0983 38.25 51.9562 38.25H26.6323L27.367 41.625H51.9722C53.0344 41.625 53.8889 42.3773 53.8889 43.3125C53.8889 44.2477 53.0344 45 51.9722 45H25.7059C24.8594 45 24.0687 44.4234 23.8931 43.6289L19.0806 21.375H14.9167C13.8585 21.375 13 20.6191 13 19.6875C13 18.7559 13.8585 18 14.9167 18H20.6667ZM34.7222 30.6562H38.2361V33.75C38.2361 34.5234 38.883 35.1562 39.8333 35.1562C40.7118 35.1562 41.4306 34.5234 41.4306 33.75V30.6562H44.9444C45.8229 30.6562 46.5417 30.0234 46.5417 29.25C46.5417 28.4133 45.8229 27.8438 44.9444 27.8438H41.4306V24.75C41.4306 23.973 40.7118 23.3438 39.8333 23.3438C38.883 23.3438 38.2361 23.973 38.2361 24.75V27.8438H34.7222C33.7719 27.8438 33.125 28.4133 33.125 29.25C33.125 30.0234 33.7719 30.6562 34.7222 30.6562ZM23.2222 50.625C23.2222 48.7617 24.9392 47.25 27.0556 47.25C29.1719 47.25 30.8889 48.7617 30.8889 50.625C30.8889 52.4883 29.1719 54 27.0556 54C24.9392 54 23.2222 52.4883 23.2222 50.625ZM53.8889 50.625C53.8889 52.4883 52.1719 54 50.0556 54C47.9392 54 46.2222 52.4883 46.2222 50.625C46.2222 48.7617 47.9392 47.25 50.0556 47.25C52.1719 47.25 53.8889 48.7617 53.8889 50.625Z" fill="#52CC6D"/>
</svg>
