<svg width="72" height="72" viewBox="0 0 72 72" fill="none" xmlns="http://www.w3.org/2000/svg">
<rect width="72" height="72" rx="36" fill="#F4F5F7"/>
<path d="M33.4078 60.7C27.6984 54.1797 15 38.3766 15 29.5C15 18.7303 24.4019 10 36 10C47.5938 10 57 18.7303 57 29.5C57 38.3766 44.2031 54.1797 38.5922 60.7C37.2469 62.2539 34.7531 62.2539 33.4078 60.7ZM36 36C39.8609 36 43 33.0852 43 29.5C43 25.9148 39.8609 23 36 23C32.1391 23 29 25.9148 29 29.5C29 33.0852 32.1391 36 36 36Z" fill="#52CC6D"/>
</svg>
