<svg width="72" height="72" viewBox="0 0 72 72" fill="none" xmlns="http://www.w3.org/2000/svg">
<rect width="72" height="72" rx="36" fill="#F4F5F7"/>
<path d="M53.8889 15.6875C56.708 15.6875 59 18.0937 59 21.0625V23.75H13V21.0625C13 18.0937 15.288 15.6875 18.1111 15.6875H53.8889ZM59 47.9375C59 50.9021 56.708 53.3125 53.8889 53.3125H18.1111C15.288 53.3125 13 50.9021 13 47.9375V31.8125H59V47.9375ZM21.9444 42.5625C21.2417 42.5625 20.6667 43.1672 20.6667 43.9062C20.6667 44.6453 21.2417 45.25 21.9444 45.25H27.0556C27.7583 45.25 28.3333 44.6453 28.3333 43.9062C28.3333 43.1672 27.7583 42.5625 27.0556 42.5625H21.9444ZM32.1667 45.25H42.3889C43.0917 45.25 43.6667 44.6453 43.6667 43.9062C43.6667 43.1672 43.0917 42.5625 42.3889 42.5625H32.1667C31.4639 42.5625 30.8889 43.1672 30.8889 43.9062C30.8889 44.6453 31.4639 45.25 32.1667 45.25Z" fill="#52CC6D"/>
</svg>
