<svg width="540" height="522" viewBox="0 0 540 522" fill="none" xmlns="http://www.w3.org/2000/svg">
<ellipse cx="270" cy="261" rx="270" ry="261" fill="#3BE2AB" fill-opacity="0.4"/>
<path d="M183.07 448.769C181.751 448.826 180.488 449.344 179.484 450.241C178.479 451.138 177.791 452.362 177.528 453.718C176.974 455.896 176.539 458.106 176.224 460.337C176.224 460.337 171.22 465.053 176.224 466.312C181.228 467.572 183.044 460.506 183.044 460.506L183.811 448.734L183.07 448.769Z" fill="#FFBE9D"/>
<path d="M233.18 358.508C233.18 358.508 248.815 303.494 250.409 301.127C253.034 297.205 278.345 285.415 278.345 285.415L285.165 270.909L327.202 263.825L337.628 277.885L366.929 300.448L364.883 378.266L363.792 432.602L369.341 500.434L236.266 500.175L242.284 485.883L248.601 362.51L233.18 358.508Z" fill="#3BE2AB"/>
<path d="M251.21 351.085C251.171 350.94 251.154 350.789 251.159 350.639C251.159 350.29 251.159 349.87 251.091 349.361C251.091 348.254 250.997 346.682 250.963 344.672C250.895 340.706 250.895 335.23 251.057 329.183C251.219 323.136 251.526 317.669 251.815 313.712C251.952 311.738 252.088 310.139 252.199 309.041L252.327 307.772C252.34 307.624 252.366 307.478 252.404 307.335C252.428 307.482 252.428 307.633 252.404 307.781C252.404 308.121 252.404 308.54 252.353 309.05C252.293 310.229 252.208 311.81 252.105 313.739C251.901 317.696 251.645 323.154 251.483 329.201C251.321 335.248 251.27 340.706 251.261 344.672C251.261 346.601 251.261 348.182 251.261 349.361C251.261 349.87 251.261 350.255 251.261 350.639C251.265 350.789 251.247 350.94 251.21 351.085V351.085Z" fill="#263238"/>
<g opacity="0.3">
<path opacity="0.3" d="M281.355 335.284C281.322 334.668 281.494 334.059 281.841 333.56C282.424 332.811 283.224 332.28 284.121 332.048C285.017 331.816 285.961 331.895 286.811 332.274C289.036 333.39 290.144 336.07 290.596 338.616C291.082 341.403 291.013 344.279 291.516 347.066C292.019 349.853 293.221 352.693 295.566 354.131C298.456 355.918 302.249 355.114 305.284 356.614C309.803 358.839 310.851 364.993 311.081 370.227C311.508 380.133 311.081 390.048 310.689 399.954L308.081 463.213L305.702 494.95L293.46 500.398L277.263 388.878L281.355 335.284Z" fill="black"/>
</g>
<path d="M284.858 326.244C284.767 326.327 284.659 326.388 284.543 326.423C284.21 326.548 283.853 326.585 283.503 326.53C282.862 326.411 282.265 326.111 281.775 325.663C281.285 325.214 280.922 324.634 280.724 323.985C280.461 323.095 280.377 322.158 280.477 321.233C280.589 320.198 280.754 319.169 280.971 318.152C281.38 315.99 281.823 313.632 282.301 311.158C283.256 306.2 284.142 301.716 284.807 298.474L285.66 294.642C285.742 294.169 285.859 293.703 286.009 293.248C285.992 293.73 285.932 294.208 285.83 294.678C285.651 295.669 285.43 296.973 285.157 298.545C284.569 301.797 283.725 306.29 282.77 311.247C282.284 313.721 281.823 316.079 281.406 318.232C280.988 320.385 280.553 322.332 281.056 323.886C281.228 324.493 281.551 325.041 281.991 325.474C282.432 325.907 282.974 326.21 283.563 326.352C283.997 326.417 284.439 326.38 284.858 326.244V326.244Z" fill="#263238"/>
<path d="M289.172 305.548C289.172 305.593 288.822 305.593 288.243 305.78C287.429 306.062 286.714 306.591 286.188 307.299C285.793 307.802 285.527 308.402 285.416 309.044C285.306 309.685 285.354 310.345 285.557 310.961C285.78 311.725 286.217 312.402 286.812 312.902C287.406 313.403 288.131 313.705 288.891 313.768C289.651 313.832 290.412 313.654 291.075 313.259C291.738 312.863 292.272 312.268 292.608 311.551C292.901 310.977 293.049 310.334 293.037 309.683C293.025 309.033 292.854 308.396 292.539 307.835C292.13 307.046 291.503 306.405 290.741 305.995C290.195 305.709 289.888 305.655 289.888 305.611C289.888 305.566 289.973 305.611 290.135 305.611C290.376 305.645 290.612 305.714 290.834 305.816C291.675 306.186 292.378 306.832 292.838 307.656C293.164 308.225 293.365 308.863 293.426 309.523C293.493 310.289 293.345 311.059 293 311.738C292.634 312.541 292.045 313.208 291.309 313.653C290.574 314.097 289.727 314.297 288.881 314.226C288.035 314.156 287.229 313.818 286.57 313.257C285.911 312.696 285.43 311.939 285.191 311.086C284.951 310.358 284.921 309.572 285.105 308.826C285.302 308.047 285.695 307.337 286.242 306.77C286.789 306.203 287.471 305.8 288.217 305.602C288.453 305.536 288.697 305.506 288.942 305.512C289.02 305.51 289.098 305.522 289.172 305.548V305.548Z" fill="#263238"/>
<path d="M303.485 362.42L226.624 347.843L190.751 356.087L271.039 371.237L303.485 362.42Z" fill="#3BE2AB"/>
<g opacity="0.6">
<path opacity="0.6" d="M303.485 362.42L226.624 347.843L190.751 356.087L271.039 371.237L303.485 362.42Z" fill="black"/>
</g>
<path d="M254.339 397.542C255.379 382.697 259.266 344.993 262.182 330.425C263.034 326.066 264.057 321.608 266.444 317.919C268.831 314.23 273.043 311.533 277.237 312.212C280.988 312.819 284.006 316.008 285.523 319.652C287.006 323.339 287.668 327.332 287.459 331.327C286.734 349.334 285.251 369.504 285.268 386.198" fill="#455A64"/>
<path d="M280.366 362.188C279.433 362.555 278.482 362.871 277.518 363.135C272.93 364.62 268.539 366.706 264.449 369.343C263.625 369.932 262.771 370.474 261.892 370.969C261.892 370.969 262.088 370.745 262.497 370.406C262.906 370.066 263.512 369.611 264.279 369.066C266.293 367.664 268.412 366.434 270.613 365.386C272.816 364.337 275.097 363.479 277.433 362.822C278.328 362.572 279.061 362.393 279.564 362.295C279.826 362.223 280.095 362.187 280.366 362.188Z" fill="#263238"/>
<path d="M281.644 345.056C281.644 345.127 280.494 345.395 278.652 345.994C273.846 347.542 269.356 350.013 265.413 353.283C263.904 354.533 263.026 355.391 262.975 355.337C263.134 355.092 263.32 354.867 263.529 354.667C263.904 354.256 264.475 353.693 265.234 353.032C267.163 351.304 269.27 349.806 271.517 348.566C273.764 347.33 276.134 346.356 278.584 345.663C279.322 345.447 280.07 345.271 280.826 345.136C281.093 345.066 281.369 345.038 281.644 345.056Z" fill="#263238"/>
<path d="M279.922 331.264C279.922 331.345 279.01 331.389 277.569 331.666C275.696 332.03 273.88 332.665 272.173 333.551C270.47 334.447 268.893 335.583 267.484 336.927C266.402 337.964 265.779 338.714 265.779 338.651C265.779 338.589 265.882 338.428 266.129 338.08C266.479 337.586 266.864 337.121 267.28 336.686C270.039 333.776 273.632 331.893 277.51 331.327C278.092 331.242 278.678 331.2 279.266 331.202C279.692 331.211 279.914 331.229 279.922 331.264Z" fill="#263238"/>
<path d="M270.366 374.211C270.362 374.238 270.362 374.265 270.366 374.291V425.831C270.366 428.091 268.661 430.422 265.43 432.191C262.199 433.959 257.587 435.165 251.79 435.174H251.713C240.076 435.174 233.12 430.36 233.12 425.831V374.291C233.122 374.265 233.122 374.238 233.12 374.211C233.12 374.211 233.12 374.149 233.12 374.113C233.12 369.075 236.675 363.814 240.238 358.615C242.625 355.149 243.197 350.147 243.307 347.218C243.307 346.86 243.307 346.548 243.307 346.262H242.983C242.645 346.292 242.304 346.252 241.98 346.142C241.656 346.033 241.357 345.857 241.099 345.625C240.841 345.393 240.63 345.109 240.477 344.791C240.325 344.472 240.235 344.125 240.213 343.77V341.59C240.233 341.233 240.322 340.884 240.473 340.563C240.624 340.243 240.835 339.957 241.093 339.723C241.351 339.489 241.652 339.312 241.976 339.201C242.301 339.091 242.643 339.05 242.983 339.08H260.46C260.979 339.062 261.493 339.196 261.944 339.465C262.396 339.735 262.767 340.13 263.017 340.608C263.157 340.915 263.23 341.25 263.23 341.59V343.77C263.208 344.126 263.118 344.474 262.965 344.793C262.812 345.112 262.6 345.396 262.341 345.629C262.082 345.861 261.782 346.036 261.457 346.145C261.133 346.254 260.791 346.293 260.451 346.262H260.136C260.136 346.548 260.136 346.86 260.136 347.218C260.247 350.147 260.818 355.149 263.213 358.615C266.768 363.814 270.306 369.075 270.332 374.113C270.366 374.149 270.366 374.193 270.366 374.211Z" fill="#FAFAFA"/>
<path d="M270.366 374.211C270.377 374.036 270.377 373.86 270.366 373.684C270.335 373.169 270.275 372.656 270.187 372.148C269.778 370.188 269.091 368.303 268.149 366.556C266.636 363.782 264.956 361.112 263.12 358.562C262.034 356.878 261.259 354.997 260.835 353.015C260.329 350.805 260.066 348.543 260.051 346.271V346.11H260.204C260.85 346.155 261.495 345.997 262.054 345.654C262.335 345.484 262.577 345.251 262.763 344.971C262.948 344.692 263.073 344.373 263.128 344.038C263.128 343.35 263.128 342.573 263.128 341.831C263.158 341.474 263.104 341.114 262.972 340.782C262.84 340.451 262.633 340.158 262.369 339.929C261.812 339.455 261.108 339.214 260.392 339.25H253.316H243.248C242.834 339.212 242.418 339.267 242.027 339.412C241.636 339.557 241.279 339.788 240.98 340.09C240.695 340.399 240.505 340.791 240.435 341.215C240.412 341.67 240.412 342.126 240.435 342.582C240.435 343.037 240.435 343.555 240.435 343.975C240.495 344.409 240.679 344.814 240.963 345.136C241.268 345.461 241.638 345.71 242.047 345.865C242.455 346.019 242.892 346.076 243.325 346.03H243.529V346.253C243.515 348.355 243.298 350.45 242.881 352.505C242.468 354.645 241.669 356.682 240.528 358.508C239.326 360.294 238.09 362.081 236.948 363.975C235.766 365.856 234.793 367.873 234.049 369.986C233.688 371.059 233.456 372.175 233.359 373.309C233.299 374.425 233.359 375.622 233.359 376.784V398.489C233.359 407.162 233.359 415.639 233.359 423.821C233.313 424.821 233.358 425.823 233.495 426.814C233.735 427.757 234.195 428.622 234.834 429.332C236.119 430.764 237.679 431.893 239.412 432.646C241.112 433.392 242.884 433.946 244.697 434.299C246.473 434.651 248.271 434.863 250.076 434.933C253.554 435.119 257.038 434.785 260.426 433.942C262.044 433.528 263.613 432.929 265.106 432.155C266.551 431.433 267.844 430.416 268.908 429.163C269.405 428.548 269.785 427.838 270.025 427.073C270.204 426.299 270.267 425.5 270.212 424.706V419.954C270.212 416.854 270.212 413.871 270.212 411.021C270.212 399.659 270.264 390.477 270.281 384.081C270.298 377.686 270.357 374.202 270.357 374.202C270.383 374.419 270.383 374.638 270.357 374.854C270.357 375.301 270.357 375.935 270.357 376.757C270.357 378.445 270.357 380.91 270.357 384.081C270.357 390.459 270.357 399.659 270.426 411.021C270.426 413.862 270.426 416.845 270.426 419.954V425.92C270.415 426.347 270.352 426.77 270.238 427.18C269.987 427.996 269.584 428.752 269.053 429.404C267.963 430.704 266.631 431.759 265.14 432.503C263.624 433.278 262.032 433.877 260.392 434.29C257.01 435.138 253.533 435.487 250.059 435.326C248.234 435.26 246.415 435.048 244.62 434.692C242.776 434.332 240.973 433.769 239.241 433.013C237.447 432.255 235.83 431.1 234.501 429.627C233.814 428.875 233.318 427.953 233.06 426.948C232.908 425.923 232.857 424.884 232.907 423.848V376.801C232.907 375.622 232.907 374.479 232.907 373.291C233.01 372.121 233.251 370.969 233.623 369.861C234.378 367.712 235.368 365.662 236.573 363.751C237.715 361.849 238.968 360.053 240.162 358.276C241.27 356.491 242.045 354.503 242.446 352.416C242.857 350.395 243.077 348.337 243.103 346.271L243.299 346.476C242.812 346.521 242.322 346.453 241.863 346.275C241.404 346.097 240.989 345.815 240.648 345.449C240.307 345.067 240.09 344.583 240.025 344.064C240.025 343.537 240.025 343.1 240.025 342.617C240 342.138 240 341.658 240.025 341.179C240.114 340.677 240.342 340.214 240.682 339.848C241.019 339.507 241.421 339.244 241.862 339.078C242.302 338.912 242.772 338.845 243.239 338.884H253.307H260.34C261.133 338.853 261.909 339.126 262.523 339.652C262.82 339.914 263.053 340.247 263.201 340.624C263.349 341 263.409 341.408 263.375 341.813C263.375 342.582 263.375 343.287 263.375 344.064C263.316 344.446 263.176 344.809 262.967 345.127C262.758 345.445 262.484 345.71 262.165 345.905C261.556 346.274 260.855 346.442 260.153 346.387L260.289 346.244C260.366 350.951 261.236 355.31 263.265 358.401C265.089 360.964 266.752 363.65 268.243 366.44C269.18 368.205 269.847 370.113 270.221 372.094C270.303 372.623 270.352 373.157 270.366 373.693C270.395 373.864 270.395 374.04 270.366 374.211V374.211Z" fill="#263238"/>
<path d="M259.181 346.137C256.596 346.372 254 346.45 251.406 346.369C248.81 346.449 246.211 346.372 243.623 346.137C246.211 345.907 248.81 345.829 251.406 345.904C254 345.829 256.596 345.907 259.181 346.137Z" fill="#263238"/>
<path d="M268.814 381.098C267.246 380.026 265.174 380.499 263.486 381.339C261.798 382.179 260.204 383.349 258.371 383.652C256.214 384.019 254.04 383.117 252.122 381.982C250.204 380.848 248.388 379.445 246.325 378.668C244.324 377.96 242.174 377.854 240.118 378.362C238.063 378.871 236.184 379.973 234.697 381.544V425.795C234.697 425.795 237.016 433.343 253.35 432.164C269.684 430.985 268.396 423.419 268.396 423.419L268.814 381.098Z" fill="#3BE2AB"/>
<path d="M225.541 350.978C225.783 349.345 225.713 347.677 225.336 346.073C224.959 344.468 224.282 342.957 223.344 341.628C222.406 340.299 221.226 339.178 219.872 338.33C218.518 337.482 217.017 336.923 215.456 336.686C215.17 336.609 214.867 336.644 214.604 336.785C214.254 337.035 214.246 337.562 214.28 337.999C214.565 341.191 215.808 344.207 217.829 346.614C219.851 349.02 222.547 350.695 225.533 351.398" fill="#455A64"/>
<path d="M208.773 374.122C211.79 380.642 216.13 385.037 221.509 385.251C222.583 385.251 223.393 384.546 224.416 384.483C225.011 384.629 225.584 384.857 226.121 385.162C226.391 385.287 226.679 385.359 226.974 385.376C232.532 385.064 237.263 380.973 240.452 374.122C244.893 364.537 243.521 354.238 237.391 351.103C236.587 350.683 235.748 350.339 234.885 350.076C233.893 349.797 232.868 349.67 231.841 349.701C229.471 349.878 227.142 350.438 224.936 351.362L224.638 351.478C219.651 349.174 215.678 349.156 211.85 351.112C205.687 354.238 204.323 364.537 208.773 374.122Z" fill="#3BE2AB"/>
<path d="M208.875 364.412C208.584 363.811 208.41 363.155 208.363 362.483C208.182 360.86 208.369 359.216 208.91 357.684C209.451 356.152 210.33 354.775 211.475 353.667C211.927 353.187 212.466 352.807 213.061 352.55C213.061 352.621 212.498 353.032 211.688 353.899C210.653 355.033 209.85 356.376 209.327 357.847C208.808 359.32 208.587 360.889 208.679 362.456C208.747 363.653 208.986 364.385 208.875 364.412Z" fill="#FAFAFA"/>
<path d="M210.009 368.968C209.889 368.968 209.685 368.548 209.557 367.958C209.429 367.369 209.421 366.878 209.557 366.851C209.693 366.824 209.872 367.271 210.009 367.86C210.145 368.45 210.128 368.941 210.009 368.968Z" fill="#FAFAFA"/>
<path d="M238.209 335.284C238.209 335.364 237.067 335.829 235.337 336.918C234.33 337.553 233.372 338.27 232.472 339.062C231.377 340.041 230.365 341.117 229.446 342.278C228.545 343.455 227.741 344.71 227.042 346.03C226.481 347.111 226.003 348.237 225.61 349.397C224.936 351.38 224.757 352.684 224.646 352.666C224.646 352.366 224.678 352.066 224.74 351.773C224.782 351.414 224.85 351.058 224.945 350.71C225.043 350.239 225.165 349.774 225.311 349.317C225.67 348.121 226.129 346.961 226.684 345.851C228.046 343.118 229.929 340.707 232.216 338.768C233.145 337.974 234.141 337.271 235.192 336.668C235.626 336.391 236.044 336.204 236.419 336.016C236.728 335.854 237.047 335.714 237.374 335.597C237.64 335.458 237.92 335.353 238.209 335.284V335.284Z" fill="#263238"/>
<path d="M190.742 356.096L181.083 483.757L271.108 506.561C271.108 506.561 302.514 495.405 302.94 494.646C303.366 493.886 303.486 362.447 303.486 362.447L271.031 371.263L190.742 356.096Z" fill="#3BE2AB"/>
<g opacity="0.4">
<path opacity="0.4" d="M190.742 356.096L181.083 483.757L271.108 506.561C271.108 506.561 302.514 495.405 302.94 494.646C303.366 493.886 303.486 362.447 303.486 362.447L271.031 371.263L190.742 356.096Z" fill="black"/>
</g>
<path d="M331.942 207.391L326.921 281.895C326.526 287.758 324.025 293.246 319.921 297.252C315.817 301.259 310.416 303.486 304.807 303.485V303.485C301.77 303.492 298.764 302.844 295.976 301.584C293.188 300.323 290.677 298.475 288.598 296.155C286.52 293.835 284.919 291.092 283.894 288.097C282.87 285.101 282.443 281.917 282.642 278.742C283.085 271.65 283.494 265.835 283.494 265.835C283.494 265.835 266.282 263.03 266.069 244.996C265.95 234.581 267.663 210.946 269.13 192.84C269.611 186.926 272.197 181.418 276.374 177.409C280.551 173.399 286.014 171.182 291.678 171.197H302.07C306.32 171.458 310.477 172.61 314.295 174.583C318.113 176.556 321.515 179.311 324.3 182.685C327.084 186.059 329.195 189.984 330.508 194.227C331.821 198.471 332.308 202.947 331.942 207.391V207.391Z" fill="#FFBE9D"/>
<path d="M283.529 265.835C283.529 265.835 294.381 266.505 305.941 258.894C305.941 258.894 300.4 272.016 283.222 270.39L283.529 265.835Z" fill="#EB996E"/>
<path d="M272.395 211.437C272.702 211.776 274.56 210.329 277.212 210.338C279.863 210.347 281.789 211.732 282.079 211.392C282.216 211.241 281.909 210.642 281.065 209.99C279.919 209.164 278.56 208.724 277.169 208.731C275.793 208.733 274.451 209.185 273.333 210.026C272.523 210.687 272.25 211.294 272.395 211.437Z" fill="#263238"/>
<path d="M301.056 214.626C301.053 215.296 301.299 215.942 301.741 216.426C302.182 216.911 302.787 217.198 303.426 217.225C303.74 217.253 304.057 217.215 304.357 217.113C304.657 217.01 304.934 216.846 305.172 216.63C305.411 216.413 305.605 216.149 305.745 215.852C305.884 215.556 305.965 215.233 305.983 214.903C305.99 214.231 305.746 213.583 305.304 213.097C304.861 212.612 304.254 212.327 303.613 212.303C303.299 212.274 302.982 212.312 302.681 212.413C302.381 212.515 302.103 212.679 301.864 212.896C301.626 213.113 301.431 213.378 301.292 213.675C301.153 213.972 301.073 214.295 301.056 214.626Z" fill="#263238"/>
<path d="M274.782 214.626C274.777 215.297 275.022 215.944 275.464 216.429C275.906 216.914 276.512 217.2 277.152 217.225C277.466 217.255 277.783 217.217 278.084 217.115C278.384 217.013 278.662 216.849 278.901 216.633C279.139 216.416 279.334 216.151 279.473 215.854C279.612 215.557 279.692 215.233 279.709 214.903C279.719 214.232 279.477 213.584 279.035 213.098C278.594 212.612 277.988 212.327 277.348 212.304C277.032 212.272 276.714 212.307 276.412 212.408C276.11 212.509 275.831 212.673 275.591 212.89C275.351 213.107 275.156 213.373 275.016 213.671C274.877 213.969 274.798 214.294 274.782 214.626Z" fill="#263238"/>
<path d="M298.132 211.446C298.439 211.776 300.306 210.329 302.948 210.338C305.591 210.347 307.526 211.732 307.816 211.392C307.953 211.241 307.646 210.642 306.802 209.99C305.656 209.164 304.297 208.724 302.906 208.731C301.529 208.733 300.188 209.185 299.069 210.026C298.26 210.687 297.987 211.294 298.132 211.446Z" fill="#263238"/>
<path d="M288.533 231.99C288.533 231.838 286.904 231.544 284.27 231.186C283.597 231.106 282.957 230.972 282.847 230.49C282.785 229.759 282.94 229.026 283.29 228.391L285.293 223.031C288.064 215.358 290.076 209.052 289.777 208.936C289.479 208.82 286.99 214.947 284.219 222.62C283.509 224.484 282.869 226.28 282.301 228.007C281.882 228.863 281.759 229.844 281.951 230.784C282.05 231.035 282.202 231.258 282.396 231.437C282.589 231.617 282.819 231.748 283.068 231.821C283.441 231.927 283.824 231.984 284.211 231.99C286.862 232.142 288.524 232.151 288.533 231.99Z" fill="#263238"/>
<path d="M296.316 233.911C295.89 233.911 295.881 236.894 293.426 239.029C290.971 241.164 287.91 240.815 287.885 241.253C287.885 241.441 288.567 241.834 289.863 241.878C291.544 241.901 293.18 241.303 294.483 240.19C295.731 239.115 296.535 237.575 296.725 235.894C296.836 234.643 296.512 233.893 296.316 233.911Z" fill="#263238"/>
<path d="M297.45 202.433C297.714 203.183 300.348 202.826 303.417 203.219C306.486 203.612 309.035 204.497 309.445 203.827C309.632 203.505 309.189 202.79 308.183 202.04C306.838 201.133 305.307 200.573 303.716 200.406C302.128 200.203 300.518 200.403 299.018 200.986C297.91 201.486 297.339 202.076 297.45 202.433Z" fill="#263238"/>
<path d="M272.761 203.505C273.23 204.139 275.055 203.505 277.246 203.451C279.437 203.398 281.287 203.88 281.721 203.219C281.9 202.898 281.61 202.263 280.801 201.674C279.713 200.957 278.445 200.596 277.161 200.637C275.876 200.678 274.632 201.12 273.588 201.906C272.813 202.549 272.557 203.201 272.761 203.505Z" fill="#263238"/>
<path d="M326.137 220.95C326.435 220.816 337.969 217.288 337.594 229.614C337.219 241.941 325.48 239.002 325.472 238.654C325.463 238.306 326.137 220.95 326.137 220.95Z" fill="#FFBE9D"/>
<path d="M329.188 234.072C329.24 234.072 329.393 234.232 329.734 234.411C330.214 234.644 330.761 234.673 331.26 234.491C332.522 234.054 333.63 232.026 333.749 229.802C333.817 228.747 333.654 227.69 333.272 226.711C333.174 226.322 332.986 225.963 332.727 225.666C332.467 225.369 332.142 225.142 331.78 225.005C331.546 224.932 331.295 224.947 331.07 225.048C330.846 225.149 330.662 225.33 330.553 225.559C330.382 225.898 330.45 226.149 330.391 226.166C330.331 226.184 330.143 225.952 330.254 225.443C330.332 225.141 330.503 224.874 330.74 224.684C331.072 224.438 331.482 224.339 331.882 224.407C332.362 224.525 332.806 224.768 333.171 225.115C333.537 225.462 333.812 225.901 333.971 226.39C334.436 227.477 334.644 228.666 334.576 229.855C334.423 232.339 333.136 234.616 331.422 235.081C331.103 235.165 330.769 235.174 330.446 235.106C330.123 235.038 329.819 234.895 329.555 234.688C329.188 234.348 329.188 234.098 329.188 234.072Z" fill="#EB996E"/>
<path d="M332.684 220.503C330.893 220.048 327.79 221.79 327.023 223.549C326.256 225.309 326.085 227.301 325.318 229.06C324.551 230.82 322.829 232.419 321.056 231.972C320.447 231.771 319.9 231.405 319.47 230.911C319.041 230.417 318.743 229.812 318.609 229.159C318.361 227.846 318.361 226.496 318.609 225.184C319.299 219.423 320.45 213.715 320.672 207.918C320.894 202.121 320.109 196.091 317.202 191.152C314.295 186.212 308.959 182.577 303.434 183.041C299.777 183.354 296.427 185.355 292.795 185.882C290.634 186.181 288.436 185.962 286.368 185.239C284.3 184.516 282.417 183.309 280.86 181.71C280.459 181.299 278.627 180.022 278.627 180.022C278.627 179.727 278.891 177.155 279.863 176.217C287.066 169.232 300.058 167.284 309.581 169.794C319.103 172.304 328.029 179.343 332.121 188.695C336.213 198.047 335.003 211.026 332.743 220.503" fill="#263238"/>
<path d="M267.28 189.589C268.823 193.331 272.761 195.511 276.657 195.922C280.553 196.332 284.398 195.278 288.141 194.135C291.883 192.992 301.934 191.277 305.83 191.402C306.41 191.402 307.109 191.402 307.424 190.893C307.833 190.205 307.177 189.374 306.572 188.883C301.457 184.667 289.036 182.085 282.523 181.8C276.009 181.514 269.181 184.479 265.652 190.187" fill="#263238"/>
<path d="M268.976 190.053C268.976 190.053 314.159 174.868 333.664 215.769C333.664 215.769 336.58 205.524 336.58 200.03C336.58 196.368 334.491 174.52 313.042 167.651C313.042 167.651 280.724 154.735 268.976 190.053Z" fill="#3BE2AB"/>
<g opacity="0.4">
<path opacity="0.4" d="M268.976 190.053C272.732 185.909 277.882 183.461 283.332 183.229C296.657 182.603 321.584 190.455 333.63 215.769C333.63 215.769 336.546 205.524 336.546 200.03C336.546 196.368 334.457 174.52 313.008 167.651C313.042 167.651 280.724 154.735 268.976 190.053Z" fill="black"/>
</g>
<path d="M331.746 210.973C324.897 200.288 315.922 191.284 305.438 184.577C295.088 177.78 277.928 171.063 266.103 167.767C262.557 166.784 258.857 165.918 255.234 166.579C251.611 167.24 248.064 169.759 247.169 173.492C246.044 178.164 253.989 185.372 257.681 188.204C261.325 190.749 265.098 193.084 268.985 195.198C268.985 195.198 268.882 186.534 282.122 184.747C300.118 182.318 331.746 210.973 331.746 210.973Z" fill="#3BE2AB"/>
<path d="M294.747 175.618C294.747 175.618 288.234 171.849 281.704 170.974C282.792 170.075 283.983 169.325 285.251 168.74C288.798 169.356 292.228 170.563 295.412 172.313L294.747 175.618Z" fill="#FAFAFA"/>
<path d="M351.473 298.518C351.473 298.518 339.128 313.301 340.492 333.873C340.68 336.722 340.816 340.697 341.149 343.537C343.229 361.188 346.451 377.57 346.451 377.57H347.628L390.671 366.431C390.671 366.431 384.183 327.28 382.691 322.082C377.926 305.441 361.583 296.285 361.583 296.285L351.473 298.518Z" fill="#3BE2AB"/>
<path d="M302.94 494.646C302.94 494.646 302.94 494.422 302.94 493.985C302.94 493.547 302.94 492.877 302.94 492.02C302.94 490.287 302.94 487.75 302.94 484.472C302.94 477.889 302.94 468.394 302.991 456.496C303.068 432.745 303.179 399.695 303.307 362.42L303.579 362.644L287.211 367.11L271.133 371.478L271.295 371.254C271.517 389.941 271.457 407.573 271.372 423.509C271.287 439.444 271.201 453.673 271.133 465.571C271.065 477.469 271.133 487.009 271.133 493.619C271.133 496.906 271.133 499.451 271.133 501.193V503.158C271.133 503.596 271.133 503.819 271.133 503.819C271.133 503.819 271.133 503.596 271.133 503.158C271.133 502.721 271.133 502.051 271.133 501.193C271.133 499.407 271.074 496.906 271.022 493.619C270.946 487.035 270.895 477.469 270.903 465.571C270.912 453.673 270.997 439.435 271.048 423.509C271.099 407.582 271.15 389.941 270.92 371.263V371.076L271.091 371.031L287.16 366.663L303.537 362.197L303.818 362.117V362.42C303.631 399.695 303.469 432.754 303.358 456.496C303.281 468.358 303.213 477.889 303.17 484.472C303.17 487.75 303.119 490.287 303.102 492.02C303.102 492.913 303.102 493.529 303.102 493.985C303.102 494.44 302.94 494.646 302.94 494.646Z" fill="#263238"/>
<path d="M283.009 271.936C283.009 271.936 281.304 289.095 286.811 291.766C293.025 294.767 299.223 291.828 303.008 289.282C313.162 282.494 328.251 263.638 328.251 263.638L338.481 277.554C338.481 277.554 312.718 309.997 307.544 309.782C304.134 309.648 298.891 306.209 295.609 303.789C293.812 302.474 292.212 300.888 290.86 299.081L286.401 293.141C280.835 296.017 276.333 299.706 273.222 304.432C273.222 304.432 271.738 292.418 274.407 286.969C277.075 281.52 282.395 272.114 282.395 272.114L283.009 271.936Z" fill="#3BE2AB"/>
<path d="M274.091 287.433C274.07 287.536 274.036 287.635 273.989 287.728C273.912 287.942 273.801 288.219 273.656 288.568C273.302 289.678 273.048 290.82 272.898 291.98C272.403 296.252 272.403 300.571 272.898 304.843L272.591 304.78C274.025 302.242 275.898 300.006 278.115 298.188C280.624 296.05 283.366 294.231 286.282 292.766L286.418 292.695L286.521 292.82C288.319 295.008 290.221 297.286 292.224 299.599C294.228 302.023 296.484 304.204 298.95 306.102C300.128 306.976 301.409 307.688 302.761 308.219C303.426 308.473 304.11 308.667 304.807 308.8C305.489 308.915 306.182 308.942 306.87 308.88C309.641 308.612 311.985 306.951 313.929 305.2L331.567 285.495L336.682 279.841L338.054 278.349L338.412 277.965L338.549 277.849L338.447 277.992L338.106 278.403L336.784 279.939L331.754 285.683L314.244 305.495C313.234 306.437 312.131 307.263 310.953 307.96C309.721 308.692 308.356 309.149 306.947 309.3C306.219 309.362 305.486 309.335 304.764 309.219C304.041 309.086 303.331 308.886 302.641 308.621C301.249 308.075 299.928 307.346 298.711 306.45C296.21 304.534 293.922 302.329 291.891 299.876C289.88 297.554 287.978 295.267 286.188 293.07L286.435 293.123C283.547 294.576 280.83 296.374 278.337 298.483C276.174 300.263 274.339 302.443 272.923 304.914L272.668 305.378L272.616 304.851C272.14 300.551 272.186 296.205 272.753 291.917C272.928 290.756 273.213 289.616 273.605 288.514C273.759 288.139 273.895 287.871 273.98 287.683C274.012 287.598 274.049 287.514 274.091 287.433Z" fill="#263238"/>
<g opacity="0.3">
<path opacity="0.3" d="M274.722 301.895C274.55 302.345 274.518 302.841 274.632 303.311C274.745 303.781 274.997 304.201 275.353 304.512C275.708 304.655 276.094 304.693 276.468 304.622C276.842 304.551 277.191 304.374 277.476 304.11C278.034 303.574 278.516 302.958 278.908 302.279C279.927 300.739 281.153 299.361 282.548 298.188C283.921 297.027 285.805 296.044 287.382 296.866C288.368 297.549 289.116 298.549 289.513 299.715C291.653 304.298 294.219 308.96 298.405 311.577C302.59 314.195 307.97 314.311 312.582 312.605C317.167 310.735 321.201 307.632 324.278 303.61C327.331 299.6 330.039 295.313 332.368 290.801C334.295 287.308 336.247 283.709 336.844 279.725C336.315 280.037 335.071 282.047 334.542 282.36C334.542 282.36 314.67 305.289 312.803 306.477C310.936 307.665 305.787 315.579 291.201 298.438L286.376 292.954C286.376 292.954 277.186 297.625 274.722 301.895Z" fill="black"/>
</g>
<path d="M327.954 351.365L306.104 347.853L305.092 354.766L326.942 358.278L327.954 351.365Z" fill="white"/>
<path d="M387.056 367.297L352.956 375.935L356.895 409.637L291.593 461.024C288.984 461.408 286.308 461.846 284.824 462.239C281.252 463.132 274.944 472.556 273.162 473.494L260.434 483.784C260.434 483.784 259.317 488.465 265.123 487.527C270.928 486.589 277.399 481.917 278.072 481.917C278.746 481.917 280.775 483.337 279.777 486.383C278.925 489.063 275.43 498.281 275.43 498.281L271.107 506.588C271.107 506.588 289.794 507.231 294.977 499.969C298.524 495.039 309.47 481.06 309.47 481.06C309.47 481.06 386.34 441.436 390.952 433.138C397.235 421.847 387.056 367.297 387.056 367.297Z" fill="#FFBE9D"/>
<path d="M371.336 424.161C371.382 422.932 371.331 421.701 371.183 420.481C370.77 417.534 369.392 414.83 367.284 412.831C365.176 410.833 362.471 409.666 359.631 409.529C358.457 409.496 357.282 409.564 356.119 409.735C356.41 409.589 356.721 409.49 357.04 409.44C357.897 409.25 358.773 409.169 359.648 409.199C362.587 409.25 365.407 410.418 367.586 412.485C369.764 414.552 371.151 417.377 371.49 420.436C371.595 421.347 371.595 422.267 371.49 423.178C371.485 423.512 371.433 423.843 371.336 424.161V424.161Z" fill="#EB996E"/>
<path d="M286.461 494.003C286.394 494.768 286.246 495.523 286.018 496.254C285.581 498.06 284.946 499.808 284.125 501.461C283.308 503.152 282.063 504.576 280.528 505.579C280.059 505.872 279.55 506.089 279.019 506.222C278.827 506.292 278.623 506.313 278.422 506.285C279.095 506.014 279.745 505.685 280.366 505.302C281.802 504.259 282.973 502.864 283.776 501.238C284.562 499.606 285.21 497.906 285.711 496.155C285.901 495.416 286.152 494.696 286.461 494.003V494.003Z" fill="#EB996E"/>
<path d="M295.515 490.885C295.386 491.635 295.165 492.365 294.858 493.056C294.217 494.766 293.471 496.431 292.625 498.04C291.776 499.649 290.831 501.201 289.794 502.685C289.401 503.339 288.931 503.939 288.396 504.471C288.725 503.793 289.107 503.145 289.539 502.533C290.272 501.363 291.244 499.719 292.233 497.852C293.221 495.986 294.014 494.279 294.568 492.966C294.825 492.245 295.142 491.549 295.515 490.885Z" fill="#EB996E"/>
<path d="M295.267 432.557C295.36 432.931 295.411 433.314 295.421 433.7C295.498 434.433 295.557 435.487 295.591 436.818C295.752 443.712 294.8 450.585 292.778 457.148C292.386 458.398 292.045 459.408 291.772 460.087C291.656 460.45 291.504 460.8 291.32 461.132C291.377 460.752 291.474 460.381 291.61 460.024C291.832 459.327 292.13 458.309 292.463 457.05C293.378 453.767 294.073 450.421 294.543 447.036C295.004 443.651 295.243 440.237 295.259 436.818C295.259 435.505 295.259 434.442 295.259 433.709C295.227 433.326 295.23 432.94 295.267 432.557V432.557Z" fill="#263238"/>
<path d="M276.794 443.285C277.208 444.198 277.567 445.138 277.868 446.098C278.499 447.885 279.377 450.261 280.425 452.896C281.474 455.531 282.446 457.898 283.17 459.604C283.597 460.511 283.97 461.445 284.287 462.4C283.738 461.558 283.269 460.66 282.889 459.72C282.088 458.041 281.056 455.692 280.016 453.048C278.976 450.404 278.149 447.965 277.595 446.179C277.244 445.242 276.975 444.273 276.794 443.285V443.285Z" fill="#263238"/>
<path d="M271.841 466.411C271.669 466.488 271.488 466.542 271.304 466.571L269.744 466.964C269.062 467.134 268.235 467.331 267.254 467.5C266.274 467.67 265.174 467.92 263.93 468.081C262.685 468.242 261.372 468.465 259.88 468.599C258.388 468.733 256.845 468.849 255.2 468.947C248.033 469.28 240.855 468.707 233.819 467.241C232.208 466.875 230.665 466.554 229.25 466.143C227.835 465.732 226.513 465.375 225.32 464.99C224.126 464.606 223.052 464.222 222.114 463.892C221.177 463.561 220.409 463.24 219.736 462.999L218.244 462.373C218.068 462.303 217.897 462.219 217.732 462.123C217.92 462.151 218.104 462.205 218.278 462.284L219.796 462.829C220.443 463.079 221.253 463.383 222.191 463.722C223.129 464.061 224.203 464.419 225.405 464.749C226.607 465.08 227.911 465.5 229.335 465.839C230.759 466.178 232.285 466.545 233.896 466.893C237.401 467.578 240.938 468.073 244.493 468.376C248.05 468.643 251.618 468.715 255.183 468.59C256.828 468.501 258.388 468.438 259.846 468.286C261.304 468.135 262.651 467.992 263.887 467.831C265.123 467.67 266.231 467.474 267.212 467.313C268.192 467.152 269.028 467 269.71 466.857L271.287 466.554C271.466 466.484 271.651 466.436 271.841 466.411V466.411Z" fill="#263238"/>
<path d="M268.593 450.877C267.182 450.337 265.825 449.651 264.543 448.832C263.193 448.145 261.909 447.326 260.707 446.384C262.12 446.918 263.477 447.604 264.756 448.43C266.11 449.11 267.395 449.929 268.593 450.877Z" fill="#263238"/>
<path d="M390.671 366.431L390.458 366.502L389.827 366.681L387.389 367.333L378.216 369.709L346.503 377.748L346.273 377.802V377.561C345.377 371.424 344.15 364.805 342.965 357.909C342.189 353.309 341.516 348.799 341.055 344.422C340.595 340.045 340.39 335.784 340.331 331.729C340.237 327.891 340.45 324.051 340.97 320.251C341.432 316.926 342.375 313.694 343.766 310.666C344.957 308.186 346.549 305.94 348.472 304.03C349.919 302.585 351.58 301.397 353.391 300.51C354.543 299.971 355.75 299.572 356.989 299.322L357.96 299.197C358.071 299.185 358.182 299.185 358.293 299.197C358.185 299.234 358.073 299.258 357.96 299.269L357.006 299.447C355.785 299.723 354.598 300.143 353.468 300.698C351.689 301.614 350.061 302.82 348.643 304.271C346.764 306.179 345.211 308.408 344.048 310.863C342.695 313.868 341.781 317.068 341.337 320.358C340.836 324.142 340.636 327.963 340.74 331.782C340.808 335.82 341.03 340.054 341.49 344.422C341.95 348.79 342.632 353.291 343.408 357.883C344.585 364.77 345.804 371.397 346.699 377.534L346.435 377.346L378.19 369.441L387.389 367.19L389.844 366.61L390.483 366.467C390.545 366.449 390.607 366.437 390.671 366.431V366.431Z" fill="#263238"/>
</svg>
