<svg width="48" height="47" viewBox="0 0 48 47" fill="none" xmlns="http://www.w3.org/2000/svg">
<g clip-path="url(#clip0_27_401)">
<path d="M39.8853 9.25464H7.95508V46.9819H39.8853V9.25464Z" fill="url(#paint0_linear_27_401)"/>
<path d="M7.82293 9.25445C7.86146 9.25445 7.9 9.27263 7.95505 9.29081C7.95505 21.8423 7.95505 34.3938 7.95505 46.9635C5.48321 47.1757 3.39673 46.4908 1.73966 44.7332C0.56705 43.4848 1.2054e-05 42.0181 1.2054e-05 40.3575C1.2054e-05 34.4787 1.2054e-05 28.606 1.2054e-05 22.7272C1.2054e-05 20.4848 -0.00549316 18.2423 -0.00549316 15.9999C-0.00549316 13.2908 1.32126 11.3211 3.76008 9.98778C5.01527 9.30899 6.40809 9.20596 7.82293 9.25445Z" fill="url(#paint1_linear_27_401)"/>
<path d="M34.3085 9.24838C35.7344 9.24838 35.8775 9.24838 37.2978 9.24838C37.2978 21.8423 37.2978 34.3938 37.2978 46.9696C27.6032 46.9696 20.2702 46.9696 10.5425 46.9696C10.5425 34.3999 10.5425 21.8484 10.5425 9.2605C11.9628 9.2605 12.2711 9.2605 13.719 9.2605C13.719 9.10292 13.719 8.98171 13.719 8.86656C13.719 7.51504 13.7245 6.15747 13.7135 4.80595C13.7025 3.8605 13.9337 3.03626 14.6053 2.39383C15.0788 1.94535 15.6238 1.71504 16.2404 1.71504C18.1507 1.70898 20.0555 1.70898 21.9658 1.70898C25.1754 1.70898 28.3904 1.71504 31.5999 1.70898C32.4422 1.70898 33.1414 2.01201 33.6919 2.71504C34.1323 3.27868 34.2975 3.93929 34.2975 4.67868C34.292 6.10292 34.2975 7.52717 34.2975 8.95141C34.292 9.0302 34.2975 9.12111 34.3085 9.24838ZM17.1653 9.24838C17.2974 9.24838 17.3965 9.24838 17.4956 9.24838C19.015 9.24838 20.54 9.24838 22.0594 9.24838C24.9001 9.24838 27.7463 9.24838 30.587 9.25444C30.8127 9.25444 30.8622 9.17565 30.8622 8.93929C30.8512 7.87868 30.8622 6.81807 30.8622 5.75747C30.8622 5.67262 30.8512 5.58777 30.8402 5.49686C26.2709 5.49686 21.7291 5.49686 17.1653 5.49686C17.1653 6.74535 17.1653 7.96959 17.1653 9.24838Z" fill="white"/>
<mask id="mask0_27_401" style="mask-type:alpha" maskUnits="userSpaceOnUse" x="10" y="1" width="28" height="46">
<path d="M34.3085 9.24838C35.7344 9.24838 35.8775 9.24838 37.2978 9.24838C37.2978 21.8423 37.2978 34.3938 37.2978 46.9696C27.6032 46.9696 20.2702 46.9696 10.5425 46.9696C10.5425 34.3999 10.5425 21.8484 10.5425 9.2605C11.9628 9.2605 12.2711 9.2605 13.719 9.2605C13.719 9.10292 13.719 8.98171 13.719 8.86656C13.719 7.51504 13.7245 6.15747 13.7135 4.80595C13.7025 3.8605 13.9337 3.03626 14.6053 2.39383C15.0788 1.94535 15.6238 1.71504 16.2404 1.71504C18.1507 1.70898 20.0555 1.70898 21.9658 1.70898C25.1754 1.70898 28.3904 1.71504 31.5999 1.70898C32.4422 1.70898 33.1414 2.01201 33.6919 2.71504C34.1323 3.27868 34.2975 3.93929 34.2975 4.67868C34.292 6.10292 34.2975 7.52717 34.2975 8.95141C34.292 9.0302 34.2975 9.1211 34.3085 9.24838ZM17.1653 9.24838C17.2974 9.24838 17.3965 9.24838 17.4956 9.24838C19.015 9.24838 20.54 9.24838 22.0594 9.24838C24.9001 9.24838 27.7463 9.24838 30.587 9.25444C30.8127 9.25444 30.8622 9.17565 30.8622 8.93929C30.8512 7.87868 30.8622 6.81807 30.8622 5.75747C30.8622 5.67262 30.8512 5.58777 30.8402 5.49686C26.2709 5.49686 21.7291 5.49686 17.1653 5.49686C17.1653 6.74535 17.1653 7.96959 17.1653 9.24838Z" fill="#F7F9FC"/>
</mask>
<g mask="url(#mask0_27_401)">
<path d="M34.8576 0H12.6V9.26061H34.8576V0Z" fill="url(#paint2_linear_27_401)"/>
</g>
<path d="M48 15.9029C48 13.406 46.7613 11.5454 44.5592 10.1938C43.2049 9.36354 41.669 9.20596 40.0945 9.24232C39.8522 9.24838 39.8853 9.38778 39.8853 9.53323C39.8853 13.8969 39.8853 18.2544 39.8853 22.6181C39.8853 30.2848 39.8853 37.9454 39.8798 45.612C39.8798 46.0545 39.8798 46.4969 39.8798 46.9757C40.8707 47.012 41.8121 47.0181 42.737 46.7757C45.8639 45.9635 47.9945 43.3999 47.9945 40.3757C48.0055 32.2242 48 24.0605 48 15.9029Z" fill="url(#paint3_linear_27_401)"/>
<path d="M26.5296 30.9032C26.5296 31.685 26.5296 32.4244 26.5296 33.1698C26.5296 34.0122 26.5296 34.8547 26.5296 35.691C26.5296 36.1941 26.2984 36.4607 25.8469 36.4607C24.6028 36.4668 23.3586 36.4668 22.1144 36.4607C21.7015 36.4607 21.4703 36.1759 21.4703 35.6971C21.4703 34.1941 21.4703 32.691 21.4703 31.188C21.4703 31.1032 21.4703 31.0122 21.4703 30.9032C21.3657 30.9032 21.2886 30.9032 21.206 30.9032C19.8628 30.9032 18.514 30.9032 17.1707 30.9032C16.6367 30.9032 16.4165 30.6668 16.4165 30.0789C16.4165 28.7759 16.4165 27.4728 16.4165 26.1698C16.4165 25.5759 16.6312 25.3395 17.1652 25.3395C18.503 25.3395 19.8407 25.3395 21.1785 25.3395C21.2666 25.3395 21.3492 25.3395 21.4648 25.3395C21.4648 25.2425 21.4648 25.1638 21.4648 25.085C21.4648 23.5819 21.4648 22.0789 21.4648 20.5759C21.4648 20.0183 21.6905 19.7759 22.197 19.7759C23.3806 19.7759 24.5642 19.7759 25.7478 19.7759C26.3039 19.7759 26.5186 20.0062 26.5186 20.6304C26.5241 22.1213 26.5186 23.6062 26.5186 25.0971C26.5186 25.1698 26.5186 25.2425 26.5186 25.3456C26.6067 25.3456 26.6837 25.3456 26.7553 25.3456C28.1206 25.3456 29.4859 25.3456 30.8512 25.3516C31.3522 25.3516 31.5669 25.5941 31.5669 26.1456C31.5669 27.4547 31.5669 28.7638 31.5669 30.0729C31.5669 30.6729 31.3577 30.9032 30.8237 30.9032C29.4639 30.9032 28.1041 30.9032 26.7498 30.9092C26.6947 30.9032 26.6287 30.9032 26.5296 30.9032Z" fill="url(#paint4_linear_27_401)"/>
</g>
<defs>
<linearGradient id="paint0_linear_27_401" x1="7.95588" y1="28.116" x2="39.8838" y2="28.116" gradientUnits="userSpaceOnUse">
<stop stop-color="#B0F4FF"/>
<stop offset="1" stop-color="#69DCFC"/>
</linearGradient>
<linearGradient id="paint1_linear_27_401" x1="1.20542e-05" y1="28.1218" x2="7.95585" y2="28.1218" gradientUnits="userSpaceOnUse">
<stop stop-color="#6CBCFC"/>
<stop offset="1" stop-color="#458DFC"/>
</linearGradient>
<linearGradient id="paint2_linear_27_401" x1="12.5977" y1="4.62932" x2="34.8566" y2="4.62932" gradientUnits="userSpaceOnUse">
<stop stop-color="#6CBCFC"/>
<stop offset="1" stop-color="#458DFC"/>
</linearGradient>
<linearGradient id="paint3_linear_27_401" x1="39.8811" y1="28.118" x2="48.0004" y2="28.118" gradientUnits="userSpaceOnUse">
<stop stop-color="#6CBCFC"/>
<stop offset="1" stop-color="#458DFC"/>
</linearGradient>
<linearGradient id="paint4_linear_27_401" x1="16.4199" y1="28.1244" x2="31.5779" y2="28.1244" gradientUnits="userSpaceOnUse">
<stop stop-color="#6CBCFC"/>
<stop offset="1" stop-color="#458DFC"/>
</linearGradient>
<clipPath id="clip0_27_401">
<rect width="48" height="47" fill="white"/>
</clipPath>
</defs>
</svg>
